<?xml version="1.0" encoding="utf-8" standalone="no"?>
<!DOCTYPE svg PUBLIC "-//W3C//DTD SVG 1.1//EN"
  "http://www.w3.org/Graphics/SVG/1.1/DTD/svg11.dtd">
<svg xmlns:xlink="http://www.w3.org/1999/xlink" width="864pt" height="576pt" viewBox="0 0 864 576" xmlns="http://www.w3.org/2000/svg" version="1.1">
 <metadata>
  <rdf:RDF xmlns:dc="http://purl.org/dc/elements/1.1/" xmlns:cc="http://creativecommons.org/ns#" xmlns:rdf="http://www.w3.org/1999/02/22-rdf-syntax-ns#">
   <cc:Work>
    <dc:type rdf:resource="http://purl.org/dc/dcmitype/StillImage"/>
    <dc:date>2024-08-09T13:04:47.687022</dc:date>
    <dc:format>image/svg+xml</dc:format>
    <dc:creator>
     <cc:Agent>
      <dc:title>Matplotlib v3.8.2, https://matplotlib.org/</dc:title>
     </cc:Agent>
    </dc:creator>
   </cc:Work>
  </rdf:RDF>
 </metadata>
 <defs>
  <style type="text/css">*{stroke-linejoin: round; stroke-linecap: butt}</style>
 </defs>
 <g id="figure_1">
  <g id="patch_1">
   <path d="M 0 576 
L 864 576 
L 864 0 
L 0 0 
z
" style="fill: #ffffff"/>
  </g>
  <g id="axes_1">
   <g id="patch_2">
    <path d="M 108 512.64 
L 777.6 512.64 
L 777.6 69.12 
L 108 69.12 
z
" style="fill: #ffffff"/>
   </g>
   <g id="PolyCollection_1">
    <path d="M 138.436364 224.738667 
L 138.436364 387.880363 
L 151.669565 362.018544 
L 164.902767 356.273821 
L 178.135968 308.234234 
L 191.36917 302.764946 
L 204.602372 349.334222 
L 217.835573 321.194328 
L 231.068775 379.961919 
L 244.301976 385.338603 
L 257.535178 360.405023 
L 270.768379 360.589289 
L 284.001581 339.937135 
L 297.234783 389.792168 
L 310.467984 378.594449 
L 323.701186 381.561235 
L 336.934387 403.718036 
L 350.167589 414.754737 
L 363.400791 420.596934 
L 376.633992 482.386897 
L 389.867194 492.48 
L 403.100395 443.351278 
L 416.333597 446.995226 
L 429.566798 387.50084 
L 442.8 421.76094 
L 456.033202 402.742074 
L 469.266403 409.30554 
L 482.499605 435.653151 
L 495.732806 408.440565 
L 508.966008 398.965338 
L 522.199209 412.61072 
L 535.432411 406.510727 
L 548.665613 410.611755 
L 561.898814 405.795836 
L 575.132016 415.273514 
L 588.365217 420.427973 
L 601.598419 439.949382 
L 614.831621 456.915071 
L 628.064822 452.836699 
L 641.298024 469.524665 
L 654.531225 467.563197 
L 667.764427 489.601339 
L 680.997628 476.024395 
L 694.23083 461.272025 
L 707.464032 483.510516 
L 720.697233 457.446121 
L 733.930435 466.007653 
L 747.163636 434.58452 
L 747.163636 342.487737 
L 747.163636 342.487737 
L 733.930435 318.873027 
L 720.697233 367.92097 
L 707.464032 328.492967 
L 694.23083 373.731689 
L 680.997628 384.483535 
L 667.764427 388.244095 
L 654.531225 405.864269 
L 641.298024 383.670478 
L 628.064822 383.725029 
L 614.831621 379.705742 
L 601.598419 321.486229 
L 588.365217 363.777854 
L 575.132016 361.42027 
L 561.898814 354.083855 
L 548.665613 332.612551 
L 535.432411 339.141953 
L 522.199209 356.110007 
L 508.966008 347.189436 
L 495.732806 319.359488 
L 482.499605 293.227294 
L 469.266403 337.503061 
L 456.033202 304.116492 
L 442.8 310.810696 
L 429.566798 332.128001 
L 416.333597 367.352315 
L 403.100395 363.917616 
L 389.867194 376.424468 
L 376.633992 322.849531 
L 363.400791 341.177267 
L 350.167589 302.828675 
L 336.934387 332.826545 
L 323.701186 331.36274 
L 310.467984 294.44571 
L 297.234783 238.464148 
L 284.001581 225.733154 
L 270.768379 276.32703 
L 257.535178 251.019251 
L 244.301976 270.275893 
L 231.068775 229.40895 
L 217.835573 238.945549 
L 204.602372 196.63478 
L 191.36917 203.58529 
L 178.135968 238.456566 
L 164.902767 225.524695 
L 151.669565 250.74142 
L 138.436364 224.738667 
z
" clip-path="url(#p6ad49ada93)" style="fill: #1f77b4; fill-opacity: 0.3"/>
   </g>
   <g id="PolyCollection_2">
    <path d="M 138.436364 89.28 
L 138.436364 365.321435 
L 151.669565 407.44196 
L 164.902767 340.84341 
L 178.135968 287.91994 
L 191.36917 267.621375 
L 204.602372 285.280215 
L 217.835573 273.388704 
L 231.068775 274.931123 
L 244.301976 349.277702 
L 257.535178 312.750038 
L 270.768379 329.926593 
L 284.001581 338.597246 
L 297.234783 359.951214 
L 310.467984 389.465324 
L 323.701186 409.515227 
L 336.934387 398.537658 
L 350.167589 381.40533 
L 363.400791 366.11938 
L 376.633992 351.336808 
L 389.867194 376.624587 
L 403.100395 389.228044 
L 416.333597 360.840012 
L 429.566798 383.665026 
L 442.8 435.352365 
L 456.033202 414.314102 
L 469.266403 445.247828 
L 482.499605 414.604867 
L 495.732806 472.334174 
L 508.966008 443.511022 
L 522.199209 472.532569 
L 535.432411 433.618425 
L 548.665613 426.066024 
L 561.898814 391.388168 
L 575.132016 391.337921 
L 588.365217 426.084201 
L 601.598419 433.478976 
L 614.831621 435.143342 
L 628.064822 464.29725 
L 641.298024 474.512078 
L 654.531225 474.499327 
L 667.764427 380.102327 
L 680.997628 339.229366 
L 694.23083 385.990811 
L 707.464032 406.063236 
L 720.697233 402.41798 
L 733.930435 397.317926 
L 747.163636 419.758671 
L 747.163636 397.8188 
L 747.163636 397.8188 
L 733.930435 385.365446 
L 720.697233 379.645927 
L 707.464032 373.285677 
L 694.23083 343.847345 
L 680.997628 314.83818 
L 667.764427 364.274143 
L 654.531225 367.21891 
L 641.298024 423.089892 
L 628.064822 372.191148 
L 614.831621 402.489976 
L 601.598419 403.493072 
L 588.365217 369.410711 
L 575.132016 340.086693 
L 561.898814 296.072938 
L 548.665613 396.932203 
L 535.432411 408.918791 
L 522.199209 450.409435 
L 508.966008 374.532983 
L 495.732806 359.971934 
L 482.499605 387.777844 
L 469.266403 370.23821 
L 456.033202 366.311414 
L 442.8 395.277288 
L 429.566798 348.019836 
L 416.333597 319.442814 
L 403.100395 318.140159 
L 389.867194 316.376294 
L 376.633992 295.290965 
L 363.400791 325.764902 
L 350.167589 323.726354 
L 336.934387 244.285584 
L 323.701186 352.201742 
L 310.467984 347.366044 
L 297.234783 309.160946 
L 284.001581 304.683168 
L 270.768379 278.939136 
L 257.535178 215.629947 
L 244.301976 277.472858 
L 231.068775 232.412102 
L 217.835573 228.736607 
L 204.602372 247.813196 
L 191.36917 200.502408 
L 178.135968 125.421512 
L 164.902767 273.663732 
L 151.669565 324.605607 
L 138.436364 89.28 
z
" clip-path="url(#p6ad49ada93)" style="fill: #ff7f0e; fill-opacity: 0.3"/>
   </g>
   <g id="matplotlib.axis_1">
    <g id="xtick_1">
     <g id="line2d_1">
      <defs>
       <path id="m80638533d4" d="M 0 0 
L 0 3.5 
" style="stroke: #000000; stroke-width: 0.8"/>
      </defs>
      <g>
       <use xlink:href="#m80638533d4" x="138.436364" y="512.64" style="stroke: #000000; stroke-width: 0.8"/>
      </g>
     </g>
     <g id="text_1">
      <!-- 0 -->
      <g transform="translate(133.028239 532.557344) scale(0.17 -0.17)">
       <defs>
        <path id="DejaVuSans-30" d="M 2034 4250 
Q 1547 4250 1301 3770 
Q 1056 3291 1056 2328 
Q 1056 1369 1301 889 
Q 1547 409 2034 409 
Q 2525 409 2770 889 
Q 3016 1369 3016 2328 
Q 3016 3291 2770 3770 
Q 2525 4250 2034 4250 
z
M 2034 4750 
Q 2819 4750 3233 4129 
Q 3647 3509 3647 2328 
Q 3647 1150 3233 529 
Q 2819 -91 2034 -91 
Q 1250 -91 836 529 
Q 422 1150 422 2328 
Q 422 3509 836 4129 
Q 1250 4750 2034 4750 
z
" transform="scale(0.015625)"/>
       </defs>
       <use xlink:href="#DejaVuSans-30"/>
      </g>
     </g>
    </g>
    <g id="xtick_2">
     <g id="line2d_2">
      <g>
       <use xlink:href="#m80638533d4" x="270.768379" y="512.64" style="stroke: #000000; stroke-width: 0.8"/>
      </g>
     </g>
     <g id="text_2">
      <!-- 10 -->
      <g transform="translate(259.952129 532.557344) scale(0.17 -0.17)">
       <defs>
        <path id="DejaVuSans-31" d="M 794 531 
L 1825 531 
L 1825 4091 
L 703 3866 
L 703 4441 
L 1819 4666 
L 2450 4666 
L 2450 531 
L 3481 531 
L 3481 0 
L 794 0 
L 794 531 
z
" transform="scale(0.015625)"/>
       </defs>
       <use xlink:href="#DejaVuSans-31"/>
       <use xlink:href="#DejaVuSans-30" x="63.623047"/>
      </g>
     </g>
    </g>
    <g id="xtick_3">
     <g id="line2d_3">
      <g>
       <use xlink:href="#m80638533d4" x="403.100395" y="512.64" style="stroke: #000000; stroke-width: 0.8"/>
      </g>
     </g>
     <g id="text_3">
      <!-- 20 -->
      <g transform="translate(392.284145 532.557344) scale(0.17 -0.17)">
       <defs>
        <path id="DejaVuSans-32" d="M 1228 531 
L 3431 531 
L 3431 0 
L 469 0 
L 469 531 
Q 828 903 1448 1529 
Q 2069 2156 2228 2338 
Q 2531 2678 2651 2914 
Q 2772 3150 2772 3378 
Q 2772 3750 2511 3984 
Q 2250 4219 1831 4219 
Q 1534 4219 1204 4116 
Q 875 4013 500 3803 
L 500 4441 
Q 881 4594 1212 4672 
Q 1544 4750 1819 4750 
Q 2544 4750 2975 4387 
Q 3406 4025 3406 3419 
Q 3406 3131 3298 2873 
Q 3191 2616 2906 2266 
Q 2828 2175 2409 1742 
Q 1991 1309 1228 531 
z
" transform="scale(0.015625)"/>
       </defs>
       <use xlink:href="#DejaVuSans-32"/>
       <use xlink:href="#DejaVuSans-30" x="63.623047"/>
      </g>
     </g>
    </g>
    <g id="xtick_4">
     <g id="line2d_4">
      <g>
       <use xlink:href="#m80638533d4" x="535.432411" y="512.64" style="stroke: #000000; stroke-width: 0.8"/>
      </g>
     </g>
     <g id="text_4">
      <!-- 30 -->
      <g transform="translate(524.616161 532.557344) scale(0.17 -0.17)">
       <defs>
        <path id="DejaVuSans-33" d="M 2597 2516 
Q 3050 2419 3304 2112 
Q 3559 1806 3559 1356 
Q 3559 666 3084 287 
Q 2609 -91 1734 -91 
Q 1441 -91 1130 -33 
Q 819 25 488 141 
L 488 750 
Q 750 597 1062 519 
Q 1375 441 1716 441 
Q 2309 441 2620 675 
Q 2931 909 2931 1356 
Q 2931 1769 2642 2001 
Q 2353 2234 1838 2234 
L 1294 2234 
L 1294 2753 
L 1863 2753 
Q 2328 2753 2575 2939 
Q 2822 3125 2822 3475 
Q 2822 3834 2567 4026 
Q 2313 4219 1838 4219 
Q 1578 4219 1281 4162 
Q 984 4106 628 3988 
L 628 4550 
Q 988 4650 1302 4700 
Q 1616 4750 1894 4750 
Q 2613 4750 3031 4423 
Q 3450 4097 3450 3541 
Q 3450 3153 3228 2886 
Q 3006 2619 2597 2516 
z
" transform="scale(0.015625)"/>
       </defs>
       <use xlink:href="#DejaVuSans-33"/>
       <use xlink:href="#DejaVuSans-30" x="63.623047"/>
      </g>
     </g>
    </g>
    <g id="xtick_5">
     <g id="line2d_5">
      <g>
       <use xlink:href="#m80638533d4" x="667.764427" y="512.64" style="stroke: #000000; stroke-width: 0.8"/>
      </g>
     </g>
     <g id="text_5">
      <!-- 40 -->
      <g transform="translate(656.948177 532.557344) scale(0.17 -0.17)">
       <defs>
        <path id="DejaVuSans-34" d="M 2419 4116 
L 825 1625 
L 2419 1625 
L 2419 4116 
z
M 2253 4666 
L 3047 4666 
L 3047 1625 
L 3713 1625 
L 3713 1100 
L 3047 1100 
L 3047 0 
L 2419 0 
L 2419 1100 
L 313 1100 
L 313 1709 
L 2253 4666 
z
" transform="scale(0.015625)"/>
       </defs>
       <use xlink:href="#DejaVuSans-34"/>
       <use xlink:href="#DejaVuSans-30" x="63.623047"/>
      </g>
     </g>
    </g>
    <g id="text_6">
     <!-- Time relative to Hatch (hours) -->
     <g transform="translate(315.082188 553.010156) scale(0.17 -0.17)">
      <defs>
       <path id="DejaVuSans-54" d="M -19 4666 
L 3928 4666 
L 3928 4134 
L 2272 4134 
L 2272 0 
L 1638 0 
L 1638 4134 
L -19 4134 
L -19 4666 
z
" transform="scale(0.015625)"/>
       <path id="DejaVuSans-69" d="M 603 3500 
L 1178 3500 
L 1178 0 
L 603 0 
L 603 3500 
z
M 603 4863 
L 1178 4863 
L 1178 4134 
L 603 4134 
L 603 4863 
z
" transform="scale(0.015625)"/>
       <path id="DejaVuSans-6d" d="M 3328 2828 
Q 3544 3216 3844 3400 
Q 4144 3584 4550 3584 
Q 5097 3584 5394 3201 
Q 5691 2819 5691 2113 
L 5691 0 
L 5113 0 
L 5113 2094 
Q 5113 2597 4934 2840 
Q 4756 3084 4391 3084 
Q 3944 3084 3684 2787 
Q 3425 2491 3425 1978 
L 3425 0 
L 2847 0 
L 2847 2094 
Q 2847 2600 2669 2842 
Q 2491 3084 2119 3084 
Q 1678 3084 1418 2786 
Q 1159 2488 1159 1978 
L 1159 0 
L 581 0 
L 581 3500 
L 1159 3500 
L 1159 2956 
Q 1356 3278 1631 3431 
Q 1906 3584 2284 3584 
Q 2666 3584 2933 3390 
Q 3200 3197 3328 2828 
z
" transform="scale(0.015625)"/>
       <path id="DejaVuSans-65" d="M 3597 1894 
L 3597 1613 
L 953 1613 
Q 991 1019 1311 708 
Q 1631 397 2203 397 
Q 2534 397 2845 478 
Q 3156 559 3463 722 
L 3463 178 
Q 3153 47 2828 -22 
Q 2503 -91 2169 -91 
Q 1331 -91 842 396 
Q 353 884 353 1716 
Q 353 2575 817 3079 
Q 1281 3584 2069 3584 
Q 2775 3584 3186 3129 
Q 3597 2675 3597 1894 
z
M 3022 2063 
Q 3016 2534 2758 2815 
Q 2500 3097 2075 3097 
Q 1594 3097 1305 2825 
Q 1016 2553 972 2059 
L 3022 2063 
z
" transform="scale(0.015625)"/>
       <path id="DejaVuSans-20" transform="scale(0.015625)"/>
       <path id="DejaVuSans-72" d="M 2631 2963 
Q 2534 3019 2420 3045 
Q 2306 3072 2169 3072 
Q 1681 3072 1420 2755 
Q 1159 2438 1159 1844 
L 1159 0 
L 581 0 
L 581 3500 
L 1159 3500 
L 1159 2956 
Q 1341 3275 1631 3429 
Q 1922 3584 2338 3584 
Q 2397 3584 2469 3576 
Q 2541 3569 2628 3553 
L 2631 2963 
z
" transform="scale(0.015625)"/>
       <path id="DejaVuSans-6c" d="M 603 4863 
L 1178 4863 
L 1178 0 
L 603 0 
L 603 4863 
z
" transform="scale(0.015625)"/>
       <path id="DejaVuSans-61" d="M 2194 1759 
Q 1497 1759 1228 1600 
Q 959 1441 959 1056 
Q 959 750 1161 570 
Q 1363 391 1709 391 
Q 2188 391 2477 730 
Q 2766 1069 2766 1631 
L 2766 1759 
L 2194 1759 
z
M 3341 1997 
L 3341 0 
L 2766 0 
L 2766 531 
Q 2569 213 2275 61 
Q 1981 -91 1556 -91 
Q 1019 -91 701 211 
Q 384 513 384 1019 
Q 384 1609 779 1909 
Q 1175 2209 1959 2209 
L 2766 2209 
L 2766 2266 
Q 2766 2663 2505 2880 
Q 2244 3097 1772 3097 
Q 1472 3097 1187 3025 
Q 903 2953 641 2809 
L 641 3341 
Q 956 3463 1253 3523 
Q 1550 3584 1831 3584 
Q 2591 3584 2966 3190 
Q 3341 2797 3341 1997 
z
" transform="scale(0.015625)"/>
       <path id="DejaVuSans-74" d="M 1172 4494 
L 1172 3500 
L 2356 3500 
L 2356 3053 
L 1172 3053 
L 1172 1153 
Q 1172 725 1289 603 
Q 1406 481 1766 481 
L 2356 481 
L 2356 0 
L 1766 0 
Q 1100 0 847 248 
Q 594 497 594 1153 
L 594 3053 
L 172 3053 
L 172 3500 
L 594 3500 
L 594 4494 
L 1172 4494 
z
" transform="scale(0.015625)"/>
       <path id="DejaVuSans-76" d="M 191 3500 
L 800 3500 
L 1894 563 
L 2988 3500 
L 3597 3500 
L 2284 0 
L 1503 0 
L 191 3500 
z
" transform="scale(0.015625)"/>
       <path id="DejaVuSans-6f" d="M 1959 3097 
Q 1497 3097 1228 2736 
Q 959 2375 959 1747 
Q 959 1119 1226 758 
Q 1494 397 1959 397 
Q 2419 397 2687 759 
Q 2956 1122 2956 1747 
Q 2956 2369 2687 2733 
Q 2419 3097 1959 3097 
z
M 1959 3584 
Q 2709 3584 3137 3096 
Q 3566 2609 3566 1747 
Q 3566 888 3137 398 
Q 2709 -91 1959 -91 
Q 1206 -91 779 398 
Q 353 888 353 1747 
Q 353 2609 779 3096 
Q 1206 3584 1959 3584 
z
" transform="scale(0.015625)"/>
       <path id="DejaVuSans-48" d="M 628 4666 
L 1259 4666 
L 1259 2753 
L 3553 2753 
L 3553 4666 
L 4184 4666 
L 4184 0 
L 3553 0 
L 3553 2222 
L 1259 2222 
L 1259 0 
L 628 0 
L 628 4666 
z
" transform="scale(0.015625)"/>
       <path id="DejaVuSans-63" d="M 3122 3366 
L 3122 2828 
Q 2878 2963 2633 3030 
Q 2388 3097 2138 3097 
Q 1578 3097 1268 2742 
Q 959 2388 959 1747 
Q 959 1106 1268 751 
Q 1578 397 2138 397 
Q 2388 397 2633 464 
Q 2878 531 3122 666 
L 3122 134 
Q 2881 22 2623 -34 
Q 2366 -91 2075 -91 
Q 1284 -91 818 406 
Q 353 903 353 1747 
Q 353 2603 823 3093 
Q 1294 3584 2113 3584 
Q 2378 3584 2631 3529 
Q 2884 3475 3122 3366 
z
" transform="scale(0.015625)"/>
       <path id="DejaVuSans-68" d="M 3513 2113 
L 3513 0 
L 2938 0 
L 2938 2094 
Q 2938 2591 2744 2837 
Q 2550 3084 2163 3084 
Q 1697 3084 1428 2787 
Q 1159 2491 1159 1978 
L 1159 0 
L 581 0 
L 581 4863 
L 1159 4863 
L 1159 2956 
Q 1366 3272 1645 3428 
Q 1925 3584 2291 3584 
Q 2894 3584 3203 3211 
Q 3513 2838 3513 2113 
z
" transform="scale(0.015625)"/>
       <path id="DejaVuSans-28" d="M 1984 4856 
Q 1566 4138 1362 3434 
Q 1159 2731 1159 2009 
Q 1159 1288 1364 580 
Q 1569 -128 1984 -844 
L 1484 -844 
Q 1016 -109 783 600 
Q 550 1309 550 2009 
Q 550 2706 781 3412 
Q 1013 4119 1484 4856 
L 1984 4856 
z
" transform="scale(0.015625)"/>
       <path id="DejaVuSans-75" d="M 544 1381 
L 544 3500 
L 1119 3500 
L 1119 1403 
Q 1119 906 1312 657 
Q 1506 409 1894 409 
Q 2359 409 2629 706 
Q 2900 1003 2900 1516 
L 2900 3500 
L 3475 3500 
L 3475 0 
L 2900 0 
L 2900 538 
Q 2691 219 2414 64 
Q 2138 -91 1772 -91 
Q 1169 -91 856 284 
Q 544 659 544 1381 
z
M 1991 3584 
L 1991 3584 
z
" transform="scale(0.015625)"/>
       <path id="DejaVuSans-73" d="M 2834 3397 
L 2834 2853 
Q 2591 2978 2328 3040 
Q 2066 3103 1784 3103 
Q 1356 3103 1142 2972 
Q 928 2841 928 2578 
Q 928 2378 1081 2264 
Q 1234 2150 1697 2047 
L 1894 2003 
Q 2506 1872 2764 1633 
Q 3022 1394 3022 966 
Q 3022 478 2636 193 
Q 2250 -91 1575 -91 
Q 1294 -91 989 -36 
Q 684 19 347 128 
L 347 722 
Q 666 556 975 473 
Q 1284 391 1588 391 
Q 1994 391 2212 530 
Q 2431 669 2431 922 
Q 2431 1156 2273 1281 
Q 2116 1406 1581 1522 
L 1381 1569 
Q 847 1681 609 1914 
Q 372 2147 372 2553 
Q 372 3047 722 3315 
Q 1072 3584 1716 3584 
Q 2034 3584 2315 3537 
Q 2597 3491 2834 3397 
z
" transform="scale(0.015625)"/>
       <path id="DejaVuSans-29" d="M 513 4856 
L 1013 4856 
Q 1481 4119 1714 3412 
Q 1947 2706 1947 2009 
Q 1947 1309 1714 600 
Q 1481 -109 1013 -844 
L 513 -844 
Q 928 -128 1133 580 
Q 1338 1288 1338 2009 
Q 1338 2731 1133 3434 
Q 928 4138 513 4856 
z
" transform="scale(0.015625)"/>
      </defs>
      <use xlink:href="#DejaVuSans-54"/>
      <use xlink:href="#DejaVuSans-69" x="57.958984"/>
      <use xlink:href="#DejaVuSans-6d" x="85.742188"/>
      <use xlink:href="#DejaVuSans-65" x="183.154297"/>
      <use xlink:href="#DejaVuSans-20" x="244.677734"/>
      <use xlink:href="#DejaVuSans-72" x="276.464844"/>
      <use xlink:href="#DejaVuSans-65" x="315.328125"/>
      <use xlink:href="#DejaVuSans-6c" x="376.851562"/>
      <use xlink:href="#DejaVuSans-61" x="404.634766"/>
      <use xlink:href="#DejaVuSans-74" x="465.914062"/>
      <use xlink:href="#DejaVuSans-69" x="505.123047"/>
      <use xlink:href="#DejaVuSans-76" x="532.90625"/>
      <use xlink:href="#DejaVuSans-65" x="592.085938"/>
      <use xlink:href="#DejaVuSans-20" x="653.609375"/>
      <use xlink:href="#DejaVuSans-74" x="685.396484"/>
      <use xlink:href="#DejaVuSans-6f" x="724.605469"/>
      <use xlink:href="#DejaVuSans-20" x="785.787109"/>
      <use xlink:href="#DejaVuSans-48" x="817.574219"/>
      <use xlink:href="#DejaVuSans-61" x="892.769531"/>
      <use xlink:href="#DejaVuSans-74" x="954.048828"/>
      <use xlink:href="#DejaVuSans-63" x="993.257812"/>
      <use xlink:href="#DejaVuSans-68" x="1048.238281"/>
      <use xlink:href="#DejaVuSans-20" x="1111.617188"/>
      <use xlink:href="#DejaVuSans-28" x="1143.404297"/>
      <use xlink:href="#DejaVuSans-68" x="1182.417969"/>
      <use xlink:href="#DejaVuSans-6f" x="1245.796875"/>
      <use xlink:href="#DejaVuSans-75" x="1306.978516"/>
      <use xlink:href="#DejaVuSans-72" x="1370.357422"/>
      <use xlink:href="#DejaVuSans-73" x="1411.470703"/>
      <use xlink:href="#DejaVuSans-29" x="1463.570312"/>
     </g>
    </g>
   </g>
   <g id="matplotlib.axis_2">
    <g id="ytick_1">
     <g id="line2d_6">
      <defs>
       <path id="me18848267a" d="M 0 0 
L -3.5 0 
" style="stroke: #000000; stroke-width: 0.8"/>
      </defs>
      <g>
       <use xlink:href="#me18848267a" x="108" y="444.279447" style="stroke: #000000; stroke-width: 0.8"/>
      </g>
     </g>
     <g id="text_7">
      <!-- 0.8 -->
      <g transform="translate(73.964687 450.738119) scale(0.17 -0.17)">
       <defs>
        <path id="DejaVuSans-2e" d="M 684 794 
L 1344 794 
L 1344 0 
L 684 0 
L 684 794 
z
" transform="scale(0.015625)"/>
        <path id="DejaVuSans-38" d="M 2034 2216 
Q 1584 2216 1326 1975 
Q 1069 1734 1069 1313 
Q 1069 891 1326 650 
Q 1584 409 2034 409 
Q 2484 409 2743 651 
Q 3003 894 3003 1313 
Q 3003 1734 2745 1975 
Q 2488 2216 2034 2216 
z
M 1403 2484 
Q 997 2584 770 2862 
Q 544 3141 544 3541 
Q 544 4100 942 4425 
Q 1341 4750 2034 4750 
Q 2731 4750 3128 4425 
Q 3525 4100 3525 3541 
Q 3525 3141 3298 2862 
Q 3072 2584 2669 2484 
Q 3125 2378 3379 2068 
Q 3634 1759 3634 1313 
Q 3634 634 3220 271 
Q 2806 -91 2034 -91 
Q 1263 -91 848 271 
Q 434 634 434 1313 
Q 434 1759 690 2068 
Q 947 2378 1403 2484 
z
M 1172 3481 
Q 1172 3119 1398 2916 
Q 1625 2713 2034 2713 
Q 2441 2713 2670 2916 
Q 2900 3119 2900 3481 
Q 2900 3844 2670 4047 
Q 2441 4250 2034 4250 
Q 1625 4250 1398 4047 
Q 1172 3844 1172 3481 
z
" transform="scale(0.015625)"/>
       </defs>
       <use xlink:href="#DejaVuSans-30"/>
       <use xlink:href="#DejaVuSans-2e" x="63.623047"/>
       <use xlink:href="#DejaVuSans-38" x="95.410156"/>
      </g>
     </g>
    </g>
    <g id="ytick_2">
     <g id="line2d_7">
      <g>
       <use xlink:href="#me18848267a" x="108" y="356.873642" style="stroke: #000000; stroke-width: 0.8"/>
      </g>
     </g>
     <g id="text_8">
      <!-- 0.9 -->
      <g transform="translate(73.964687 363.332314) scale(0.17 -0.17)">
       <defs>
        <path id="DejaVuSans-39" d="M 703 97 
L 703 672 
Q 941 559 1184 500 
Q 1428 441 1663 441 
Q 2288 441 2617 861 
Q 2947 1281 2994 2138 
Q 2813 1869 2534 1725 
Q 2256 1581 1919 1581 
Q 1219 1581 811 2004 
Q 403 2428 403 3163 
Q 403 3881 828 4315 
Q 1253 4750 1959 4750 
Q 2769 4750 3195 4129 
Q 3622 3509 3622 2328 
Q 3622 1225 3098 567 
Q 2575 -91 1691 -91 
Q 1453 -91 1209 -44 
Q 966 3 703 97 
z
M 1959 2075 
Q 2384 2075 2632 2365 
Q 2881 2656 2881 3163 
Q 2881 3666 2632 3958 
Q 2384 4250 1959 4250 
Q 1534 4250 1286 3958 
Q 1038 3666 1038 3163 
Q 1038 2656 1286 2365 
Q 1534 2075 1959 2075 
z
" transform="scale(0.015625)"/>
       </defs>
       <use xlink:href="#DejaVuSans-30"/>
       <use xlink:href="#DejaVuSans-2e" x="63.623047"/>
       <use xlink:href="#DejaVuSans-39" x="95.410156"/>
      </g>
     </g>
    </g>
    <g id="ytick_3">
     <g id="line2d_8">
      <g>
       <use xlink:href="#me18848267a" x="108" y="269.467837" style="stroke: #000000; stroke-width: 0.8"/>
      </g>
     </g>
     <g id="text_9">
      <!-- 1.0 -->
      <g transform="translate(73.964687 275.926509) scale(0.17 -0.17)">
       <use xlink:href="#DejaVuSans-31"/>
       <use xlink:href="#DejaVuSans-2e" x="63.623047"/>
       <use xlink:href="#DejaVuSans-30" x="95.410156"/>
      </g>
     </g>
    </g>
    <g id="ytick_4">
     <g id="line2d_9">
      <g>
       <use xlink:href="#me18848267a" x="108" y="182.062032" style="stroke: #000000; stroke-width: 0.8"/>
      </g>
     </g>
     <g id="text_10">
      <!-- 1.1 -->
      <g transform="translate(73.964687 188.520704) scale(0.17 -0.17)">
       <use xlink:href="#DejaVuSans-31"/>
       <use xlink:href="#DejaVuSans-2e" x="63.623047"/>
       <use xlink:href="#DejaVuSans-31" x="95.410156"/>
      </g>
     </g>
    </g>
    <g id="ytick_5">
     <g id="line2d_10">
      <g>
       <use xlink:href="#me18848267a" x="108" y="94.656227" style="stroke: #000000; stroke-width: 0.8"/>
      </g>
     </g>
     <g id="text_11">
      <!-- 1.2 -->
      <g transform="translate(73.964687 101.114899) scale(0.17 -0.17)">
       <use xlink:href="#DejaVuSans-31"/>
       <use xlink:href="#DejaVuSans-2e" x="63.623047"/>
       <use xlink:href="#DejaVuSans-32" x="95.410156"/>
      </g>
     </g>
    </g>
    <g id="text_12">
     <!-- Nuclear/Cytoplasmic ratio -->
     <g transform="translate(66.429219 400.965625) rotate(-90) scale(0.17 -0.17)">
      <defs>
       <path id="DejaVuSans-4e" d="M 628 4666 
L 1478 4666 
L 3547 763 
L 3547 4666 
L 4159 4666 
L 4159 0 
L 3309 0 
L 1241 3903 
L 1241 0 
L 628 0 
L 628 4666 
z
" transform="scale(0.015625)"/>
       <path id="DejaVuSans-2f" d="M 1625 4666 
L 2156 4666 
L 531 -594 
L 0 -594 
L 1625 4666 
z
" transform="scale(0.015625)"/>
       <path id="DejaVuSans-43" d="M 4122 4306 
L 4122 3641 
Q 3803 3938 3442 4084 
Q 3081 4231 2675 4231 
Q 1875 4231 1450 3742 
Q 1025 3253 1025 2328 
Q 1025 1406 1450 917 
Q 1875 428 2675 428 
Q 3081 428 3442 575 
Q 3803 722 4122 1019 
L 4122 359 
Q 3791 134 3420 21 
Q 3050 -91 2638 -91 
Q 1578 -91 968 557 
Q 359 1206 359 2328 
Q 359 3453 968 4101 
Q 1578 4750 2638 4750 
Q 3056 4750 3426 4639 
Q 3797 4528 4122 4306 
z
" transform="scale(0.015625)"/>
       <path id="DejaVuSans-79" d="M 2059 -325 
Q 1816 -950 1584 -1140 
Q 1353 -1331 966 -1331 
L 506 -1331 
L 506 -850 
L 844 -850 
Q 1081 -850 1212 -737 
Q 1344 -625 1503 -206 
L 1606 56 
L 191 3500 
L 800 3500 
L 1894 763 
L 2988 3500 
L 3597 3500 
L 2059 -325 
z
" transform="scale(0.015625)"/>
       <path id="DejaVuSans-70" d="M 1159 525 
L 1159 -1331 
L 581 -1331 
L 581 3500 
L 1159 3500 
L 1159 2969 
Q 1341 3281 1617 3432 
Q 1894 3584 2278 3584 
Q 2916 3584 3314 3078 
Q 3713 2572 3713 1747 
Q 3713 922 3314 415 
Q 2916 -91 2278 -91 
Q 1894 -91 1617 61 
Q 1341 213 1159 525 
z
M 3116 1747 
Q 3116 2381 2855 2742 
Q 2594 3103 2138 3103 
Q 1681 3103 1420 2742 
Q 1159 2381 1159 1747 
Q 1159 1113 1420 752 
Q 1681 391 2138 391 
Q 2594 391 2855 752 
Q 3116 1113 3116 1747 
z
" transform="scale(0.015625)"/>
      </defs>
      <use xlink:href="#DejaVuSans-4e"/>
      <use xlink:href="#DejaVuSans-75" x="74.804688"/>
      <use xlink:href="#DejaVuSans-63" x="138.183594"/>
      <use xlink:href="#DejaVuSans-6c" x="193.164062"/>
      <use xlink:href="#DejaVuSans-65" x="220.947266"/>
      <use xlink:href="#DejaVuSans-61" x="282.470703"/>
      <use xlink:href="#DejaVuSans-72" x="343.75"/>
      <use xlink:href="#DejaVuSans-2f" x="384.863281"/>
      <use xlink:href="#DejaVuSans-43" x="418.554688"/>
      <use xlink:href="#DejaVuSans-79" x="488.378906"/>
      <use xlink:href="#DejaVuSans-74" x="547.558594"/>
      <use xlink:href="#DejaVuSans-6f" x="586.767578"/>
      <use xlink:href="#DejaVuSans-70" x="647.949219"/>
      <use xlink:href="#DejaVuSans-6c" x="711.425781"/>
      <use xlink:href="#DejaVuSans-61" x="739.208984"/>
      <use xlink:href="#DejaVuSans-73" x="800.488281"/>
      <use xlink:href="#DejaVuSans-6d" x="852.587891"/>
      <use xlink:href="#DejaVuSans-69" x="950"/>
      <use xlink:href="#DejaVuSans-63" x="977.783203"/>
      <use xlink:href="#DejaVuSans-20" x="1032.763672"/>
      <use xlink:href="#DejaVuSans-72" x="1064.550781"/>
      <use xlink:href="#DejaVuSans-61" x="1105.664062"/>
      <use xlink:href="#DejaVuSans-74" x="1166.943359"/>
      <use xlink:href="#DejaVuSans-69" x="1206.152344"/>
      <use xlink:href="#DejaVuSans-6f" x="1233.935547"/>
     </g>
    </g>
   </g>
   <g id="line2d_11">
    <path d="M 138.436364 306.309515 
L 151.669565 306.379982 
L 164.902767 290.899258 
L 178.135968 273.3454 
L 191.36917 253.175118 
L 204.602372 272.984501 
L 217.835573 280.069939 
L 231.068775 304.685434 
L 244.301976 327.807248 
L 257.535178 305.712137 
L 270.768379 318.45816 
L 284.001581 282.835145 
L 297.234783 314.128158 
L 310.467984 336.520079 
L 323.701186 356.461988 
L 336.934387 368.27229 
L 350.167589 358.791706 
L 363.400791 380.8871 
L 376.633992 402.618214 
L 389.867194 434.452234 
L 403.100395 403.634447 
L 416.333597 407.17377 
L 429.566798 359.814421 
L 442.8 366.285818 
L 456.033202 353.429283 
L 469.266403 373.4043 
L 482.499605 364.440223 
L 495.732806 363.900026 
L 508.966008 373.077387 
L 522.199209 384.360364 
L 535.432411 372.82634 
L 548.665613 371.612153 
L 561.898814 379.939845 
L 575.132016 388.346892 
L 588.365217 392.102914 
L 601.598419 380.717806 
L 614.831621 418.310406 
L 628.064822 418.280864 
L 641.298024 426.597572 
L 654.531225 436.713733 
L 667.764427 438.922717 
L 680.997628 430.253965 
L 694.23083 417.501857 
L 707.464032 406.001742 
L 720.697233 412.683545 
L 733.930435 392.44034 
L 747.163636 388.536128 
" clip-path="url(#p6ad49ada93)" style="fill: none; stroke: #1f77b4; stroke-width: 1.5; stroke-linecap: square"/>
   </g>
   <g id="line2d_12">
    <path d="M 138.436364 227.300717 
L 151.669565 366.023783 
L 164.902767 307.253571 
L 178.135968 206.670726 
L 191.36917 234.061891 
L 204.602372 266.546705 
L 217.835573 251.062656 
L 231.068775 253.671613 
L 244.301976 313.37528 
L 257.535178 264.189993 
L 270.768379 304.432865 
L 284.001581 321.640207 
L 297.234783 334.55608 
L 310.467984 368.415684 
L 323.701186 380.858484 
L 336.934387 321.411621 
L 350.167589 352.565842 
L 363.400791 345.942141 
L 376.633992 323.313886 
L 389.867194 346.500441 
L 403.100395 353.684102 
L 416.333597 340.141413 
L 429.566798 365.842431 
L 442.8 415.314826 
L 456.033202 390.312758 
L 469.266403 407.743019 
L 482.499605 401.191356 
L 495.732806 416.153054 
L 508.966008 409.022002 
L 522.199209 461.471002 
L 535.432411 421.268608 
L 548.665613 411.499113 
L 561.898814 343.730553 
L 575.132016 365.712307 
L 588.365217 397.747456 
L 601.598419 418.486024 
L 614.831621 418.816659 
L 628.064822 418.244199 
L 641.298024 448.800985 
L 654.531225 420.859118 
L 667.764427 372.188235 
L 680.997628 327.033773 
L 694.23083 364.919078 
L 707.464032 389.674457 
L 720.697233 391.031954 
L 733.930435 391.341686 
L 747.163636 408.788735 
" clip-path="url(#p6ad49ada93)" style="fill: none; stroke: #ff7f0e; stroke-width: 1.5; stroke-linecap: square"/>
   </g>
   <g id="patch_3">
    <path d="M 108 512.64 
L 108 69.12 
" style="fill: none; stroke: #000000; stroke-width: 0.8; stroke-linejoin: miter; stroke-linecap: square"/>
   </g>
   <g id="patch_4">
    <path d="M 777.6 512.64 
L 777.6 69.12 
" style="fill: none; stroke: #000000; stroke-width: 0.8; stroke-linejoin: miter; stroke-linecap: square"/>
   </g>
   <g id="patch_5">
    <path d="M 108 512.64 
L 777.6 512.64 
" style="fill: none; stroke: #000000; stroke-width: 0.8; stroke-linejoin: miter; stroke-linecap: square"/>
   </g>
   <g id="patch_6">
    <path d="M 108 69.12 
L 777.6 69.12 
" style="fill: none; stroke: #000000; stroke-width: 0.8; stroke-linejoin: miter; stroke-linecap: square"/>
   </g>
   <g id="legend_1">
    <g id="patch_7">
     <path d="M 655.566563 132.625625 
L 765.7 132.625625 
Q 769.1 132.625625 769.1 129.225625 
L 769.1 81.02 
Q 769.1 77.62 765.7 77.62 
L 655.566563 77.62 
Q 652.166563 77.62 652.166563 81.02 
L 652.166563 129.225625 
Q 652.166563 132.625625 655.566563 132.625625 
z
" style="fill: #ffffff; opacity: 0.8; stroke: #cccccc; stroke-linejoin: miter"/>
    </g>
    <g id="line2d_13">
     <path d="M 658.966563 91.387344 
L 675.966563 91.387344 
L 692.966563 91.387344 
" style="fill: none; stroke: #1f77b4; stroke-width: 1.5; stroke-linecap: square"/>
    </g>
    <g id="text_13">
     <!-- TIR -->
     <g transform="translate(706.566563 97.337344) scale(0.17 -0.17)">
      <defs>
       <path id="DejaVuSans-49" d="M 628 4666 
L 1259 4666 
L 1259 0 
L 628 0 
L 628 4666 
z
" transform="scale(0.015625)"/>
       <path id="DejaVuSans-52" d="M 2841 2188 
Q 3044 2119 3236 1894 
Q 3428 1669 3622 1275 
L 4263 0 
L 3584 0 
L 2988 1197 
Q 2756 1666 2539 1819 
Q 2322 1972 1947 1972 
L 1259 1972 
L 1259 0 
L 628 0 
L 628 4666 
L 2053 4666 
Q 2853 4666 3247 4331 
Q 3641 3997 3641 3322 
Q 3641 2881 3436 2590 
Q 3231 2300 2841 2188 
z
M 1259 4147 
L 1259 2491 
L 2053 2491 
Q 2509 2491 2742 2702 
Q 2975 2913 2975 3322 
Q 2975 3731 2742 3939 
Q 2509 4147 2053 4147 
L 1259 4147 
z
" transform="scale(0.015625)"/>
      </defs>
      <use xlink:href="#DejaVuSans-54"/>
      <use xlink:href="#DejaVuSans-49" x="61.083984"/>
      <use xlink:href="#DejaVuSans-52" x="90.576172"/>
     </g>
    </g>
    <g id="line2d_14">
     <path d="M 658.966563 116.340156 
L 675.966563 116.340156 
L 692.966563 116.340156 
" style="fill: none; stroke: #ff7f0e; stroke-width: 1.5; stroke-linecap: square"/>
    </g>
    <g id="text_14">
     <!-- No TIR -->
     <g transform="translate(706.566563 122.290156) scale(0.17 -0.17)">
      <use xlink:href="#DejaVuSans-4e"/>
      <use xlink:href="#DejaVuSans-6f" x="74.804688"/>
      <use xlink:href="#DejaVuSans-20" x="135.986328"/>
      <use xlink:href="#DejaVuSans-54" x="167.773438"/>
      <use xlink:href="#DejaVuSans-49" x="228.857422"/>
      <use xlink:href="#DejaVuSans-52" x="258.349609"/>
     </g>
    </g>
   </g>
  </g>
 </g>
 <defs>
  <clipPath id="p6ad49ada93">
   <rect x="108" y="69.12" width="669.6" height="443.52"/>
  </clipPath>
 </defs>
</svg>
