<?xml version="1.0" encoding="utf-8" standalone="no"?>
<!DOCTYPE svg PUBLIC "-//W3C//DTD SVG 1.1//EN"
  "http://www.w3.org/Graphics/SVG/1.1/DTD/svg11.dtd">
<svg xmlns:xlink="http://www.w3.org/1999/xlink" width="864pt" height="576pt" viewBox="0 0 864 576" xmlns="http://www.w3.org/2000/svg" version="1.1">
 <metadata>
  <rdf:RDF xmlns:dc="http://purl.org/dc/elements/1.1/" xmlns:cc="http://creativecommons.org/ns#" xmlns:rdf="http://www.w3.org/1999/02/22-rdf-syntax-ns#">
   <cc:Work>
    <dc:type rdf:resource="http://purl.org/dc/dcmitype/StillImage"/>
    <dc:date>2024-08-09T13:06:19.323765</dc:date>
    <dc:format>image/svg+xml</dc:format>
    <dc:creator>
     <cc:Agent>
      <dc:title>Matplotlib v3.8.2, https://matplotlib.org/</dc:title>
     </cc:Agent>
    </dc:creator>
   </cc:Work>
  </rdf:RDF>
 </metadata>
 <defs>
  <style type="text/css">*{stroke-linejoin: round; stroke-linecap: butt}</style>
 </defs>
 <g id="figure_1">
  <g id="patch_1">
   <path d="M 0 576 
L 864 576 
L 864 0 
L 0 0 
z
" style="fill: #ffffff"/>
  </g>
  <g id="axes_1">
   <g id="patch_2">
    <path d="M 108 512.64 
L 777.6 512.64 
L 777.6 69.12 
L 108 69.12 
z
" style="fill: #ffffff"/>
   </g>
   <g id="PolyCollection_1">
    <path d="M 138.436364 248.227298 
L 138.436364 356.800259 
L 146.662408 372.897385 
L 154.888452 354.70902 
L 163.114496 326.488509 
L 171.340541 295.194898 
L 179.566585 298.113377 
L 187.792629 304.10458 
L 196.018673 330.953982 
L 204.244717 324.041179 
L 212.470762 329.598335 
L 220.696806 347.2613 
L 228.92285 334.648934 
L 237.148894 341.480816 
L 245.374939 345.841705 
L 253.600983 337.300662 
L 261.827027 370.235627 
L 270.053071 374.092717 
L 278.279115 369.181527 
L 286.50516 376.987499 
L 294.731204 385.276946 
L 302.957248 396.954186 
L 311.183292 403.874333 
L 319.409337 432.926251 
L 327.635381 459.106276 
L 335.861425 484.984357 
L 344.087469 492.48 
L 352.313514 443.210053 
L 360.539558 429.193765 
L 368.765602 402.365479 
L 376.991646 382.443919 
L 385.21769 400.906378 
L 393.443735 397.784467 
L 401.669779 394.532502 
L 409.895823 406.459378 
L 418.121867 392.083382 
L 426.347912 398.192212 
L 434.573956 391.750205 
L 442.8 400.524134 
L 451.026044 400.498413 
L 459.252088 389.258157 
L 467.478133 407.711229 
L 475.704177 411.610675 
L 483.930221 406.129166 
L 492.156265 420.098804 
L 500.38231 447.444885 
L 508.608354 444.38594 
L 516.834398 459.546437 
L 525.060442 476.898474 
L 533.286486 469.912303 
L 541.512531 489.479629 
L 541.512531 418.277561 
L 541.512531 418.277561 
L 533.286486 417.476142 
L 525.060442 419.19239 
L 516.834398 419.594894 
L 508.608354 402.166681 
L 500.38231 399.47389 
L 492.156265 386.643357 
L 483.930221 361.128097 
L 475.704177 344.498457 
L 467.478133 376.261263 
L 459.252088 357.300664 
L 451.026044 340.176337 
L 442.8 336.348394 
L 434.573956 369.793747 
L 426.347912 364.456501 
L 418.121867 360.133762 
L 409.895823 369.054761 
L 401.669779 376.18098 
L 393.443735 314.184208 
L 385.21769 304.004519 
L 376.991646 341.682716 
L 368.765602 352.903288 
L 360.539558 374.607508 
L 352.313514 381.254598 
L 344.087469 407.286775 
L 335.861425 399.114074 
L 327.635381 372.657737 
L 319.409337 319.737953 
L 311.183292 346.810027 
L 302.957248 326.946181 
L 294.731204 337.789934 
L 286.50516 333.793404 
L 278.279115 326.895391 
L 270.053071 299.212049 
L 261.827027 263.869696 
L 253.600983 258.758516 
L 245.374939 285.115095 
L 237.148894 274.116027 
L 228.92285 265.116094 
L 220.696806 270.904365 
L 212.470762 253.038317 
L 204.244717 248.542849 
L 196.018673 218.798251 
L 187.792629 206.621783 
L 179.566585 234.931074 
L 171.340541 232.196797 
L 163.114496 236.002181 
L 154.888452 255.345683 
L 146.662408 235.319271 
L 138.436364 248.227298 
z
" clip-path="url(#p2a63ecbf88)" style="fill: #1f77b4; fill-opacity: 0.3"/>
   </g>
   <g id="PolyCollection_2">
    <path d="M 138.436364 89.28 
L 138.436364 339.252297 
L 146.662408 336.647487 
L 154.888452 353.158466 
L 163.114496 377.609122 
L 171.340541 349.451774 
L 179.566585 328.004223 
L 187.792629 273.497598 
L 196.018673 255.140961 
L 204.244717 268.941364 
L 212.470762 283.90191 
L 220.696806 277.642778 
L 228.92285 266.80119 
L 237.148894 266.585857 
L 245.374939 329.90442 
L 253.600983 323.045125 
L 261.827027 298.698746 
L 270.053071 298.308552 
L 278.279115 301.516283 
L 286.50516 328.120692 
L 294.731204 340.828646 
L 302.957248 358.959079 
L 311.183292 352.241957 
L 319.409337 369.562632 
L 327.635381 396.017266 
L 335.861425 376.825232 
L 344.087469 383.395302 
L 352.313514 381.827487 
L 360.539558 414.812097 
L 368.765602 388.628979 
L 376.991646 363.784011 
L 385.21769 365.94597 
L 393.443735 357.213797 
L 401.669779 352.392376 
L 409.895823 368.506706 
L 418.121867 368.764945 
L 426.347912 388.587856 
L 434.573956 370.97773 
L 442.8 368.54812 
L 451.026044 388.651001 
L 459.252088 415.455975 
L 467.478133 422.634306 
L 475.704177 404.127083 
L 483.930221 416.758605 
L 492.156265 427.890673 
L 500.38231 425.328509 
L 508.608354 438.570297 
L 516.834398 449.235589 
L 525.060442 445.902548 
L 533.286486 465.00671 
L 541.512531 457.62563 
L 549.738575 457.62563 
L 557.964619 450.394487 
L 566.190663 440.453311 
L 574.416708 434.238102 
L 582.642752 437.555397 
L 590.868796 423.402814 
L 599.09484 416.537994 
L 607.320885 412.157102 
L 615.546929 405.319811 
L 623.772973 406.498043 
L 631.999017 405.678067 
L 640.225061 405.960011 
L 648.451106 417.106678 
L 656.67715 435.218699 
L 664.903194 445.492205 
L 673.129238 442.290348 
L 681.355283 441.379121 
L 689.581327 439.112622 
L 697.807371 447.401546 
L 706.033415 455.79154 
L 714.259459 460.861705 
L 722.485504 469.989779 
L 730.711548 468.035279 
L 738.937592 473.626666 
L 747.163636 473.488014 
L 747.163636 401.479433 
L 747.163636 401.479433 
L 738.937592 422.155147 
L 730.711548 430.854526 
L 722.485504 426.773749 
L 714.259459 419.852032 
L 706.033415 401.303908 
L 697.807371 389.316402 
L 689.581327 395.075358 
L 681.355283 404.626616 
L 673.129238 402.812776 
L 664.903194 387.183257 
L 656.67715 365.701269 
L 648.451106 356.649911 
L 640.225061 348.544927 
L 631.999017 353.34572 
L 623.772973 369.011269 
L 615.546929 365.615031 
L 607.320885 340.003967 
L 599.09484 336.346988 
L 590.868796 378.003971 
L 582.642752 414.130829 
L 574.416708 419.27079 
L 566.190663 403.483115 
L 557.964619 393.926833 
L 549.738575 401.636868 
L 541.512531 401.636868 
L 533.286486 398.321618 
L 525.060442 395.476716 
L 516.834398 381.265906 
L 508.608354 373.379907 
L 500.38231 385.202832 
L 492.156265 377.816844 
L 483.930221 352.757724 
L 475.704177 351.602285 
L 467.478133 354.967276 
L 459.252088 360.75736 
L 451.026044 361.886596 
L 442.8 346.031279 
L 434.573956 327.651601 
L 426.347912 324.85841 
L 418.121867 327.615884 
L 409.895823 312.361518 
L 401.669779 314.757459 
L 393.443735 316.686336 
L 385.21769 331.66445 
L 376.991646 334.714965 
L 368.765602 327.078289 
L 360.539558 298.75449 
L 352.313514 305.462602 
L 344.087469 346.645406 
L 335.861425 340.514902 
L 327.635381 362.473849 
L 319.409337 343.854144 
L 311.183292 309.848147 
L 302.957248 313.907431 
L 294.731204 316.902729 
L 286.50516 300.317259 
L 278.279115 279.42996 
L 270.053071 224.400934 
L 261.827027 251.009095 
L 253.600983 278.164395 
L 245.374939 258.391289 
L 237.148894 252.828506 
L 228.92285 229.279222 
L 220.696806 236.669677 
L 212.470762 244.973303 
L 204.244717 239.408686 
L 196.018673 212.983163 
L 187.792629 172.410669 
L 179.566585 141.008906 
L 171.340541 219.251824 
L 163.114496 291.26518 
L 154.888452 309.26981 
L 146.662408 166.267882 
L 138.436364 89.28 
z
" clip-path="url(#p2a63ecbf88)" style="fill: #ff7f0e; fill-opacity: 0.3"/>
   </g>
   <g id="matplotlib.axis_1">
    <g id="xtick_1">
     <g id="line2d_1">
      <defs>
       <path id="m7814a7dc1a" d="M 0 0 
L 0 3.5 
" style="stroke: #000000; stroke-width: 0.8"/>
      </defs>
      <g>
       <use xlink:href="#m7814a7dc1a" x="138.436364" y="512.64" style="stroke: #000000; stroke-width: 0.8"/>
      </g>
     </g>
     <g id="text_1">
      <!-- 0 -->
      <g transform="translate(133.028239 532.557344) scale(0.17 -0.17)">
       <defs>
        <path id="DejaVuSans-30" d="M 2034 4250 
Q 1547 4250 1301 3770 
Q 1056 3291 1056 2328 
Q 1056 1369 1301 889 
Q 1547 409 2034 409 
Q 2525 409 2770 889 
Q 3016 1369 3016 2328 
Q 3016 3291 2770 3770 
Q 2525 4250 2034 4250 
z
M 2034 4750 
Q 2819 4750 3233 4129 
Q 3647 3509 3647 2328 
Q 3647 1150 3233 529 
Q 2819 -91 2034 -91 
Q 1250 -91 836 529 
Q 422 1150 422 2328 
Q 422 3509 836 4129 
Q 1250 4750 2034 4750 
z
" transform="scale(0.015625)"/>
       </defs>
       <use xlink:href="#DejaVuSans-30"/>
      </g>
     </g>
    </g>
    <g id="xtick_2">
     <g id="line2d_2">
      <g>
       <use xlink:href="#m7814a7dc1a" x="220.696806" y="512.64" style="stroke: #000000; stroke-width: 0.8"/>
      </g>
     </g>
     <g id="text_2">
      <!-- 10 -->
      <g transform="translate(209.880556 532.557344) scale(0.17 -0.17)">
       <defs>
        <path id="DejaVuSans-31" d="M 794 531 
L 1825 531 
L 1825 4091 
L 703 3866 
L 703 4441 
L 1819 4666 
L 2450 4666 
L 2450 531 
L 3481 531 
L 3481 0 
L 794 0 
L 794 531 
z
" transform="scale(0.015625)"/>
       </defs>
       <use xlink:href="#DejaVuSans-31"/>
       <use xlink:href="#DejaVuSans-30" x="63.623047"/>
      </g>
     </g>
    </g>
    <g id="xtick_3">
     <g id="line2d_3">
      <g>
       <use xlink:href="#m7814a7dc1a" x="302.957248" y="512.64" style="stroke: #000000; stroke-width: 0.8"/>
      </g>
     </g>
     <g id="text_3">
      <!-- 20 -->
      <g transform="translate(292.140998 532.557344) scale(0.17 -0.17)">
       <defs>
        <path id="DejaVuSans-32" d="M 1228 531 
L 3431 531 
L 3431 0 
L 469 0 
L 469 531 
Q 828 903 1448 1529 
Q 2069 2156 2228 2338 
Q 2531 2678 2651 2914 
Q 2772 3150 2772 3378 
Q 2772 3750 2511 3984 
Q 2250 4219 1831 4219 
Q 1534 4219 1204 4116 
Q 875 4013 500 3803 
L 500 4441 
Q 881 4594 1212 4672 
Q 1544 4750 1819 4750 
Q 2544 4750 2975 4387 
Q 3406 4025 3406 3419 
Q 3406 3131 3298 2873 
Q 3191 2616 2906 2266 
Q 2828 2175 2409 1742 
Q 1991 1309 1228 531 
z
" transform="scale(0.015625)"/>
       </defs>
       <use xlink:href="#DejaVuSans-32"/>
       <use xlink:href="#DejaVuSans-30" x="63.623047"/>
      </g>
     </g>
    </g>
    <g id="xtick_4">
     <g id="line2d_4">
      <g>
       <use xlink:href="#m7814a7dc1a" x="385.21769" y="512.64" style="stroke: #000000; stroke-width: 0.8"/>
      </g>
     </g>
     <g id="text_4">
      <!-- 30 -->
      <g transform="translate(374.40144 532.557344) scale(0.17 -0.17)">
       <defs>
        <path id="DejaVuSans-33" d="M 2597 2516 
Q 3050 2419 3304 2112 
Q 3559 1806 3559 1356 
Q 3559 666 3084 287 
Q 2609 -91 1734 -91 
Q 1441 -91 1130 -33 
Q 819 25 488 141 
L 488 750 
Q 750 597 1062 519 
Q 1375 441 1716 441 
Q 2309 441 2620 675 
Q 2931 909 2931 1356 
Q 2931 1769 2642 2001 
Q 2353 2234 1838 2234 
L 1294 2234 
L 1294 2753 
L 1863 2753 
Q 2328 2753 2575 2939 
Q 2822 3125 2822 3475 
Q 2822 3834 2567 4026 
Q 2313 4219 1838 4219 
Q 1578 4219 1281 4162 
Q 984 4106 628 3988 
L 628 4550 
Q 988 4650 1302 4700 
Q 1616 4750 1894 4750 
Q 2613 4750 3031 4423 
Q 3450 4097 3450 3541 
Q 3450 3153 3228 2886 
Q 3006 2619 2597 2516 
z
" transform="scale(0.015625)"/>
       </defs>
       <use xlink:href="#DejaVuSans-33"/>
       <use xlink:href="#DejaVuSans-30" x="63.623047"/>
      </g>
     </g>
    </g>
    <g id="xtick_5">
     <g id="line2d_5">
      <g>
       <use xlink:href="#m7814a7dc1a" x="467.478133" y="512.64" style="stroke: #000000; stroke-width: 0.8"/>
      </g>
     </g>
     <g id="text_5">
      <!-- 40 -->
      <g transform="translate(456.661883 532.557344) scale(0.17 -0.17)">
       <defs>
        <path id="DejaVuSans-34" d="M 2419 4116 
L 825 1625 
L 2419 1625 
L 2419 4116 
z
M 2253 4666 
L 3047 4666 
L 3047 1625 
L 3713 1625 
L 3713 1100 
L 3047 1100 
L 3047 0 
L 2419 0 
L 2419 1100 
L 313 1100 
L 313 1709 
L 2253 4666 
z
" transform="scale(0.015625)"/>
       </defs>
       <use xlink:href="#DejaVuSans-34"/>
       <use xlink:href="#DejaVuSans-30" x="63.623047"/>
      </g>
     </g>
    </g>
    <g id="xtick_6">
     <g id="line2d_6">
      <g>
       <use xlink:href="#m7814a7dc1a" x="549.738575" y="512.64" style="stroke: #000000; stroke-width: 0.8"/>
      </g>
     </g>
     <g id="text_6">
      <!-- 50 -->
      <g transform="translate(538.922325 532.557344) scale(0.17 -0.17)">
       <defs>
        <path id="DejaVuSans-35" d="M 691 4666 
L 3169 4666 
L 3169 4134 
L 1269 4134 
L 1269 2991 
Q 1406 3038 1543 3061 
Q 1681 3084 1819 3084 
Q 2600 3084 3056 2656 
Q 3513 2228 3513 1497 
Q 3513 744 3044 326 
Q 2575 -91 1722 -91 
Q 1428 -91 1123 -41 
Q 819 9 494 109 
L 494 744 
Q 775 591 1075 516 
Q 1375 441 1709 441 
Q 2250 441 2565 725 
Q 2881 1009 2881 1497 
Q 2881 1984 2565 2268 
Q 2250 2553 1709 2553 
Q 1456 2553 1204 2497 
Q 953 2441 691 2322 
L 691 4666 
z
" transform="scale(0.015625)"/>
       </defs>
       <use xlink:href="#DejaVuSans-35"/>
       <use xlink:href="#DejaVuSans-30" x="63.623047"/>
      </g>
     </g>
    </g>
    <g id="xtick_7">
     <g id="line2d_7">
      <g>
       <use xlink:href="#m7814a7dc1a" x="631.999017" y="512.64" style="stroke: #000000; stroke-width: 0.8"/>
      </g>
     </g>
     <g id="text_7">
      <!-- 60 -->
      <g transform="translate(621.182767 532.557344) scale(0.17 -0.17)">
       <defs>
        <path id="DejaVuSans-36" d="M 2113 2584 
Q 1688 2584 1439 2293 
Q 1191 2003 1191 1497 
Q 1191 994 1439 701 
Q 1688 409 2113 409 
Q 2538 409 2786 701 
Q 3034 994 3034 1497 
Q 3034 2003 2786 2293 
Q 2538 2584 2113 2584 
z
M 3366 4563 
L 3366 3988 
Q 3128 4100 2886 4159 
Q 2644 4219 2406 4219 
Q 1781 4219 1451 3797 
Q 1122 3375 1075 2522 
Q 1259 2794 1537 2939 
Q 1816 3084 2150 3084 
Q 2853 3084 3261 2657 
Q 3669 2231 3669 1497 
Q 3669 778 3244 343 
Q 2819 -91 2113 -91 
Q 1303 -91 875 529 
Q 447 1150 447 2328 
Q 447 3434 972 4092 
Q 1497 4750 2381 4750 
Q 2619 4750 2861 4703 
Q 3103 4656 3366 4563 
z
" transform="scale(0.015625)"/>
       </defs>
       <use xlink:href="#DejaVuSans-36"/>
       <use xlink:href="#DejaVuSans-30" x="63.623047"/>
      </g>
     </g>
    </g>
    <g id="xtick_8">
     <g id="line2d_8">
      <g>
       <use xlink:href="#m7814a7dc1a" x="714.259459" y="512.64" style="stroke: #000000; stroke-width: 0.8"/>
      </g>
     </g>
     <g id="text_8">
      <!-- 70 -->
      <g transform="translate(703.443209 532.557344) scale(0.17 -0.17)">
       <defs>
        <path id="DejaVuSans-37" d="M 525 4666 
L 3525 4666 
L 3525 4397 
L 1831 0 
L 1172 0 
L 2766 4134 
L 525 4134 
L 525 4666 
z
" transform="scale(0.015625)"/>
       </defs>
       <use xlink:href="#DejaVuSans-37"/>
       <use xlink:href="#DejaVuSans-30" x="63.623047"/>
      </g>
     </g>
    </g>
    <g id="text_9">
     <!-- Larval Development (%) -->
     <g transform="translate(339.424062 553.010156) scale(0.17 -0.17)">
      <defs>
       <path id="DejaVuSans-4c" d="M 628 4666 
L 1259 4666 
L 1259 531 
L 3531 531 
L 3531 0 
L 628 0 
L 628 4666 
z
" transform="scale(0.015625)"/>
       <path id="DejaVuSans-61" d="M 2194 1759 
Q 1497 1759 1228 1600 
Q 959 1441 959 1056 
Q 959 750 1161 570 
Q 1363 391 1709 391 
Q 2188 391 2477 730 
Q 2766 1069 2766 1631 
L 2766 1759 
L 2194 1759 
z
M 3341 1997 
L 3341 0 
L 2766 0 
L 2766 531 
Q 2569 213 2275 61 
Q 1981 -91 1556 -91 
Q 1019 -91 701 211 
Q 384 513 384 1019 
Q 384 1609 779 1909 
Q 1175 2209 1959 2209 
L 2766 2209 
L 2766 2266 
Q 2766 2663 2505 2880 
Q 2244 3097 1772 3097 
Q 1472 3097 1187 3025 
Q 903 2953 641 2809 
L 641 3341 
Q 956 3463 1253 3523 
Q 1550 3584 1831 3584 
Q 2591 3584 2966 3190 
Q 3341 2797 3341 1997 
z
" transform="scale(0.015625)"/>
       <path id="DejaVuSans-72" d="M 2631 2963 
Q 2534 3019 2420 3045 
Q 2306 3072 2169 3072 
Q 1681 3072 1420 2755 
Q 1159 2438 1159 1844 
L 1159 0 
L 581 0 
L 581 3500 
L 1159 3500 
L 1159 2956 
Q 1341 3275 1631 3429 
Q 1922 3584 2338 3584 
Q 2397 3584 2469 3576 
Q 2541 3569 2628 3553 
L 2631 2963 
z
" transform="scale(0.015625)"/>
       <path id="DejaVuSans-76" d="M 191 3500 
L 800 3500 
L 1894 563 
L 2988 3500 
L 3597 3500 
L 2284 0 
L 1503 0 
L 191 3500 
z
" transform="scale(0.015625)"/>
       <path id="DejaVuSans-6c" d="M 603 4863 
L 1178 4863 
L 1178 0 
L 603 0 
L 603 4863 
z
" transform="scale(0.015625)"/>
       <path id="DejaVuSans-20" transform="scale(0.015625)"/>
       <path id="DejaVuSans-44" d="M 1259 4147 
L 1259 519 
L 2022 519 
Q 2988 519 3436 956 
Q 3884 1394 3884 2338 
Q 3884 3275 3436 3711 
Q 2988 4147 2022 4147 
L 1259 4147 
z
M 628 4666 
L 1925 4666 
Q 3281 4666 3915 4102 
Q 4550 3538 4550 2338 
Q 4550 1131 3912 565 
Q 3275 0 1925 0 
L 628 0 
L 628 4666 
z
" transform="scale(0.015625)"/>
       <path id="DejaVuSans-65" d="M 3597 1894 
L 3597 1613 
L 953 1613 
Q 991 1019 1311 708 
Q 1631 397 2203 397 
Q 2534 397 2845 478 
Q 3156 559 3463 722 
L 3463 178 
Q 3153 47 2828 -22 
Q 2503 -91 2169 -91 
Q 1331 -91 842 396 
Q 353 884 353 1716 
Q 353 2575 817 3079 
Q 1281 3584 2069 3584 
Q 2775 3584 3186 3129 
Q 3597 2675 3597 1894 
z
M 3022 2063 
Q 3016 2534 2758 2815 
Q 2500 3097 2075 3097 
Q 1594 3097 1305 2825 
Q 1016 2553 972 2059 
L 3022 2063 
z
" transform="scale(0.015625)"/>
       <path id="DejaVuSans-6f" d="M 1959 3097 
Q 1497 3097 1228 2736 
Q 959 2375 959 1747 
Q 959 1119 1226 758 
Q 1494 397 1959 397 
Q 2419 397 2687 759 
Q 2956 1122 2956 1747 
Q 2956 2369 2687 2733 
Q 2419 3097 1959 3097 
z
M 1959 3584 
Q 2709 3584 3137 3096 
Q 3566 2609 3566 1747 
Q 3566 888 3137 398 
Q 2709 -91 1959 -91 
Q 1206 -91 779 398 
Q 353 888 353 1747 
Q 353 2609 779 3096 
Q 1206 3584 1959 3584 
z
" transform="scale(0.015625)"/>
       <path id="DejaVuSans-70" d="M 1159 525 
L 1159 -1331 
L 581 -1331 
L 581 3500 
L 1159 3500 
L 1159 2969 
Q 1341 3281 1617 3432 
Q 1894 3584 2278 3584 
Q 2916 3584 3314 3078 
Q 3713 2572 3713 1747 
Q 3713 922 3314 415 
Q 2916 -91 2278 -91 
Q 1894 -91 1617 61 
Q 1341 213 1159 525 
z
M 3116 1747 
Q 3116 2381 2855 2742 
Q 2594 3103 2138 3103 
Q 1681 3103 1420 2742 
Q 1159 2381 1159 1747 
Q 1159 1113 1420 752 
Q 1681 391 2138 391 
Q 2594 391 2855 752 
Q 3116 1113 3116 1747 
z
" transform="scale(0.015625)"/>
       <path id="DejaVuSans-6d" d="M 3328 2828 
Q 3544 3216 3844 3400 
Q 4144 3584 4550 3584 
Q 5097 3584 5394 3201 
Q 5691 2819 5691 2113 
L 5691 0 
L 5113 0 
L 5113 2094 
Q 5113 2597 4934 2840 
Q 4756 3084 4391 3084 
Q 3944 3084 3684 2787 
Q 3425 2491 3425 1978 
L 3425 0 
L 2847 0 
L 2847 2094 
Q 2847 2600 2669 2842 
Q 2491 3084 2119 3084 
Q 1678 3084 1418 2786 
Q 1159 2488 1159 1978 
L 1159 0 
L 581 0 
L 581 3500 
L 1159 3500 
L 1159 2956 
Q 1356 3278 1631 3431 
Q 1906 3584 2284 3584 
Q 2666 3584 2933 3390 
Q 3200 3197 3328 2828 
z
" transform="scale(0.015625)"/>
       <path id="DejaVuSans-6e" d="M 3513 2113 
L 3513 0 
L 2938 0 
L 2938 2094 
Q 2938 2591 2744 2837 
Q 2550 3084 2163 3084 
Q 1697 3084 1428 2787 
Q 1159 2491 1159 1978 
L 1159 0 
L 581 0 
L 581 3500 
L 1159 3500 
L 1159 2956 
Q 1366 3272 1645 3428 
Q 1925 3584 2291 3584 
Q 2894 3584 3203 3211 
Q 3513 2838 3513 2113 
z
" transform="scale(0.015625)"/>
       <path id="DejaVuSans-74" d="M 1172 4494 
L 1172 3500 
L 2356 3500 
L 2356 3053 
L 1172 3053 
L 1172 1153 
Q 1172 725 1289 603 
Q 1406 481 1766 481 
L 2356 481 
L 2356 0 
L 1766 0 
Q 1100 0 847 248 
Q 594 497 594 1153 
L 594 3053 
L 172 3053 
L 172 3500 
L 594 3500 
L 594 4494 
L 1172 4494 
z
" transform="scale(0.015625)"/>
       <path id="DejaVuSans-28" d="M 1984 4856 
Q 1566 4138 1362 3434 
Q 1159 2731 1159 2009 
Q 1159 1288 1364 580 
Q 1569 -128 1984 -844 
L 1484 -844 
Q 1016 -109 783 600 
Q 550 1309 550 2009 
Q 550 2706 781 3412 
Q 1013 4119 1484 4856 
L 1984 4856 
z
" transform="scale(0.015625)"/>
       <path id="DejaVuSans-25" d="M 4653 2053 
Q 4381 2053 4226 1822 
Q 4072 1591 4072 1178 
Q 4072 772 4226 539 
Q 4381 306 4653 306 
Q 4919 306 5073 539 
Q 5228 772 5228 1178 
Q 5228 1588 5073 1820 
Q 4919 2053 4653 2053 
z
M 4653 2450 
Q 5147 2450 5437 2106 
Q 5728 1763 5728 1178 
Q 5728 594 5436 251 
Q 5144 -91 4653 -91 
Q 4153 -91 3862 251 
Q 3572 594 3572 1178 
Q 3572 1766 3864 2108 
Q 4156 2450 4653 2450 
z
M 1428 4353 
Q 1159 4353 1004 4120 
Q 850 3888 850 3481 
Q 850 3069 1003 2837 
Q 1156 2606 1428 2606 
Q 1700 2606 1854 2837 
Q 2009 3069 2009 3481 
Q 2009 3884 1853 4118 
Q 1697 4353 1428 4353 
z
M 4250 4750 
L 4750 4750 
L 1831 -91 
L 1331 -91 
L 4250 4750 
z
M 1428 4750 
Q 1922 4750 2215 4408 
Q 2509 4066 2509 3481 
Q 2509 2891 2217 2550 
Q 1925 2209 1428 2209 
Q 931 2209 642 2551 
Q 353 2894 353 3481 
Q 353 4063 643 4406 
Q 934 4750 1428 4750 
z
" transform="scale(0.015625)"/>
       <path id="DejaVuSans-29" d="M 513 4856 
L 1013 4856 
Q 1481 4119 1714 3412 
Q 1947 2706 1947 2009 
Q 1947 1309 1714 600 
Q 1481 -109 1013 -844 
L 513 -844 
Q 928 -128 1133 580 
Q 1338 1288 1338 2009 
Q 1338 2731 1133 3434 
Q 928 4138 513 4856 
z
" transform="scale(0.015625)"/>
      </defs>
      <use xlink:href="#DejaVuSans-4c"/>
      <use xlink:href="#DejaVuSans-61" x="55.712891"/>
      <use xlink:href="#DejaVuSans-72" x="116.992188"/>
      <use xlink:href="#DejaVuSans-76" x="158.105469"/>
      <use xlink:href="#DejaVuSans-61" x="217.285156"/>
      <use xlink:href="#DejaVuSans-6c" x="278.564453"/>
      <use xlink:href="#DejaVuSans-20" x="306.347656"/>
      <use xlink:href="#DejaVuSans-44" x="338.134766"/>
      <use xlink:href="#DejaVuSans-65" x="415.136719"/>
      <use xlink:href="#DejaVuSans-76" x="476.660156"/>
      <use xlink:href="#DejaVuSans-65" x="535.839844"/>
      <use xlink:href="#DejaVuSans-6c" x="597.363281"/>
      <use xlink:href="#DejaVuSans-6f" x="625.146484"/>
      <use xlink:href="#DejaVuSans-70" x="686.328125"/>
      <use xlink:href="#DejaVuSans-6d" x="749.804688"/>
      <use xlink:href="#DejaVuSans-65" x="847.216797"/>
      <use xlink:href="#DejaVuSans-6e" x="908.740234"/>
      <use xlink:href="#DejaVuSans-74" x="972.119141"/>
      <use xlink:href="#DejaVuSans-20" x="1011.328125"/>
      <use xlink:href="#DejaVuSans-28" x="1043.115234"/>
      <use xlink:href="#DejaVuSans-25" x="1082.128906"/>
      <use xlink:href="#DejaVuSans-29" x="1177.148438"/>
     </g>
    </g>
   </g>
   <g id="matplotlib.axis_2">
    <g id="ytick_1">
     <g id="line2d_9">
      <defs>
       <path id="me7da175ffa" d="M 0 0 
L -3.5 0 
" style="stroke: #000000; stroke-width: 0.8"/>
      </defs>
      <g>
       <use xlink:href="#me7da175ffa" x="108" y="440.410925" style="stroke: #000000; stroke-width: 0.8"/>
      </g>
     </g>
     <g id="text_10">
      <!-- 0.8 -->
      <g transform="translate(73.964687 446.869597) scale(0.17 -0.17)">
       <defs>
        <path id="DejaVuSans-2e" d="M 684 794 
L 1344 794 
L 1344 0 
L 684 0 
L 684 794 
z
" transform="scale(0.015625)"/>
        <path id="DejaVuSans-38" d="M 2034 2216 
Q 1584 2216 1326 1975 
Q 1069 1734 1069 1313 
Q 1069 891 1326 650 
Q 1584 409 2034 409 
Q 2484 409 2743 651 
Q 3003 894 3003 1313 
Q 3003 1734 2745 1975 
Q 2488 2216 2034 2216 
z
M 1403 2484 
Q 997 2584 770 2862 
Q 544 3141 544 3541 
Q 544 4100 942 4425 
Q 1341 4750 2034 4750 
Q 2731 4750 3128 4425 
Q 3525 4100 3525 3541 
Q 3525 3141 3298 2862 
Q 3072 2584 2669 2484 
Q 3125 2378 3379 2068 
Q 3634 1759 3634 1313 
Q 3634 634 3220 271 
Q 2806 -91 2034 -91 
Q 1263 -91 848 271 
Q 434 634 434 1313 
Q 434 1759 690 2068 
Q 947 2378 1403 2484 
z
M 1172 3481 
Q 1172 3119 1398 2916 
Q 1625 2713 2034 2713 
Q 2441 2713 2670 2916 
Q 2900 3119 2900 3481 
Q 2900 3844 2670 4047 
Q 2441 4250 2034 4250 
Q 1625 4250 1398 4047 
Q 1172 3844 1172 3481 
z
" transform="scale(0.015625)"/>
       </defs>
       <use xlink:href="#DejaVuSans-30"/>
       <use xlink:href="#DejaVuSans-2e" x="63.623047"/>
       <use xlink:href="#DejaVuSans-38" x="95.410156"/>
      </g>
     </g>
    </g>
    <g id="ytick_2">
     <g id="line2d_10">
      <g>
       <use xlink:href="#me7da175ffa" x="108" y="354.273171" style="stroke: #000000; stroke-width: 0.8"/>
      </g>
     </g>
     <g id="text_11">
      <!-- 0.9 -->
      <g transform="translate(73.964687 360.731842) scale(0.17 -0.17)">
       <defs>
        <path id="DejaVuSans-39" d="M 703 97 
L 703 672 
Q 941 559 1184 500 
Q 1428 441 1663 441 
Q 2288 441 2617 861 
Q 2947 1281 2994 2138 
Q 2813 1869 2534 1725 
Q 2256 1581 1919 1581 
Q 1219 1581 811 2004 
Q 403 2428 403 3163 
Q 403 3881 828 4315 
Q 1253 4750 1959 4750 
Q 2769 4750 3195 4129 
Q 3622 3509 3622 2328 
Q 3622 1225 3098 567 
Q 2575 -91 1691 -91 
Q 1453 -91 1209 -44 
Q 966 3 703 97 
z
M 1959 2075 
Q 2384 2075 2632 2365 
Q 2881 2656 2881 3163 
Q 2881 3666 2632 3958 
Q 2384 4250 1959 4250 
Q 1534 4250 1286 3958 
Q 1038 3666 1038 3163 
Q 1038 2656 1286 2365 
Q 1534 2075 1959 2075 
z
" transform="scale(0.015625)"/>
       </defs>
       <use xlink:href="#DejaVuSans-30"/>
       <use xlink:href="#DejaVuSans-2e" x="63.623047"/>
       <use xlink:href="#DejaVuSans-39" x="95.410156"/>
      </g>
     </g>
    </g>
    <g id="ytick_3">
     <g id="line2d_11">
      <g>
       <use xlink:href="#me7da175ffa" x="108" y="268.135416" style="stroke: #000000; stroke-width: 0.8"/>
      </g>
     </g>
     <g id="text_12">
      <!-- 1.0 -->
      <g transform="translate(73.964687 274.594088) scale(0.17 -0.17)">
       <use xlink:href="#DejaVuSans-31"/>
       <use xlink:href="#DejaVuSans-2e" x="63.623047"/>
       <use xlink:href="#DejaVuSans-30" x="95.410156"/>
      </g>
     </g>
    </g>
    <g id="ytick_4">
     <g id="line2d_12">
      <g>
       <use xlink:href="#me7da175ffa" x="108" y="181.997662" style="stroke: #000000; stroke-width: 0.8"/>
      </g>
     </g>
     <g id="text_13">
      <!-- 1.1 -->
      <g transform="translate(73.964687 188.456333) scale(0.17 -0.17)">
       <use xlink:href="#DejaVuSans-31"/>
       <use xlink:href="#DejaVuSans-2e" x="63.623047"/>
       <use xlink:href="#DejaVuSans-31" x="95.410156"/>
      </g>
     </g>
    </g>
    <g id="ytick_5">
     <g id="line2d_13">
      <g>
       <use xlink:href="#me7da175ffa" x="108" y="95.859907" style="stroke: #000000; stroke-width: 0.8"/>
      </g>
     </g>
     <g id="text_14">
      <!-- 1.2 -->
      <g transform="translate(73.964687 102.318579) scale(0.17 -0.17)">
       <use xlink:href="#DejaVuSans-31"/>
       <use xlink:href="#DejaVuSans-2e" x="63.623047"/>
       <use xlink:href="#DejaVuSans-32" x="95.410156"/>
      </g>
     </g>
    </g>
    <g id="text_15">
     <!-- Nuclear/Cytoplasmic ratio -->
     <g transform="translate(66.429219 400.965625) rotate(-90) scale(0.17 -0.17)">
      <defs>
       <path id="DejaVuSans-4e" d="M 628 4666 
L 1478 4666 
L 3547 763 
L 3547 4666 
L 4159 4666 
L 4159 0 
L 3309 0 
L 1241 3903 
L 1241 0 
L 628 0 
L 628 4666 
z
" transform="scale(0.015625)"/>
       <path id="DejaVuSans-75" d="M 544 1381 
L 544 3500 
L 1119 3500 
L 1119 1403 
Q 1119 906 1312 657 
Q 1506 409 1894 409 
Q 2359 409 2629 706 
Q 2900 1003 2900 1516 
L 2900 3500 
L 3475 3500 
L 3475 0 
L 2900 0 
L 2900 538 
Q 2691 219 2414 64 
Q 2138 -91 1772 -91 
Q 1169 -91 856 284 
Q 544 659 544 1381 
z
M 1991 3584 
L 1991 3584 
z
" transform="scale(0.015625)"/>
       <path id="DejaVuSans-63" d="M 3122 3366 
L 3122 2828 
Q 2878 2963 2633 3030 
Q 2388 3097 2138 3097 
Q 1578 3097 1268 2742 
Q 959 2388 959 1747 
Q 959 1106 1268 751 
Q 1578 397 2138 397 
Q 2388 397 2633 464 
Q 2878 531 3122 666 
L 3122 134 
Q 2881 22 2623 -34 
Q 2366 -91 2075 -91 
Q 1284 -91 818 406 
Q 353 903 353 1747 
Q 353 2603 823 3093 
Q 1294 3584 2113 3584 
Q 2378 3584 2631 3529 
Q 2884 3475 3122 3366 
z
" transform="scale(0.015625)"/>
       <path id="DejaVuSans-2f" d="M 1625 4666 
L 2156 4666 
L 531 -594 
L 0 -594 
L 1625 4666 
z
" transform="scale(0.015625)"/>
       <path id="DejaVuSans-43" d="M 4122 4306 
L 4122 3641 
Q 3803 3938 3442 4084 
Q 3081 4231 2675 4231 
Q 1875 4231 1450 3742 
Q 1025 3253 1025 2328 
Q 1025 1406 1450 917 
Q 1875 428 2675 428 
Q 3081 428 3442 575 
Q 3803 722 4122 1019 
L 4122 359 
Q 3791 134 3420 21 
Q 3050 -91 2638 -91 
Q 1578 -91 968 557 
Q 359 1206 359 2328 
Q 359 3453 968 4101 
Q 1578 4750 2638 4750 
Q 3056 4750 3426 4639 
Q 3797 4528 4122 4306 
z
" transform="scale(0.015625)"/>
       <path id="DejaVuSans-79" d="M 2059 -325 
Q 1816 -950 1584 -1140 
Q 1353 -1331 966 -1331 
L 506 -1331 
L 506 -850 
L 844 -850 
Q 1081 -850 1212 -737 
Q 1344 -625 1503 -206 
L 1606 56 
L 191 3500 
L 800 3500 
L 1894 763 
L 2988 3500 
L 3597 3500 
L 2059 -325 
z
" transform="scale(0.015625)"/>
       <path id="DejaVuSans-73" d="M 2834 3397 
L 2834 2853 
Q 2591 2978 2328 3040 
Q 2066 3103 1784 3103 
Q 1356 3103 1142 2972 
Q 928 2841 928 2578 
Q 928 2378 1081 2264 
Q 1234 2150 1697 2047 
L 1894 2003 
Q 2506 1872 2764 1633 
Q 3022 1394 3022 966 
Q 3022 478 2636 193 
Q 2250 -91 1575 -91 
Q 1294 -91 989 -36 
Q 684 19 347 128 
L 347 722 
Q 666 556 975 473 
Q 1284 391 1588 391 
Q 1994 391 2212 530 
Q 2431 669 2431 922 
Q 2431 1156 2273 1281 
Q 2116 1406 1581 1522 
L 1381 1569 
Q 847 1681 609 1914 
Q 372 2147 372 2553 
Q 372 3047 722 3315 
Q 1072 3584 1716 3584 
Q 2034 3584 2315 3537 
Q 2597 3491 2834 3397 
z
" transform="scale(0.015625)"/>
       <path id="DejaVuSans-69" d="M 603 3500 
L 1178 3500 
L 1178 0 
L 603 0 
L 603 3500 
z
M 603 4863 
L 1178 4863 
L 1178 4134 
L 603 4134 
L 603 4863 
z
" transform="scale(0.015625)"/>
      </defs>
      <use xlink:href="#DejaVuSans-4e"/>
      <use xlink:href="#DejaVuSans-75" x="74.804688"/>
      <use xlink:href="#DejaVuSans-63" x="138.183594"/>
      <use xlink:href="#DejaVuSans-6c" x="193.164062"/>
      <use xlink:href="#DejaVuSans-65" x="220.947266"/>
      <use xlink:href="#DejaVuSans-61" x="282.470703"/>
      <use xlink:href="#DejaVuSans-72" x="343.75"/>
      <use xlink:href="#DejaVuSans-2f" x="384.863281"/>
      <use xlink:href="#DejaVuSans-43" x="418.554688"/>
      <use xlink:href="#DejaVuSans-79" x="488.378906"/>
      <use xlink:href="#DejaVuSans-74" x="547.558594"/>
      <use xlink:href="#DejaVuSans-6f" x="586.767578"/>
      <use xlink:href="#DejaVuSans-70" x="647.949219"/>
      <use xlink:href="#DejaVuSans-6c" x="711.425781"/>
      <use xlink:href="#DejaVuSans-61" x="739.208984"/>
      <use xlink:href="#DejaVuSans-73" x="800.488281"/>
      <use xlink:href="#DejaVuSans-6d" x="852.587891"/>
      <use xlink:href="#DejaVuSans-69" x="950"/>
      <use xlink:href="#DejaVuSans-63" x="977.783203"/>
      <use xlink:href="#DejaVuSans-20" x="1032.763672"/>
      <use xlink:href="#DejaVuSans-72" x="1064.550781"/>
      <use xlink:href="#DejaVuSans-61" x="1105.664062"/>
      <use xlink:href="#DejaVuSans-74" x="1166.943359"/>
      <use xlink:href="#DejaVuSans-69" x="1206.152344"/>
      <use xlink:href="#DejaVuSans-6f" x="1233.935547"/>
     </g>
    </g>
   </g>
   <g id="line2d_14">
    <path d="M 138.436364 302.513778 
L 146.662408 304.108328 
L 154.888452 305.027352 
L 163.114496 281.245345 
L 171.340541 263.695848 
L 179.566585 266.522225 
L 187.792629 255.363182 
L 196.018673 274.876117 
L 204.244717 286.292014 
L 212.470762 291.318326 
L 220.696806 309.082833 
L 228.92285 299.882514 
L 237.148894 307.798422 
L 245.374939 315.4784 
L 253.600983 298.029589 
L 261.827027 317.052662 
L 270.053071 336.652383 
L 278.279115 348.038459 
L 286.50516 355.390451 
L 294.731204 361.53344 
L 302.957248 361.950183 
L 311.183292 375.34218 
L 319.409337 376.332102 
L 327.635381 415.882007 
L 335.861425 442.049216 
L 344.087469 449.883387 
L 352.313514 412.232325 
L 360.539558 401.900637 
L 368.765602 377.634384 
L 376.991646 362.063317 
L 385.21769 352.455448 
L 393.443735 355.984338 
L 401.669779 385.356741 
L 409.895823 387.75707 
L 418.121867 376.108572 
L 426.347912 381.324357 
L 434.573956 380.771976 
L 442.8 368.436264 
L 451.026044 370.337375 
L 459.252088 373.279411 
L 467.478133 391.986246 
L 475.704177 378.054566 
L 483.930221 383.628631 
L 492.156265 403.371081 
L 500.38231 423.459387 
L 508.608354 423.27631 
L 516.834398 439.570666 
L 525.060442 448.045432 
L 533.286486 443.694223 
L 541.512531 453.878595 
" clip-path="url(#p2a63ecbf88)" style="fill: none; stroke: #1f77b4; stroke-width: 1.5; stroke-linecap: square"/>
   </g>
   <g id="line2d_15">
    <path d="M 138.436364 214.266149 
L 146.662408 251.457685 
L 154.888452 331.214138 
L 163.114496 334.437151 
L 171.340541 284.351799 
L 179.566585 234.506564 
L 187.792629 222.954134 
L 196.018673 234.062062 
L 204.244717 254.175025 
L 212.470762 264.437606 
L 220.696806 257.156227 
L 228.92285 248.040206 
L 237.148894 259.707182 
L 245.374939 294.147854 
L 253.600983 300.60476 
L 261.827027 274.853921 
L 270.053071 261.354743 
L 278.279115 290.473122 
L 286.50516 314.218975 
L 294.731204 328.865687 
L 302.957248 336.433255 
L 311.183292 331.045052 
L 319.409337 356.708388 
L 327.635381 379.245558 
L 335.861425 358.670067 
L 344.087469 365.020354 
L 352.313514 343.645045 
L 360.539558 356.783293 
L 368.765602 357.853634 
L 376.991646 349.249488 
L 385.21769 348.80521 
L 393.443735 336.950066 
L 401.669779 333.574917 
L 409.895823 340.434112 
L 418.121867 348.190414 
L 426.347912 356.723133 
L 434.573956 349.314665 
L 442.8 357.289699 
L 451.026044 375.268799 
L 459.252088 388.106668 
L 467.478133 388.800791 
L 475.704177 377.864684 
L 483.930221 384.758165 
L 492.156265 402.853758 
L 500.38231 405.265671 
L 508.608354 405.975102 
L 516.834398 415.250748 
L 525.060442 420.689632 
L 533.286486 431.664164 
L 541.512531 429.631249 
L 549.738575 429.631249 
L 557.964619 422.16066 
L 566.190663 421.968213 
L 574.416708 426.754446 
L 582.642752 425.843113 
L 590.868796 400.703392 
L 599.09484 376.442491 
L 607.320885 376.080534 
L 615.546929 385.467421 
L 623.772973 387.754656 
L 631.999017 379.511893 
L 640.225061 377.252469 
L 648.451106 386.878295 
L 656.67715 400.459984 
L 664.903194 416.337731 
L 673.129238 422.551562 
L 681.355283 423.002868 
L 689.581327 417.09399 
L 697.807371 418.358974 
L 706.033415 428.547724 
L 714.259459 440.356868 
L 722.485504 448.381764 
L 730.711548 449.444903 
L 738.937592 447.890907 
L 747.163636 437.483723 
" clip-path="url(#p2a63ecbf88)" style="fill: none; stroke: #ff7f0e; stroke-width: 1.5; stroke-linecap: square"/>
   </g>
   <g id="patch_3">
    <path d="M 108 512.64 
L 108 69.12 
" style="fill: none; stroke: #000000; stroke-width: 0.8; stroke-linejoin: miter; stroke-linecap: square"/>
   </g>
   <g id="patch_4">
    <path d="M 777.6 512.64 
L 777.6 69.12 
" style="fill: none; stroke: #000000; stroke-width: 0.8; stroke-linejoin: miter; stroke-linecap: square"/>
   </g>
   <g id="patch_5">
    <path d="M 108 512.64 
L 777.6 512.64 
" style="fill: none; stroke: #000000; stroke-width: 0.8; stroke-linejoin: miter; stroke-linecap: square"/>
   </g>
   <g id="patch_6">
    <path d="M 108 69.12 
L 777.6 69.12 
" style="fill: none; stroke: #000000; stroke-width: 0.8; stroke-linejoin: miter; stroke-linecap: square"/>
   </g>
   <g id="legend_1">
    <g id="patch_7">
     <path d="M 655.566563 132.625625 
L 765.7 132.625625 
Q 769.1 132.625625 769.1 129.225625 
L 769.1 81.02 
Q 769.1 77.62 765.7 77.62 
L 655.566563 77.62 
Q 652.166563 77.62 652.166563 81.02 
L 652.166563 129.225625 
Q 652.166563 132.625625 655.566563 132.625625 
z
" style="fill: #ffffff; opacity: 0.8; stroke: #cccccc; stroke-linejoin: miter"/>
    </g>
    <g id="line2d_16">
     <path d="M 658.966563 91.387344 
L 675.966563 91.387344 
L 692.966563 91.387344 
" style="fill: none; stroke: #1f77b4; stroke-width: 1.5; stroke-linecap: square"/>
    </g>
    <g id="text_16">
     <!-- TIR -->
     <g transform="translate(706.566563 97.337344) scale(0.17 -0.17)">
      <defs>
       <path id="DejaVuSans-54" d="M -19 4666 
L 3928 4666 
L 3928 4134 
L 2272 4134 
L 2272 0 
L 1638 0 
L 1638 4134 
L -19 4134 
L -19 4666 
z
" transform="scale(0.015625)"/>
       <path id="DejaVuSans-49" d="M 628 4666 
L 1259 4666 
L 1259 0 
L 628 0 
L 628 4666 
z
" transform="scale(0.015625)"/>
       <path id="DejaVuSans-52" d="M 2841 2188 
Q 3044 2119 3236 1894 
Q 3428 1669 3622 1275 
L 4263 0 
L 3584 0 
L 2988 1197 
Q 2756 1666 2539 1819 
Q 2322 1972 1947 1972 
L 1259 1972 
L 1259 0 
L 628 0 
L 628 4666 
L 2053 4666 
Q 2853 4666 3247 4331 
Q 3641 3997 3641 3322 
Q 3641 2881 3436 2590 
Q 3231 2300 2841 2188 
z
M 1259 4147 
L 1259 2491 
L 2053 2491 
Q 2509 2491 2742 2702 
Q 2975 2913 2975 3322 
Q 2975 3731 2742 3939 
Q 2509 4147 2053 4147 
L 1259 4147 
z
" transform="scale(0.015625)"/>
      </defs>
      <use xlink:href="#DejaVuSans-54"/>
      <use xlink:href="#DejaVuSans-49" x="61.083984"/>
      <use xlink:href="#DejaVuSans-52" x="90.576172"/>
     </g>
    </g>
    <g id="line2d_17">
     <path d="M 658.966563 116.340156 
L 675.966563 116.340156 
L 692.966563 116.340156 
" style="fill: none; stroke: #ff7f0e; stroke-width: 1.5; stroke-linecap: square"/>
    </g>
    <g id="text_17">
     <!-- No TIR -->
     <g transform="translate(706.566563 122.290156) scale(0.17 -0.17)">
      <use xlink:href="#DejaVuSans-4e"/>
      <use xlink:href="#DejaVuSans-6f" x="74.804688"/>
      <use xlink:href="#DejaVuSans-20" x="135.986328"/>
      <use xlink:href="#DejaVuSans-54" x="167.773438"/>
      <use xlink:href="#DejaVuSans-49" x="228.857422"/>
      <use xlink:href="#DejaVuSans-52" x="258.349609"/>
     </g>
    </g>
   </g>
  </g>
 </g>
 <defs>
  <clipPath id="p2a63ecbf88">
   <rect x="108" y="69.12" width="669.6" height="443.52"/>
  </clipPath>
 </defs>
</svg>
