<?xml version="1.0" encoding="utf-8" standalone="no"?>
<!DOCTYPE svg PUBLIC "-//W3C//DTD SVG 1.1//EN"
  "http://www.w3.org/Graphics/SVG/1.1/DTD/svg11.dtd">
<svg xmlns:xlink="http://www.w3.org/1999/xlink" width="864pt" height="576pt" viewBox="0 0 864 576" xmlns="http://www.w3.org/2000/svg" version="1.1">
 <metadata>
  <rdf:RDF xmlns:dc="http://purl.org/dc/elements/1.1/" xmlns:cc="http://creativecommons.org/ns#" xmlns:rdf="http://www.w3.org/1999/02/22-rdf-syntax-ns#">
   <cc:Work>
    <dc:type rdf:resource="http://purl.org/dc/dcmitype/StillImage"/>
    <dc:date>2024-09-27T09:53:56.697622</dc:date>
    <dc:format>image/svg+xml</dc:format>
    <dc:creator>
     <cc:Agent>
      <dc:title>Matplotlib v3.8.2, https://matplotlib.org/</dc:title>
     </cc:Agent>
    </dc:creator>
   </cc:Work>
  </rdf:RDF>
 </metadata>
 <defs>
  <style type="text/css">*{stroke-linejoin: round; stroke-linecap: butt}</style>
 </defs>
 <g id="figure_1">
  <g id="patch_1">
   <path d="M 0 576 
L 864 576 
L 864 0 
L 0 0 
z
" style="fill: #ffffff"/>
  </g>
  <g id="axes_1">
   <g id="patch_2">
    <path d="M 108 512.64 
L 777.6 512.64 
L 777.6 69.12 
L 108 69.12 
z
" style="fill: #ffffff"/>
   </g>
   <g id="PolyCollection_1">
    <path d="M 138.436364 326.896294 
L 138.436364 453.289114 
L 146.662408 416.990265 
L 154.888452 406.85522 
L 163.114496 398.780244 
L 171.340541 377.273394 
L 179.566585 371.586719 
L 187.792629 399.128066 
L 196.018673 394.975445 
L 204.244717 372.072559 
L 212.470762 370.37932 
L 220.696806 392.956946 
L 228.92285 407.097313 
L 237.148894 431.950336 
L 245.374939 425.81543 
L 253.600983 417.196999 
L 261.827027 400.768251 
L 270.053071 409.835995 
L 278.279115 397.892538 
L 286.50516 418.891734 
L 294.731204 425.973859 
L 302.957248 469.890005 
L 311.183292 492.48 
L 319.409337 451.90506 
L 327.635381 447.969589 
L 335.861425 421.617617 
L 344.087469 421.889852 
L 352.313514 424.818528 
L 360.539558 409.563709 
L 368.765602 401.093526 
L 376.991646 420.104544 
L 385.21769 452.404261 
L 393.443735 431.256474 
L 401.669779 410.081684 
L 409.895823 415.891417 
L 418.121867 417.943366 
L 426.347912 419.167897 
L 434.573956 422.402483 
L 442.8 425.975284 
L 451.026044 422.868597 
L 459.252088 424.21273 
L 467.478133 436.173757 
L 475.704177 453.345302 
L 483.930221 444.446414 
L 492.156265 421.39663 
L 500.38231 423.273812 
L 508.608354 442.421918 
L 516.834398 467.434404 
L 525.060442 472.501127 
L 533.286486 480.970365 
L 541.512531 481.867303 
L 549.738575 481.867303 
L 557.964619 474.665747 
L 566.190663 466.943553 
L 574.416708 467.748405 
L 582.642752 456.051692 
L 590.868796 441.437303 
L 599.09484 451.9996 
L 607.320885 468.362664 
L 615.546929 452.980403 
L 623.772973 425.677905 
L 631.999017 426.23428 
L 640.225061 430.655177 
L 648.451106 436.339763 
L 656.67715 446.838593 
L 664.903194 457.479011 
L 673.129238 461.394695 
L 681.355283 459.184329 
L 689.581327 452.413061 
L 697.807371 452.565437 
L 706.033415 470.119641 
L 714.259459 487.271411 
L 722.485504 492.442308 
L 730.711548 491.833358 
L 738.937592 482.581939 
L 747.163636 472.256622 
L 747.163636 435.586521 
L 747.163636 435.586521 
L 738.937592 463.110057 
L 730.711548 470.149457 
L 722.485504 463.672054 
L 714.259459 448.183815 
L 706.033415 432.339324 
L 697.807371 421.731896 
L 689.581327 404.850527 
L 681.355283 393.918561 
L 673.129238 397.479819 
L 664.903194 398.215019 
L 656.67715 399.601426 
L 648.451106 398.566037 
L 640.225061 401.484262 
L 631.999017 404.019779 
L 623.772973 371.66334 
L 615.546929 304.116728 
L 607.320885 233.037162 
L 599.09484 244.061337 
L 590.868796 287.328213 
L 582.642752 333.363977 
L 574.416708 358.390944 
L 566.190663 380.062522 
L 557.964619 395.505957 
L 549.738575 411.184014 
L 541.512531 411.184014 
L 533.286486 437.065833 
L 525.060442 445.89531 
L 516.834398 433.086039 
L 508.608354 421.399912 
L 500.38231 409.509208 
L 492.156265 393.6092 
L 483.930221 329.158828 
L 475.704177 292.849024 
L 467.478133 317.375026 
L 459.252088 338.755095 
L 451.026044 372.917579 
L 442.8 399.143743 
L 434.573956 376.507616 
L 426.347912 353.124355 
L 418.121867 364.919483 
L 409.895823 377.790155 
L 401.669779 365.818442 
L 393.443735 275.023304 
L 385.21769 177.856527 
L 376.991646 249.664649 
L 368.765602 328.87186 
L 360.539558 353.192887 
L 352.313514 358.906117 
L 344.087469 378.549942 
L 335.861425 376.7846 
L 327.635381 386.30348 
L 319.409337 281.448229 
L 311.183292 89.28 
L 302.957248 198.449145 
L 294.731204 406.793128 
L 286.50516 370.981994 
L 278.279115 367.007334 
L 270.053071 351.453859 
L 261.827027 344.757442 
L 253.600983 360.566226 
L 245.374939 304.77029 
L 237.148894 202.992878 
L 228.92285 288.232548 
L 220.696806 360.099242 
L 212.470762 349.26183 
L 204.244717 337.096128 
L 196.018673 320.283926 
L 187.792629 295.221087 
L 179.566585 257.842373 
L 171.340541 271.050939 
L 163.114496 318.590893 
L 154.888452 357.375489 
L 146.662408 366.436723 
L 138.436364 326.896294 
z
" clip-path="url(#pb39a672ace)" style="fill: #1f77b4; fill-opacity: 0.3"/>
   </g>
   <g id="PolyCollection_2">
    <path d="M 138.436364 276.138767 
L 138.436364 414.916589 
L 146.662408 413.47047 
L 154.888452 422.636916 
L 163.114496 436.211256 
L 171.340541 420.579061 
L 179.566585 408.671964 
L 187.792629 378.411368 
L 196.018673 368.220262 
L 204.244717 375.881871 
L 212.470762 384.187559 
L 220.696806 380.712659 
L 228.92285 374.693705 
L 237.148894 374.574158 
L 245.374939 409.726902 
L 253.600983 405.918808 
L 261.827027 392.40236 
L 270.053071 392.185735 
L 278.279115 393.96658 
L 286.50516 408.736625 
L 294.731204 415.791735 
L 302.957248 425.857259 
L 311.183292 422.128095 
L 319.409337 431.744063 
L 327.635381 446.430956 
L 335.861425 435.776061 
L 344.087469 439.423585 
L 352.313514 438.553177 
L 360.539558 456.865336 
L 368.765602 442.32918 
L 376.991646 428.53593 
L 385.21769 429.73619 
L 393.443735 424.888326 
L 401.669779 422.211604 
L 409.895823 431.157841 
L 418.121867 431.301209 
L 426.347912 442.30635 
L 434.573956 432.529687 
L 442.8 431.180833 
L 451.026044 442.341407 
L 459.252088 457.222799 
L 467.478133 461.208013 
L 475.704177 450.933307 
L 483.930221 457.945984 
L 492.156265 464.126205 
L 500.38231 462.703762 
L 508.608354 470.055242 
L 516.834398 475.976323 
L 525.060442 474.125909 
L 533.286486 484.73202 
L 541.512531 480.634245 
L 549.738575 480.634245 
L 557.964619 476.619711 
L 566.190663 471.100641 
L 574.416708 467.650125 
L 582.642752 469.491798 
L 590.868796 461.634668 
L 599.09484 457.823507 
L 607.320885 455.391354 
L 615.546929 451.595477 
L 623.772973 452.249599 
L 631.999017 451.79437 
L 640.225061 451.950898 
L 648.451106 458.139225 
L 656.67715 468.194526 
L 664.903194 473.898097 
L 673.129238 472.120513 
L 681.355283 471.614625 
L 689.581327 470.356326 
L 697.807371 474.958112 
L 706.033415 479.616008 
L 714.259459 482.430826 
L 722.485504 487.498485 
L 730.711548 486.413399 
L 738.937592 489.517585 
L 747.163636 489.440609 
L 747.163636 449.463403 
L 747.163636 449.463403 
L 738.937592 460.941997 
L 730.711548 465.771656 
L 722.485504 463.50612 
L 714.259459 459.66337 
L 706.033415 449.365956 
L 697.807371 442.710819 
L 689.581327 445.908035 
L 681.355283 451.210634 
L 673.129238 450.203639 
L 664.903194 441.526555 
L 656.67715 429.600339 
L 648.451106 424.575271 
L 640.225061 420.075605 
L 631.999017 422.740875 
L 623.772973 431.437961 
L 615.546929 429.552462 
L 607.320885 415.333896 
L 599.09484 413.303641 
L 590.868796 436.430465 
L 582.642752 456.487114 
L 574.416708 459.340681 
L 566.190663 450.575793 
L 557.964619 445.270405 
L 549.738575 449.550807 
L 541.512531 449.550807 
L 533.286486 447.71027 
L 525.060442 446.130858 
L 516.834398 438.241403 
L 508.608354 433.86331 
L 500.38231 440.427077 
L 492.156265 436.326577 
L 483.930221 422.414435 
L 475.704177 421.772967 
L 467.478133 423.641118 
L 459.252088 426.855615 
L 451.026044 427.482536 
L 442.8 418.680095 
L 434.573956 408.476198 
L 426.347912 406.925494 
L 418.121867 408.456369 
L 409.895823 399.98756 
L 401.669779 401.317721 
L 393.443735 402.388581 
L 385.21769 410.704023 
L 376.991646 412.397586 
L 368.765602 408.157911 
L 360.539558 392.433308 
L 352.313514 396.157469 
L 344.087469 419.021042 
L 335.861425 415.617553 
L 327.635381 427.808564 
L 319.409337 417.47141 
L 311.183292 398.592204 
L 302.957248 400.845808 
L 294.731204 402.508717 
L 286.50516 393.300915 
L 278.279115 381.704854 
L 270.053071 351.154235 
L 261.827027 365.926363 
L 253.600983 381.002247 
L 245.374939 370.024756 
L 237.148894 366.93645 
L 228.92285 353.862528 
L 220.696806 357.965508 
L 212.470762 362.575455 
L 204.244717 359.486131 
L 196.018673 344.815399 
L 187.792629 322.290654 
L 179.566585 304.857249 
L 171.340541 348.295589 
L 163.114496 388.275447 
L 154.888452 398.271128 
L 146.662408 318.880345 
L 138.436364 276.138767 
z
" clip-path="url(#pb39a672ace)" style="fill: #ff7f0e; fill-opacity: 0.3"/>
   </g>
   <g id="matplotlib.axis_1">
    <g id="xtick_1">
     <g id="line2d_1">
      <defs>
       <path id="m183e9228e4" d="M 0 0 
L 0 3.5 
" style="stroke: #000000; stroke-width: 0.8"/>
      </defs>
      <g>
       <use xlink:href="#m183e9228e4" x="138.436364" y="512.64" style="stroke: #000000; stroke-width: 0.8"/>
      </g>
     </g>
     <g id="text_1">
      <!-- 0 -->
      <g transform="translate(133.028239 532.557344) scale(0.17 -0.17)">
       <defs>
        <path id="DejaVuSans-30" d="M 2034 4250 
Q 1547 4250 1301 3770 
Q 1056 3291 1056 2328 
Q 1056 1369 1301 889 
Q 1547 409 2034 409 
Q 2525 409 2770 889 
Q 3016 1369 3016 2328 
Q 3016 3291 2770 3770 
Q 2525 4250 2034 4250 
z
M 2034 4750 
Q 2819 4750 3233 4129 
Q 3647 3509 3647 2328 
Q 3647 1150 3233 529 
Q 2819 -91 2034 -91 
Q 1250 -91 836 529 
Q 422 1150 422 2328 
Q 422 3509 836 4129 
Q 1250 4750 2034 4750 
z
" transform="scale(0.015625)"/>
       </defs>
       <use xlink:href="#DejaVuSans-30"/>
      </g>
     </g>
    </g>
    <g id="xtick_2">
     <g id="line2d_2">
      <g>
       <use xlink:href="#m183e9228e4" x="220.696806" y="512.64" style="stroke: #000000; stroke-width: 0.8"/>
      </g>
     </g>
     <g id="text_2">
      <!-- 10 -->
      <g transform="translate(209.880556 532.557344) scale(0.17 -0.17)">
       <defs>
        <path id="DejaVuSans-31" d="M 794 531 
L 1825 531 
L 1825 4091 
L 703 3866 
L 703 4441 
L 1819 4666 
L 2450 4666 
L 2450 531 
L 3481 531 
L 3481 0 
L 794 0 
L 794 531 
z
" transform="scale(0.015625)"/>
       </defs>
       <use xlink:href="#DejaVuSans-31"/>
       <use xlink:href="#DejaVuSans-30" x="63.623047"/>
      </g>
     </g>
    </g>
    <g id="xtick_3">
     <g id="line2d_3">
      <g>
       <use xlink:href="#m183e9228e4" x="302.957248" y="512.64" style="stroke: #000000; stroke-width: 0.8"/>
      </g>
     </g>
     <g id="text_3">
      <!-- 20 -->
      <g transform="translate(292.140998 532.557344) scale(0.17 -0.17)">
       <defs>
        <path id="DejaVuSans-32" d="M 1228 531 
L 3431 531 
L 3431 0 
L 469 0 
L 469 531 
Q 828 903 1448 1529 
Q 2069 2156 2228 2338 
Q 2531 2678 2651 2914 
Q 2772 3150 2772 3378 
Q 2772 3750 2511 3984 
Q 2250 4219 1831 4219 
Q 1534 4219 1204 4116 
Q 875 4013 500 3803 
L 500 4441 
Q 881 4594 1212 4672 
Q 1544 4750 1819 4750 
Q 2544 4750 2975 4387 
Q 3406 4025 3406 3419 
Q 3406 3131 3298 2873 
Q 3191 2616 2906 2266 
Q 2828 2175 2409 1742 
Q 1991 1309 1228 531 
z
" transform="scale(0.015625)"/>
       </defs>
       <use xlink:href="#DejaVuSans-32"/>
       <use xlink:href="#DejaVuSans-30" x="63.623047"/>
      </g>
     </g>
    </g>
    <g id="xtick_4">
     <g id="line2d_4">
      <g>
       <use xlink:href="#m183e9228e4" x="385.21769" y="512.64" style="stroke: #000000; stroke-width: 0.8"/>
      </g>
     </g>
     <g id="text_4">
      <!-- 30 -->
      <g transform="translate(374.40144 532.557344) scale(0.17 -0.17)">
       <defs>
        <path id="DejaVuSans-33" d="M 2597 2516 
Q 3050 2419 3304 2112 
Q 3559 1806 3559 1356 
Q 3559 666 3084 287 
Q 2609 -91 1734 -91 
Q 1441 -91 1130 -33 
Q 819 25 488 141 
L 488 750 
Q 750 597 1062 519 
Q 1375 441 1716 441 
Q 2309 441 2620 675 
Q 2931 909 2931 1356 
Q 2931 1769 2642 2001 
Q 2353 2234 1838 2234 
L 1294 2234 
L 1294 2753 
L 1863 2753 
Q 2328 2753 2575 2939 
Q 2822 3125 2822 3475 
Q 2822 3834 2567 4026 
Q 2313 4219 1838 4219 
Q 1578 4219 1281 4162 
Q 984 4106 628 3988 
L 628 4550 
Q 988 4650 1302 4700 
Q 1616 4750 1894 4750 
Q 2613 4750 3031 4423 
Q 3450 4097 3450 3541 
Q 3450 3153 3228 2886 
Q 3006 2619 2597 2516 
z
" transform="scale(0.015625)"/>
       </defs>
       <use xlink:href="#DejaVuSans-33"/>
       <use xlink:href="#DejaVuSans-30" x="63.623047"/>
      </g>
     </g>
    </g>
    <g id="xtick_5">
     <g id="line2d_5">
      <g>
       <use xlink:href="#m183e9228e4" x="467.478133" y="512.64" style="stroke: #000000; stroke-width: 0.8"/>
      </g>
     </g>
     <g id="text_5">
      <!-- 40 -->
      <g transform="translate(456.661883 532.557344) scale(0.17 -0.17)">
       <defs>
        <path id="DejaVuSans-34" d="M 2419 4116 
L 825 1625 
L 2419 1625 
L 2419 4116 
z
M 2253 4666 
L 3047 4666 
L 3047 1625 
L 3713 1625 
L 3713 1100 
L 3047 1100 
L 3047 0 
L 2419 0 
L 2419 1100 
L 313 1100 
L 313 1709 
L 2253 4666 
z
" transform="scale(0.015625)"/>
       </defs>
       <use xlink:href="#DejaVuSans-34"/>
       <use xlink:href="#DejaVuSans-30" x="63.623047"/>
      </g>
     </g>
    </g>
    <g id="xtick_6">
     <g id="line2d_6">
      <g>
       <use xlink:href="#m183e9228e4" x="549.738575" y="512.64" style="stroke: #000000; stroke-width: 0.8"/>
      </g>
     </g>
     <g id="text_6">
      <!-- 50 -->
      <g transform="translate(538.922325 532.557344) scale(0.17 -0.17)">
       <defs>
        <path id="DejaVuSans-35" d="M 691 4666 
L 3169 4666 
L 3169 4134 
L 1269 4134 
L 1269 2991 
Q 1406 3038 1543 3061 
Q 1681 3084 1819 3084 
Q 2600 3084 3056 2656 
Q 3513 2228 3513 1497 
Q 3513 744 3044 326 
Q 2575 -91 1722 -91 
Q 1428 -91 1123 -41 
Q 819 9 494 109 
L 494 744 
Q 775 591 1075 516 
Q 1375 441 1709 441 
Q 2250 441 2565 725 
Q 2881 1009 2881 1497 
Q 2881 1984 2565 2268 
Q 2250 2553 1709 2553 
Q 1456 2553 1204 2497 
Q 953 2441 691 2322 
L 691 4666 
z
" transform="scale(0.015625)"/>
       </defs>
       <use xlink:href="#DejaVuSans-35"/>
       <use xlink:href="#DejaVuSans-30" x="63.623047"/>
      </g>
     </g>
    </g>
    <g id="xtick_7">
     <g id="line2d_7">
      <g>
       <use xlink:href="#m183e9228e4" x="631.999017" y="512.64" style="stroke: #000000; stroke-width: 0.8"/>
      </g>
     </g>
     <g id="text_7">
      <!-- 60 -->
      <g transform="translate(621.182767 532.557344) scale(0.17 -0.17)">
       <defs>
        <path id="DejaVuSans-36" d="M 2113 2584 
Q 1688 2584 1439 2293 
Q 1191 2003 1191 1497 
Q 1191 994 1439 701 
Q 1688 409 2113 409 
Q 2538 409 2786 701 
Q 3034 994 3034 1497 
Q 3034 2003 2786 2293 
Q 2538 2584 2113 2584 
z
M 3366 4563 
L 3366 3988 
Q 3128 4100 2886 4159 
Q 2644 4219 2406 4219 
Q 1781 4219 1451 3797 
Q 1122 3375 1075 2522 
Q 1259 2794 1537 2939 
Q 1816 3084 2150 3084 
Q 2853 3084 3261 2657 
Q 3669 2231 3669 1497 
Q 3669 778 3244 343 
Q 2819 -91 2113 -91 
Q 1303 -91 875 529 
Q 447 1150 447 2328 
Q 447 3434 972 4092 
Q 1497 4750 2381 4750 
Q 2619 4750 2861 4703 
Q 3103 4656 3366 4563 
z
" transform="scale(0.015625)"/>
       </defs>
       <use xlink:href="#DejaVuSans-36"/>
       <use xlink:href="#DejaVuSans-30" x="63.623047"/>
      </g>
     </g>
    </g>
    <g id="xtick_8">
     <g id="line2d_8">
      <g>
       <use xlink:href="#m183e9228e4" x="714.259459" y="512.64" style="stroke: #000000; stroke-width: 0.8"/>
      </g>
     </g>
     <g id="text_8">
      <!-- 70 -->
      <g transform="translate(703.443209 532.557344) scale(0.17 -0.17)">
       <defs>
        <path id="DejaVuSans-37" d="M 525 4666 
L 3525 4666 
L 3525 4397 
L 1831 0 
L 1172 0 
L 2766 4134 
L 525 4134 
L 525 4666 
z
" transform="scale(0.015625)"/>
       </defs>
       <use xlink:href="#DejaVuSans-37"/>
       <use xlink:href="#DejaVuSans-30" x="63.623047"/>
      </g>
     </g>
    </g>
    <g id="text_9">
     <!-- Larval Development (%) -->
     <g transform="translate(339.424062 553.010156) scale(0.17 -0.17)">
      <defs>
       <path id="DejaVuSans-4c" d="M 628 4666 
L 1259 4666 
L 1259 531 
L 3531 531 
L 3531 0 
L 628 0 
L 628 4666 
z
" transform="scale(0.015625)"/>
       <path id="DejaVuSans-61" d="M 2194 1759 
Q 1497 1759 1228 1600 
Q 959 1441 959 1056 
Q 959 750 1161 570 
Q 1363 391 1709 391 
Q 2188 391 2477 730 
Q 2766 1069 2766 1631 
L 2766 1759 
L 2194 1759 
z
M 3341 1997 
L 3341 0 
L 2766 0 
L 2766 531 
Q 2569 213 2275 61 
Q 1981 -91 1556 -91 
Q 1019 -91 701 211 
Q 384 513 384 1019 
Q 384 1609 779 1909 
Q 1175 2209 1959 2209 
L 2766 2209 
L 2766 2266 
Q 2766 2663 2505 2880 
Q 2244 3097 1772 3097 
Q 1472 3097 1187 3025 
Q 903 2953 641 2809 
L 641 3341 
Q 956 3463 1253 3523 
Q 1550 3584 1831 3584 
Q 2591 3584 2966 3190 
Q 3341 2797 3341 1997 
z
" transform="scale(0.015625)"/>
       <path id="DejaVuSans-72" d="M 2631 2963 
Q 2534 3019 2420 3045 
Q 2306 3072 2169 3072 
Q 1681 3072 1420 2755 
Q 1159 2438 1159 1844 
L 1159 0 
L 581 0 
L 581 3500 
L 1159 3500 
L 1159 2956 
Q 1341 3275 1631 3429 
Q 1922 3584 2338 3584 
Q 2397 3584 2469 3576 
Q 2541 3569 2628 3553 
L 2631 2963 
z
" transform="scale(0.015625)"/>
       <path id="DejaVuSans-76" d="M 191 3500 
L 800 3500 
L 1894 563 
L 2988 3500 
L 3597 3500 
L 2284 0 
L 1503 0 
L 191 3500 
z
" transform="scale(0.015625)"/>
       <path id="DejaVuSans-6c" d="M 603 4863 
L 1178 4863 
L 1178 0 
L 603 0 
L 603 4863 
z
" transform="scale(0.015625)"/>
       <path id="DejaVuSans-20" transform="scale(0.015625)"/>
       <path id="DejaVuSans-44" d="M 1259 4147 
L 1259 519 
L 2022 519 
Q 2988 519 3436 956 
Q 3884 1394 3884 2338 
Q 3884 3275 3436 3711 
Q 2988 4147 2022 4147 
L 1259 4147 
z
M 628 4666 
L 1925 4666 
Q 3281 4666 3915 4102 
Q 4550 3538 4550 2338 
Q 4550 1131 3912 565 
Q 3275 0 1925 0 
L 628 0 
L 628 4666 
z
" transform="scale(0.015625)"/>
       <path id="DejaVuSans-65" d="M 3597 1894 
L 3597 1613 
L 953 1613 
Q 991 1019 1311 708 
Q 1631 397 2203 397 
Q 2534 397 2845 478 
Q 3156 559 3463 722 
L 3463 178 
Q 3153 47 2828 -22 
Q 2503 -91 2169 -91 
Q 1331 -91 842 396 
Q 353 884 353 1716 
Q 353 2575 817 3079 
Q 1281 3584 2069 3584 
Q 2775 3584 3186 3129 
Q 3597 2675 3597 1894 
z
M 3022 2063 
Q 3016 2534 2758 2815 
Q 2500 3097 2075 3097 
Q 1594 3097 1305 2825 
Q 1016 2553 972 2059 
L 3022 2063 
z
" transform="scale(0.015625)"/>
       <path id="DejaVuSans-6f" d="M 1959 3097 
Q 1497 3097 1228 2736 
Q 959 2375 959 1747 
Q 959 1119 1226 758 
Q 1494 397 1959 397 
Q 2419 397 2687 759 
Q 2956 1122 2956 1747 
Q 2956 2369 2687 2733 
Q 2419 3097 1959 3097 
z
M 1959 3584 
Q 2709 3584 3137 3096 
Q 3566 2609 3566 1747 
Q 3566 888 3137 398 
Q 2709 -91 1959 -91 
Q 1206 -91 779 398 
Q 353 888 353 1747 
Q 353 2609 779 3096 
Q 1206 3584 1959 3584 
z
" transform="scale(0.015625)"/>
       <path id="DejaVuSans-70" d="M 1159 525 
L 1159 -1331 
L 581 -1331 
L 581 3500 
L 1159 3500 
L 1159 2969 
Q 1341 3281 1617 3432 
Q 1894 3584 2278 3584 
Q 2916 3584 3314 3078 
Q 3713 2572 3713 1747 
Q 3713 922 3314 415 
Q 2916 -91 2278 -91 
Q 1894 -91 1617 61 
Q 1341 213 1159 525 
z
M 3116 1747 
Q 3116 2381 2855 2742 
Q 2594 3103 2138 3103 
Q 1681 3103 1420 2742 
Q 1159 2381 1159 1747 
Q 1159 1113 1420 752 
Q 1681 391 2138 391 
Q 2594 391 2855 752 
Q 3116 1113 3116 1747 
z
" transform="scale(0.015625)"/>
       <path id="DejaVuSans-6d" d="M 3328 2828 
Q 3544 3216 3844 3400 
Q 4144 3584 4550 3584 
Q 5097 3584 5394 3201 
Q 5691 2819 5691 2113 
L 5691 0 
L 5113 0 
L 5113 2094 
Q 5113 2597 4934 2840 
Q 4756 3084 4391 3084 
Q 3944 3084 3684 2787 
Q 3425 2491 3425 1978 
L 3425 0 
L 2847 0 
L 2847 2094 
Q 2847 2600 2669 2842 
Q 2491 3084 2119 3084 
Q 1678 3084 1418 2786 
Q 1159 2488 1159 1978 
L 1159 0 
L 581 0 
L 581 3500 
L 1159 3500 
L 1159 2956 
Q 1356 3278 1631 3431 
Q 1906 3584 2284 3584 
Q 2666 3584 2933 3390 
Q 3200 3197 3328 2828 
z
" transform="scale(0.015625)"/>
       <path id="DejaVuSans-6e" d="M 3513 2113 
L 3513 0 
L 2938 0 
L 2938 2094 
Q 2938 2591 2744 2837 
Q 2550 3084 2163 3084 
Q 1697 3084 1428 2787 
Q 1159 2491 1159 1978 
L 1159 0 
L 581 0 
L 581 3500 
L 1159 3500 
L 1159 2956 
Q 1366 3272 1645 3428 
Q 1925 3584 2291 3584 
Q 2894 3584 3203 3211 
Q 3513 2838 3513 2113 
z
" transform="scale(0.015625)"/>
       <path id="DejaVuSans-74" d="M 1172 4494 
L 1172 3500 
L 2356 3500 
L 2356 3053 
L 1172 3053 
L 1172 1153 
Q 1172 725 1289 603 
Q 1406 481 1766 481 
L 2356 481 
L 2356 0 
L 1766 0 
Q 1100 0 847 248 
Q 594 497 594 1153 
L 594 3053 
L 172 3053 
L 172 3500 
L 594 3500 
L 594 4494 
L 1172 4494 
z
" transform="scale(0.015625)"/>
       <path id="DejaVuSans-28" d="M 1984 4856 
Q 1566 4138 1362 3434 
Q 1159 2731 1159 2009 
Q 1159 1288 1364 580 
Q 1569 -128 1984 -844 
L 1484 -844 
Q 1016 -109 783 600 
Q 550 1309 550 2009 
Q 550 2706 781 3412 
Q 1013 4119 1484 4856 
L 1984 4856 
z
" transform="scale(0.015625)"/>
       <path id="DejaVuSans-25" d="M 4653 2053 
Q 4381 2053 4226 1822 
Q 4072 1591 4072 1178 
Q 4072 772 4226 539 
Q 4381 306 4653 306 
Q 4919 306 5073 539 
Q 5228 772 5228 1178 
Q 5228 1588 5073 1820 
Q 4919 2053 4653 2053 
z
M 4653 2450 
Q 5147 2450 5437 2106 
Q 5728 1763 5728 1178 
Q 5728 594 5436 251 
Q 5144 -91 4653 -91 
Q 4153 -91 3862 251 
Q 3572 594 3572 1178 
Q 3572 1766 3864 2108 
Q 4156 2450 4653 2450 
z
M 1428 4353 
Q 1159 4353 1004 4120 
Q 850 3888 850 3481 
Q 850 3069 1003 2837 
Q 1156 2606 1428 2606 
Q 1700 2606 1854 2837 
Q 2009 3069 2009 3481 
Q 2009 3884 1853 4118 
Q 1697 4353 1428 4353 
z
M 4250 4750 
L 4750 4750 
L 1831 -91 
L 1331 -91 
L 4250 4750 
z
M 1428 4750 
Q 1922 4750 2215 4408 
Q 2509 4066 2509 3481 
Q 2509 2891 2217 2550 
Q 1925 2209 1428 2209 
Q 931 2209 642 2551 
Q 353 2894 353 3481 
Q 353 4063 643 4406 
Q 934 4750 1428 4750 
z
" transform="scale(0.015625)"/>
       <path id="DejaVuSans-29" d="M 513 4856 
L 1013 4856 
Q 1481 4119 1714 3412 
Q 1947 2706 1947 2009 
Q 1947 1309 1714 600 
Q 1481 -109 1013 -844 
L 513 -844 
Q 928 -128 1133 580 
Q 1338 1288 1338 2009 
Q 1338 2731 1133 3434 
Q 928 4138 513 4856 
z
" transform="scale(0.015625)"/>
      </defs>
      <use xlink:href="#DejaVuSans-4c"/>
      <use xlink:href="#DejaVuSans-61" x="55.712891"/>
      <use xlink:href="#DejaVuSans-72" x="116.992188"/>
      <use xlink:href="#DejaVuSans-76" x="158.105469"/>
      <use xlink:href="#DejaVuSans-61" x="217.285156"/>
      <use xlink:href="#DejaVuSans-6c" x="278.564453"/>
      <use xlink:href="#DejaVuSans-20" x="306.347656"/>
      <use xlink:href="#DejaVuSans-44" x="338.134766"/>
      <use xlink:href="#DejaVuSans-65" x="415.136719"/>
      <use xlink:href="#DejaVuSans-76" x="476.660156"/>
      <use xlink:href="#DejaVuSans-65" x="535.839844"/>
      <use xlink:href="#DejaVuSans-6c" x="597.363281"/>
      <use xlink:href="#DejaVuSans-6f" x="625.146484"/>
      <use xlink:href="#DejaVuSans-70" x="686.328125"/>
      <use xlink:href="#DejaVuSans-6d" x="749.804688"/>
      <use xlink:href="#DejaVuSans-65" x="847.216797"/>
      <use xlink:href="#DejaVuSans-6e" x="908.740234"/>
      <use xlink:href="#DejaVuSans-74" x="972.119141"/>
      <use xlink:href="#DejaVuSans-20" x="1011.328125"/>
      <use xlink:href="#DejaVuSans-28" x="1043.115234"/>
      <use xlink:href="#DejaVuSans-25" x="1082.128906"/>
      <use xlink:href="#DejaVuSans-29" x="1177.148438"/>
     </g>
    </g>
   </g>
   <g id="matplotlib.axis_2">
    <g id="ytick_1">
     <g id="line2d_9">
      <defs>
       <path id="mac1687fbb1" d="M 0 0 
L -3.5 0 
" style="stroke: #000000; stroke-width: 0.8"/>
      </defs>
      <g>
       <use xlink:href="#mac1687fbb1" x="108" y="471.077109" style="stroke: #000000; stroke-width: 0.8"/>
      </g>
     </g>
     <g id="text_10">
      <!-- 0.8 -->
      <g transform="translate(73.964687 477.535781) scale(0.17 -0.17)">
       <defs>
        <path id="DejaVuSans-2e" d="M 684 794 
L 1344 794 
L 1344 0 
L 684 0 
L 684 794 
z
" transform="scale(0.015625)"/>
        <path id="DejaVuSans-38" d="M 2034 2216 
Q 1584 2216 1326 1975 
Q 1069 1734 1069 1313 
Q 1069 891 1326 650 
Q 1584 409 2034 409 
Q 2484 409 2743 651 
Q 3003 894 3003 1313 
Q 3003 1734 2745 1975 
Q 2488 2216 2034 2216 
z
M 1403 2484 
Q 997 2584 770 2862 
Q 544 3141 544 3541 
Q 544 4100 942 4425 
Q 1341 4750 2034 4750 
Q 2731 4750 3128 4425 
Q 3525 4100 3525 3541 
Q 3525 3141 3298 2862 
Q 3072 2584 2669 2484 
Q 3125 2378 3379 2068 
Q 3634 1759 3634 1313 
Q 3634 634 3220 271 
Q 2806 -91 2034 -91 
Q 1263 -91 848 271 
Q 434 634 434 1313 
Q 434 1759 690 2068 
Q 947 2378 1403 2484 
z
M 1172 3481 
Q 1172 3119 1398 2916 
Q 1625 2713 2034 2713 
Q 2441 2713 2670 2916 
Q 2900 3119 2900 3481 
Q 2900 3844 2670 4047 
Q 2441 4250 2034 4250 
Q 1625 4250 1398 4047 
Q 1172 3844 1172 3481 
z
" transform="scale(0.015625)"/>
       </defs>
       <use xlink:href="#DejaVuSans-30"/>
       <use xlink:href="#DejaVuSans-2e" x="63.623047"/>
       <use xlink:href="#DejaVuSans-38" x="95.410156"/>
      </g>
     </g>
    </g>
    <g id="ytick_2">
     <g id="line2d_10">
      <g>
       <use xlink:href="#mac1687fbb1" x="108" y="375.434431" style="stroke: #000000; stroke-width: 0.8"/>
      </g>
     </g>
     <g id="text_11">
      <!-- 1.0 -->
      <g transform="translate(73.964687 381.893102) scale(0.17 -0.17)">
       <use xlink:href="#DejaVuSans-31"/>
       <use xlink:href="#DejaVuSans-2e" x="63.623047"/>
       <use xlink:href="#DejaVuSans-30" x="95.410156"/>
      </g>
     </g>
    </g>
    <g id="ytick_3">
     <g id="line2d_11">
      <g>
       <use xlink:href="#mac1687fbb1" x="108" y="279.791752" style="stroke: #000000; stroke-width: 0.8"/>
      </g>
     </g>
     <g id="text_12">
      <!-- 1.2 -->
      <g transform="translate(73.964687 286.250424) scale(0.17 -0.17)">
       <use xlink:href="#DejaVuSans-31"/>
       <use xlink:href="#DejaVuSans-2e" x="63.623047"/>
       <use xlink:href="#DejaVuSans-32" x="95.410156"/>
      </g>
     </g>
    </g>
    <g id="ytick_4">
     <g id="line2d_12">
      <g>
       <use xlink:href="#mac1687fbb1" x="108" y="184.149074" style="stroke: #000000; stroke-width: 0.8"/>
      </g>
     </g>
     <g id="text_13">
      <!-- 1.4 -->
      <g transform="translate(73.964687 190.607745) scale(0.17 -0.17)">
       <use xlink:href="#DejaVuSans-31"/>
       <use xlink:href="#DejaVuSans-2e" x="63.623047"/>
       <use xlink:href="#DejaVuSans-34" x="95.410156"/>
      </g>
     </g>
    </g>
    <g id="ytick_5">
     <g id="line2d_13">
      <g>
       <use xlink:href="#mac1687fbb1" x="108" y="88.506395" style="stroke: #000000; stroke-width: 0.8"/>
      </g>
     </g>
     <g id="text_14">
      <!-- 1.6 -->
      <g transform="translate(73.964687 94.965067) scale(0.17 -0.17)">
       <use xlink:href="#DejaVuSans-31"/>
       <use xlink:href="#DejaVuSans-2e" x="63.623047"/>
       <use xlink:href="#DejaVuSans-36" x="95.410156"/>
      </g>
     </g>
    </g>
    <g id="text_15">
     <!-- Nuclear/Cytoplasmic ratio -->
     <g transform="translate(66.429219 400.965625) rotate(-90) scale(0.17 -0.17)">
      <defs>
       <path id="DejaVuSans-4e" d="M 628 4666 
L 1478 4666 
L 3547 763 
L 3547 4666 
L 4159 4666 
L 4159 0 
L 3309 0 
L 1241 3903 
L 1241 0 
L 628 0 
L 628 4666 
z
" transform="scale(0.015625)"/>
       <path id="DejaVuSans-75" d="M 544 1381 
L 544 3500 
L 1119 3500 
L 1119 1403 
Q 1119 906 1312 657 
Q 1506 409 1894 409 
Q 2359 409 2629 706 
Q 2900 1003 2900 1516 
L 2900 3500 
L 3475 3500 
L 3475 0 
L 2900 0 
L 2900 538 
Q 2691 219 2414 64 
Q 2138 -91 1772 -91 
Q 1169 -91 856 284 
Q 544 659 544 1381 
z
M 1991 3584 
L 1991 3584 
z
" transform="scale(0.015625)"/>
       <path id="DejaVuSans-63" d="M 3122 3366 
L 3122 2828 
Q 2878 2963 2633 3030 
Q 2388 3097 2138 3097 
Q 1578 3097 1268 2742 
Q 959 2388 959 1747 
Q 959 1106 1268 751 
Q 1578 397 2138 397 
Q 2388 397 2633 464 
Q 2878 531 3122 666 
L 3122 134 
Q 2881 22 2623 -34 
Q 2366 -91 2075 -91 
Q 1284 -91 818 406 
Q 353 903 353 1747 
Q 353 2603 823 3093 
Q 1294 3584 2113 3584 
Q 2378 3584 2631 3529 
Q 2884 3475 3122 3366 
z
" transform="scale(0.015625)"/>
       <path id="DejaVuSans-2f" d="M 1625 4666 
L 2156 4666 
L 531 -594 
L 0 -594 
L 1625 4666 
z
" transform="scale(0.015625)"/>
       <path id="DejaVuSans-43" d="M 4122 4306 
L 4122 3641 
Q 3803 3938 3442 4084 
Q 3081 4231 2675 4231 
Q 1875 4231 1450 3742 
Q 1025 3253 1025 2328 
Q 1025 1406 1450 917 
Q 1875 428 2675 428 
Q 3081 428 3442 575 
Q 3803 722 4122 1019 
L 4122 359 
Q 3791 134 3420 21 
Q 3050 -91 2638 -91 
Q 1578 -91 968 557 
Q 359 1206 359 2328 
Q 359 3453 968 4101 
Q 1578 4750 2638 4750 
Q 3056 4750 3426 4639 
Q 3797 4528 4122 4306 
z
" transform="scale(0.015625)"/>
       <path id="DejaVuSans-79" d="M 2059 -325 
Q 1816 -950 1584 -1140 
Q 1353 -1331 966 -1331 
L 506 -1331 
L 506 -850 
L 844 -850 
Q 1081 -850 1212 -737 
Q 1344 -625 1503 -206 
L 1606 56 
L 191 3500 
L 800 3500 
L 1894 763 
L 2988 3500 
L 3597 3500 
L 2059 -325 
z
" transform="scale(0.015625)"/>
       <path id="DejaVuSans-73" d="M 2834 3397 
L 2834 2853 
Q 2591 2978 2328 3040 
Q 2066 3103 1784 3103 
Q 1356 3103 1142 2972 
Q 928 2841 928 2578 
Q 928 2378 1081 2264 
Q 1234 2150 1697 2047 
L 1894 2003 
Q 2506 1872 2764 1633 
Q 3022 1394 3022 966 
Q 3022 478 2636 193 
Q 2250 -91 1575 -91 
Q 1294 -91 989 -36 
Q 684 19 347 128 
L 347 722 
Q 666 556 975 473 
Q 1284 391 1588 391 
Q 1994 391 2212 530 
Q 2431 669 2431 922 
Q 2431 1156 2273 1281 
Q 2116 1406 1581 1522 
L 1381 1569 
Q 847 1681 609 1914 
Q 372 2147 372 2553 
Q 372 3047 722 3315 
Q 1072 3584 1716 3584 
Q 2034 3584 2315 3537 
Q 2597 3491 2834 3397 
z
" transform="scale(0.015625)"/>
       <path id="DejaVuSans-69" d="M 603 3500 
L 1178 3500 
L 1178 0 
L 603 0 
L 603 3500 
z
M 603 4863 
L 1178 4863 
L 1178 4134 
L 603 4134 
L 603 4863 
z
" transform="scale(0.015625)"/>
      </defs>
      <use xlink:href="#DejaVuSans-4e"/>
      <use xlink:href="#DejaVuSans-75" x="74.804688"/>
      <use xlink:href="#DejaVuSans-63" x="138.183594"/>
      <use xlink:href="#DejaVuSans-6c" x="193.164062"/>
      <use xlink:href="#DejaVuSans-65" x="220.947266"/>
      <use xlink:href="#DejaVuSans-61" x="282.470703"/>
      <use xlink:href="#DejaVuSans-72" x="343.75"/>
      <use xlink:href="#DejaVuSans-2f" x="384.863281"/>
      <use xlink:href="#DejaVuSans-43" x="418.554688"/>
      <use xlink:href="#DejaVuSans-79" x="488.378906"/>
      <use xlink:href="#DejaVuSans-74" x="547.558594"/>
      <use xlink:href="#DejaVuSans-6f" x="586.767578"/>
      <use xlink:href="#DejaVuSans-70" x="647.949219"/>
      <use xlink:href="#DejaVuSans-6c" x="711.425781"/>
      <use xlink:href="#DejaVuSans-61" x="739.208984"/>
      <use xlink:href="#DejaVuSans-73" x="800.488281"/>
      <use xlink:href="#DejaVuSans-6d" x="852.587891"/>
      <use xlink:href="#DejaVuSans-69" x="950"/>
      <use xlink:href="#DejaVuSans-63" x="977.783203"/>
      <use xlink:href="#DejaVuSans-20" x="1032.763672"/>
      <use xlink:href="#DejaVuSans-72" x="1064.550781"/>
      <use xlink:href="#DejaVuSans-61" x="1105.664062"/>
      <use xlink:href="#DejaVuSans-74" x="1166.943359"/>
      <use xlink:href="#DejaVuSans-69" x="1206.152344"/>
      <use xlink:href="#DejaVuSans-6f" x="1233.935547"/>
     </g>
    </g>
   </g>
   <g id="line2d_14">
    <path d="M 138.436364 390.092704 
L 146.662408 391.713494 
L 154.888452 382.115354 
L 163.114496 358.685568 
L 171.340541 324.162167 
L 179.566585 314.714546 
L 187.792629 347.174576 
L 196.018673 357.629685 
L 204.244717 354.584344 
L 212.470762 359.820575 
L 220.696806 376.528094 
L 228.92285 347.66493 
L 237.148894 317.471607 
L 245.374939 365.29286 
L 253.600983 388.881613 
L 261.827027 372.762847 
L 270.053071 380.644927 
L 278.279115 382.449936 
L 286.50516 394.936864 
L 294.731204 416.383493 
L 302.957248 334.169575 
L 311.183292 290.88 
L 319.409337 366.676645 
L 327.635381 417.136535 
L 335.861425 399.201108 
L 344.087469 400.219897 
L 352.313514 391.862323 
L 360.539558 381.378298 
L 368.765602 364.982693 
L 376.991646 334.884597 
L 385.21769 315.130394 
L 393.443735 353.139889 
L 401.669779 387.950063 
L 409.895823 396.840786 
L 418.121867 391.431424 
L 426.347912 386.146126 
L 434.573956 399.455049 
L 442.8 412.559514 
L 451.026044 397.893088 
L 459.252088 381.483913 
L 467.478133 376.774391 
L 475.704177 373.097163 
L 483.930221 386.802621 
L 492.156265 407.502915 
L 500.38231 416.39151 
L 508.608354 431.910915 
L 516.834398 450.260221 
L 525.060442 459.198219 
L 533.286486 459.018099 
L 541.512531 446.525658 
L 549.738575 446.525658 
L 557.964619 435.085852 
L 566.190663 423.503038 
L 574.416708 413.069674 
L 582.642752 394.707835 
L 590.868796 364.382758 
L 599.09484 348.030469 
L 607.320885 350.699913 
L 615.546929 378.548565 
L 623.772973 398.670622 
L 631.999017 415.127029 
L 640.225061 416.06972 
L 648.451106 417.4529 
L 656.67715 423.220009 
L 664.903194 427.847015 
L 673.129238 429.437257 
L 681.355283 426.551445 
L 689.581327 428.631794 
L 697.807371 437.148667 
L 706.033415 451.229482 
L 714.259459 467.727613 
L 722.485504 478.057181 
L 730.711548 480.991407 
L 738.937592 472.845998 
L 747.163636 453.921572 
" clip-path="url(#pb39a672ace)" style="fill: none; stroke: #1f77b4; stroke-width: 1.5; stroke-linecap: square"/>
   </g>
   <g id="line2d_15">
    <path d="M 138.436364 345.527678 
L 146.662408 366.175408 
L 154.888452 410.454022 
L 163.114496 412.243351 
L 171.340541 384.437325 
L 179.566585 356.764606 
L 187.792629 350.351011 
L 196.018673 356.517831 
L 204.244717 367.684001 
L 212.470762 373.381507 
L 220.696806 369.339083 
L 228.92285 364.278116 
L 237.148894 370.755304 
L 245.374939 389.875829 
L 253.600983 393.460527 
L 261.827027 379.164362 
L 270.053071 371.669985 
L 278.279115 387.835717 
L 286.50516 401.01877 
L 294.731204 409.150226 
L 302.957248 413.351534 
L 311.183292 410.36015 
L 319.409337 424.607736 
L 327.635381 437.11976 
L 335.861425 425.696807 
L 344.087469 429.222314 
L 352.313514 417.355323 
L 360.539558 424.649322 
L 368.765602 425.243546 
L 376.991646 420.466758 
L 385.21769 420.220107 
L 393.443735 413.638453 
L 401.669779 411.764662 
L 409.895823 415.572701 
L 418.121867 419.878789 
L 426.347912 424.615922 
L 434.573956 420.502942 
L 442.8 424.930464 
L 451.026044 434.911972 
L 459.252088 442.039207 
L 467.478133 442.424566 
L 475.704177 436.353137 
L 483.930221 440.18021 
L 492.156265 450.226391 
L 500.38231 451.565419 
L 508.608354 451.959276 
L 516.834398 457.108863 
L 525.060442 460.128383 
L 533.286486 466.221145 
L 541.512531 465.092526 
L 549.738575 465.092526 
L 557.964619 460.945058 
L 566.190663 460.838217 
L 574.416708 463.495403 
L 582.642752 462.989456 
L 590.868796 449.032566 
L 599.09484 435.563574 
L 607.320885 435.362625 
L 615.546929 440.57397 
L 623.772973 441.84378 
L 631.999017 437.267622 
L 640.225061 436.013252 
L 648.451106 441.357248 
L 656.67715 448.897433 
L 664.903194 457.712326 
L 673.129238 461.162076 
L 681.355283 461.412629 
L 689.581327 458.132181 
L 697.807371 458.834465 
L 706.033415 464.490982 
L 714.259459 471.047098 
L 722.485504 475.502302 
L 730.711548 476.092528 
L 738.937592 475.229791 
L 747.163636 469.452006 
" clip-path="url(#pb39a672ace)" style="fill: none; stroke: #ff7f0e; stroke-width: 1.5; stroke-linecap: square"/>
   </g>
   <g id="patch_3">
    <path d="M 108 512.64 
L 108 69.12 
" style="fill: none; stroke: #000000; stroke-width: 0.8; stroke-linejoin: miter; stroke-linecap: square"/>
   </g>
   <g id="patch_4">
    <path d="M 777.6 512.64 
L 777.6 69.12 
" style="fill: none; stroke: #000000; stroke-width: 0.8; stroke-linejoin: miter; stroke-linecap: square"/>
   </g>
   <g id="patch_5">
    <path d="M 108 512.64 
L 777.6 512.64 
" style="fill: none; stroke: #000000; stroke-width: 0.8; stroke-linejoin: miter; stroke-linecap: square"/>
   </g>
   <g id="patch_6">
    <path d="M 108 69.12 
L 777.6 69.12 
" style="fill: none; stroke: #000000; stroke-width: 0.8; stroke-linejoin: miter; stroke-linecap: square"/>
   </g>
   <g id="legend_1">
    <g id="patch_7">
     <path d="M 655.566563 132.625625 
L 765.7 132.625625 
Q 769.1 132.625625 769.1 129.225625 
L 769.1 81.02 
Q 769.1 77.62 765.7 77.62 
L 655.566563 77.62 
Q 652.166563 77.62 652.166563 81.02 
L 652.166563 129.225625 
Q 652.166563 132.625625 655.566563 132.625625 
z
" style="fill: #ffffff; opacity: 0.8; stroke: #cccccc; stroke-linejoin: miter"/>
    </g>
    <g id="line2d_16">
     <path d="M 658.966563 91.387344 
L 675.966563 91.387344 
L 692.966563 91.387344 
" style="fill: none; stroke: #1f77b4; stroke-width: 1.5; stroke-linecap: square"/>
    </g>
    <g id="text_16">
     <!-- TIR -->
     <g transform="translate(706.566563 97.337344) scale(0.17 -0.17)">
      <defs>
       <path id="DejaVuSans-54" d="M -19 4666 
L 3928 4666 
L 3928 4134 
L 2272 4134 
L 2272 0 
L 1638 0 
L 1638 4134 
L -19 4134 
L -19 4666 
z
" transform="scale(0.015625)"/>
       <path id="DejaVuSans-49" d="M 628 4666 
L 1259 4666 
L 1259 0 
L 628 0 
L 628 4666 
z
" transform="scale(0.015625)"/>
       <path id="DejaVuSans-52" d="M 2841 2188 
Q 3044 2119 3236 1894 
Q 3428 1669 3622 1275 
L 4263 0 
L 3584 0 
L 2988 1197 
Q 2756 1666 2539 1819 
Q 2322 1972 1947 1972 
L 1259 1972 
L 1259 0 
L 628 0 
L 628 4666 
L 2053 4666 
Q 2853 4666 3247 4331 
Q 3641 3997 3641 3322 
Q 3641 2881 3436 2590 
Q 3231 2300 2841 2188 
z
M 1259 4147 
L 1259 2491 
L 2053 2491 
Q 2509 2491 2742 2702 
Q 2975 2913 2975 3322 
Q 2975 3731 2742 3939 
Q 2509 4147 2053 4147 
L 1259 4147 
z
" transform="scale(0.015625)"/>
      </defs>
      <use xlink:href="#DejaVuSans-54"/>
      <use xlink:href="#DejaVuSans-49" x="61.083984"/>
      <use xlink:href="#DejaVuSans-52" x="90.576172"/>
     </g>
    </g>
    <g id="line2d_17">
     <path d="M 658.966563 116.340156 
L 675.966563 116.340156 
L 692.966563 116.340156 
" style="fill: none; stroke: #ff7f0e; stroke-width: 1.5; stroke-linecap: square"/>
    </g>
    <g id="text_17">
     <!-- No TIR -->
     <g transform="translate(706.566563 122.290156) scale(0.17 -0.17)">
      <use xlink:href="#DejaVuSans-4e"/>
      <use xlink:href="#DejaVuSans-6f" x="74.804688"/>
      <use xlink:href="#DejaVuSans-20" x="135.986328"/>
      <use xlink:href="#DejaVuSans-54" x="167.773438"/>
      <use xlink:href="#DejaVuSans-49" x="228.857422"/>
      <use xlink:href="#DejaVuSans-52" x="258.349609"/>
     </g>
    </g>
   </g>
  </g>
 </g>
 <defs>
  <clipPath id="pb39a672ace">
   <rect x="108" y="69.12" width="669.6" height="443.52"/>
  </clipPath>
 </defs>
</svg>
