<?xml version="1.0" encoding="utf-8" standalone="no"?>
<!DOCTYPE svg PUBLIC "-//W3C//DTD SVG 1.1//EN"
  "http://www.w3.org/Graphics/SVG/1.1/DTD/svg11.dtd">
<svg xmlns:xlink="http://www.w3.org/1999/xlink" width="864pt" height="576pt" viewBox="0 0 864 576" xmlns="http://www.w3.org/2000/svg" version="1.1">
 <metadata>
  <rdf:RDF xmlns:dc="http://purl.org/dc/elements/1.1/" xmlns:cc="http://creativecommons.org/ns#" xmlns:rdf="http://www.w3.org/1999/02/22-rdf-syntax-ns#">
   <cc:Work>
    <dc:type rdf:resource="http://purl.org/dc/dcmitype/StillImage"/>
    <dc:date>2024-09-27T09:53:42.238879</dc:date>
    <dc:format>image/svg+xml</dc:format>
    <dc:creator>
     <cc:Agent>
      <dc:title>Matplotlib v3.8.2, https://matplotlib.org/</dc:title>
     </cc:Agent>
    </dc:creator>
   </cc:Work>
  </rdf:RDF>
 </metadata>
 <defs>
  <style type="text/css">*{stroke-linejoin: round; stroke-linecap: butt}</style>
 </defs>
 <g id="figure_1">
  <g id="patch_1">
   <path d="M 0 576 
L 864 576 
L 864 0 
L 0 0 
z
" style="fill: #ffffff"/>
  </g>
  <g id="axes_1">
   <g id="patch_2">
    <path d="M 108 512.64 
L 777.6 512.64 
L 777.6 69.12 
L 108 69.12 
z
" style="fill: #ffffff"/>
   </g>
   <g id="PolyCollection_1">
    <path d="M 138.436364 89.28 
L 138.436364 492.48 
L 146.662408 475.444834 
L 154.888452 459.005181 
L 163.114496 443.430182 
L 171.340541 429.153283 
L 179.566585 414.337311 
L 187.792629 395.94097 
L 196.018673 378.529574 
L 204.244717 356.721175 
L 212.470762 319.531294 
L 220.696806 314.205564 
L 228.92285 339.834947 
L 237.148894 327.202032 
L 245.374939 329.374373 
L 253.600983 320.759021 
L 261.827027 313.822985 
L 270.053071 312.631871 
L 278.279115 311.934202 
L 286.50516 316.028036 
L 294.731204 313.8683 
L 302.957248 295.736435 
L 311.183292 338.710572 
L 319.409337 366.90163 
L 327.635381 382.807328 
L 335.861425 373.967463 
L 344.087469 384.71123 
L 352.313514 378.513558 
L 360.539558 363.444053 
L 368.765602 356.553339 
L 376.991646 356.115644 
L 385.21769 354.390608 
L 393.443735 350.061486 
L 401.669779 344.056451 
L 409.895823 339.014008 
L 418.121867 336.091714 
L 426.347912 338.879945 
L 434.573956 345.840119 
L 442.8 348.010506 
L 451.026044 335.434662 
L 459.252088 327.515325 
L 467.478133 328.078947 
L 475.704177 331.555166 
L 483.930221 329.334511 
L 492.156265 324.66522 
L 500.38231 326.119511 
L 508.608354 347.194672 
L 516.834398 366.458186 
L 525.060442 378.859072 
L 533.286486 395.698514 
L 541.512531 407.664791 
L 549.738575 407.664791 
L 557.964619 400.586056 
L 566.190663 381.289606 
L 574.416708 375.139815 
L 582.642752 372.397704 
L 590.868796 376.224188 
L 599.09484 373.605996 
L 607.320885 363.021002 
L 615.546929 354.53603 
L 623.772973 347.098895 
L 631.999017 346.059449 
L 640.225061 348.843951 
L 648.451106 352.056897 
L 656.67715 353.130412 
L 664.903194 349.055027 
L 673.129238 340.915728 
L 681.355283 338.102947 
L 689.581327 350.142815 
L 697.807371 364.379374 
L 706.033415 376.499437 
L 714.259459 377.99213 
L 722.485504 380.571128 
L 730.711548 385.494625 
L 738.937592 396.109113 
L 747.163636 398.505197 
L 747.163636 339.129484 
L 747.163636 339.129484 
L 738.937592 347.890523 
L 730.711548 348.138509 
L 722.485504 345.398701 
L 714.259459 341.458612 
L 706.033415 335.120851 
L 697.807371 331.552064 
L 689.581327 328.00607 
L 681.355283 329.273665 
L 673.129238 328.617162 
L 664.903194 331.187312 
L 656.67715 331.315604 
L 648.451106 326.076885 
L 640.225061 319.834879 
L 631.999017 322.176252 
L 623.772973 330.274816 
L 615.546929 339.306799 
L 607.320885 342.487382 
L 599.09484 340.520656 
L 590.868796 335.107 
L 582.642752 333.765808 
L 574.416708 329.019186 
L 566.190663 326.280494 
L 557.964619 324.777971 
L 549.738575 336.70474 
L 541.512531 336.70474 
L 533.286486 351.768502 
L 525.060442 347.122292 
L 516.834398 321.624587 
L 508.608354 296.15216 
L 500.38231 288.667799 
L 492.156265 296.444104 
L 483.930221 304.824701 
L 475.704177 306.973769 
L 467.478133 305.320068 
L 459.252088 303.305034 
L 451.026044 299.650313 
L 442.8 292.137278 
L 434.573956 301.980077 
L 426.347912 313.493749 
L 418.121867 301.037202 
L 409.895823 284.672703 
L 401.669779 291.384862 
L 393.443735 304.358179 
L 385.21769 314.872871 
L 376.991646 320.521258 
L 368.765602 318.467106 
L 360.539558 305.448117 
L 352.313514 295.354026 
L 344.087469 317.821981 
L 335.861425 299.712192 
L 327.635381 327.919415 
L 319.409337 335.562613 
L 311.183292 305.394782 
L 302.957248 291.220398 
L 294.731204 262.180392 
L 286.50516 277.66816 
L 278.279115 281.40895 
L 270.053071 284.611472 
L 261.827027 290.193264 
L 253.600983 295.581707 
L 245.374939 303.815078 
L 237.148894 308.182955 
L 228.92285 286.148804 
L 220.696806 268.618013 
L 212.470762 258.256213 
L 204.244717 252.901718 
L 196.018673 240.211943 
L 187.792629 224.86052 
L 179.566585 208.524152 
L 171.340541 188.540497 
L 163.114496 165.280153 
L 154.888452 140.721709 
L 146.662408 115.298611 
L 138.436364 89.28 
z
" clip-path="url(#p88494222b0)" style="fill: #1f77b4; fill-opacity: 0.3"/>
   </g>
   <g id="PolyCollection_2">
    <path d="M 138.436364 283.008147 
L 138.436364 466.122616 
L 146.662408 438.616762 
L 154.888452 412.722745 
L 163.114496 391.172062 
L 171.340541 380.17275 
L 179.566585 359.965068 
L 187.792629 338.670577 
L 196.018673 327.065963 
L 204.244717 313.830625 
L 212.470762 312.79631 
L 220.696806 309.137939 
L 228.92285 310.60095 
L 237.148894 318.937607 
L 245.374939 323.994962 
L 253.600983 335.30024 
L 261.827027 331.775839 
L 270.053071 319.896164 
L 278.279115 323.894964 
L 286.50516 338.416426 
L 294.731204 331.985874 
L 302.957248 329.766981 
L 311.183292 366.68719 
L 319.409337 381.443196 
L 327.635381 394.171129 
L 335.861425 390.080581 
L 344.087469 382.527069 
L 352.313514 359.199643 
L 360.539558 350.323813 
L 368.765602 352.697616 
L 376.991646 358.970081 
L 385.21769 367.22414 
L 393.443735 368.389399 
L 401.669779 365.220366 
L 409.895823 369.439636 
L 418.121867 374.086873 
L 426.347912 384.112754 
L 434.573956 388.812136 
L 442.8 390.567116 
L 451.026044 395.908728 
L 459.252088 399.863515 
L 467.478133 388.680718 
L 475.704177 375.197889 
L 483.930221 378.742472 
L 492.156265 379.460678 
L 500.38231 374.784236 
L 508.608354 381.938735 
L 516.834398 391.662713 
L 525.060442 394.040846 
L 533.286486 404.368915 
L 541.512531 412.624651 
L 549.738575 412.624651 
L 557.964619 417.823701 
L 566.190663 396.883608 
L 574.416708 377.233548 
L 582.642752 370.789622 
L 590.868796 369.465832 
L 599.09484 369.970235 
L 607.320885 372.324505 
L 615.546929 372.466786 
L 623.772973 370.545915 
L 631.999017 368.359004 
L 640.225061 367.88538 
L 648.451106 367.687956 
L 656.67715 367.442499 
L 664.903194 373.635841 
L 673.129238 379.794522 
L 681.355283 382.976852 
L 689.581327 384.994898 
L 697.807371 385.147561 
L 706.033415 386.646317 
L 714.259459 386.291329 
L 722.485504 378.666208 
L 730.711548 372.185429 
L 738.937592 376.35049 
L 747.163636 386.806068 
L 747.163636 343.207232 
L 747.163636 343.207232 
L 738.937592 344.15767 
L 730.711548 348.942093 
L 722.485504 356.963351 
L 714.259459 361.914319 
L 706.033415 360.831543 
L 697.807371 350.895951 
L 689.581327 337.940065 
L 681.355283 344.147482 
L 673.129238 351.441471 
L 664.903194 354.545088 
L 656.67715 347.854361 
L 648.451106 339.723512 
L 640.225061 339.03846 
L 631.999017 341.705352 
L 623.772973 343.54808 
L 615.546929 337.00228 
L 607.320885 328.3829 
L 599.09484 324.399409 
L 590.868796 328.200995 
L 582.642752 331.84476 
L 574.416708 336.309174 
L 566.190663 339.3923 
L 557.964619 345.869509 
L 549.738575 365.795093 
L 541.512531 365.795093 
L 533.286486 368.125693 
L 525.060442 361.866449 
L 516.834398 361.012512 
L 508.608354 354.096407 
L 500.38231 348.108403 
L 492.156265 339.158411 
L 483.930221 339.197405 
L 475.704177 335.668245 
L 467.478133 329.137401 
L 459.252088 343.319763 
L 451.026044 347.977948 
L 442.8 342.442847 
L 434.573956 341.512794 
L 426.347912 351.249403 
L 418.121867 350.378634 
L 409.895823 335.302622 
L 401.669779 338.710882 
L 393.443735 341.913016 
L 385.21769 336.412563 
L 376.991646 337.136911 
L 368.765602 336.106654 
L 360.539558 327.115434 
L 352.313514 335.085302 
L 344.087469 346.802287 
L 335.861425 344.828849 
L 327.635381 371.895574 
L 319.409337 376.027155 
L 311.183292 338.876111 
L 302.957248 321.566613 
L 294.731204 306.198179 
L 286.50516 313.834614 
L 278.279115 316.243945 
L 270.053071 310.570278 
L 261.827027 292.321548 
L 253.600983 273.832524 
L 245.374939 298.357401 
L 237.148894 301.231738 
L 228.92285 278.167855 
L 220.696806 276.600981 
L 212.470762 283.561072 
L 204.244717 291.454179 
L 196.018673 310.236339 
L 187.792629 328.796151 
L 179.566585 316.494156 
L 171.340541 316.544981 
L 163.114496 319.472014 
L 154.888452 310.750227 
L 146.662408 297.685106 
L 138.436364 283.008147 
z
" clip-path="url(#p88494222b0)" style="fill: #ff7f0e; fill-opacity: 0.3"/>
   </g>
   <g id="matplotlib.axis_1">
    <g id="xtick_1">
     <g id="line2d_1">
      <defs>
       <path id="m3caac94705" d="M 0 0 
L 0 3.5 
" style="stroke: #000000; stroke-width: 0.8"/>
      </defs>
      <g>
       <use xlink:href="#m3caac94705" x="138.436364" y="512.64" style="stroke: #000000; stroke-width: 0.8"/>
      </g>
     </g>
     <g id="text_1">
      <!-- 0 -->
      <g transform="translate(133.028239 532.557344) scale(0.17 -0.17)">
       <defs>
        <path id="DejaVuSans-30" d="M 2034 4250 
Q 1547 4250 1301 3770 
Q 1056 3291 1056 2328 
Q 1056 1369 1301 889 
Q 1547 409 2034 409 
Q 2525 409 2770 889 
Q 3016 1369 3016 2328 
Q 3016 3291 2770 3770 
Q 2525 4250 2034 4250 
z
M 2034 4750 
Q 2819 4750 3233 4129 
Q 3647 3509 3647 2328 
Q 3647 1150 3233 529 
Q 2819 -91 2034 -91 
Q 1250 -91 836 529 
Q 422 1150 422 2328 
Q 422 3509 836 4129 
Q 1250 4750 2034 4750 
z
" transform="scale(0.015625)"/>
       </defs>
       <use xlink:href="#DejaVuSans-30"/>
      </g>
     </g>
    </g>
    <g id="xtick_2">
     <g id="line2d_2">
      <g>
       <use xlink:href="#m3caac94705" x="220.696806" y="512.64" style="stroke: #000000; stroke-width: 0.8"/>
      </g>
     </g>
     <g id="text_2">
      <!-- 10 -->
      <g transform="translate(209.880556 532.557344) scale(0.17 -0.17)">
       <defs>
        <path id="DejaVuSans-31" d="M 794 531 
L 1825 531 
L 1825 4091 
L 703 3866 
L 703 4441 
L 1819 4666 
L 2450 4666 
L 2450 531 
L 3481 531 
L 3481 0 
L 794 0 
L 794 531 
z
" transform="scale(0.015625)"/>
       </defs>
       <use xlink:href="#DejaVuSans-31"/>
       <use xlink:href="#DejaVuSans-30" x="63.623047"/>
      </g>
     </g>
    </g>
    <g id="xtick_3">
     <g id="line2d_3">
      <g>
       <use xlink:href="#m3caac94705" x="302.957248" y="512.64" style="stroke: #000000; stroke-width: 0.8"/>
      </g>
     </g>
     <g id="text_3">
      <!-- 20 -->
      <g transform="translate(292.140998 532.557344) scale(0.17 -0.17)">
       <defs>
        <path id="DejaVuSans-32" d="M 1228 531 
L 3431 531 
L 3431 0 
L 469 0 
L 469 531 
Q 828 903 1448 1529 
Q 2069 2156 2228 2338 
Q 2531 2678 2651 2914 
Q 2772 3150 2772 3378 
Q 2772 3750 2511 3984 
Q 2250 4219 1831 4219 
Q 1534 4219 1204 4116 
Q 875 4013 500 3803 
L 500 4441 
Q 881 4594 1212 4672 
Q 1544 4750 1819 4750 
Q 2544 4750 2975 4387 
Q 3406 4025 3406 3419 
Q 3406 3131 3298 2873 
Q 3191 2616 2906 2266 
Q 2828 2175 2409 1742 
Q 1991 1309 1228 531 
z
" transform="scale(0.015625)"/>
       </defs>
       <use xlink:href="#DejaVuSans-32"/>
       <use xlink:href="#DejaVuSans-30" x="63.623047"/>
      </g>
     </g>
    </g>
    <g id="xtick_4">
     <g id="line2d_4">
      <g>
       <use xlink:href="#m3caac94705" x="385.21769" y="512.64" style="stroke: #000000; stroke-width: 0.8"/>
      </g>
     </g>
     <g id="text_4">
      <!-- 30 -->
      <g transform="translate(374.40144 532.557344) scale(0.17 -0.17)">
       <defs>
        <path id="DejaVuSans-33" d="M 2597 2516 
Q 3050 2419 3304 2112 
Q 3559 1806 3559 1356 
Q 3559 666 3084 287 
Q 2609 -91 1734 -91 
Q 1441 -91 1130 -33 
Q 819 25 488 141 
L 488 750 
Q 750 597 1062 519 
Q 1375 441 1716 441 
Q 2309 441 2620 675 
Q 2931 909 2931 1356 
Q 2931 1769 2642 2001 
Q 2353 2234 1838 2234 
L 1294 2234 
L 1294 2753 
L 1863 2753 
Q 2328 2753 2575 2939 
Q 2822 3125 2822 3475 
Q 2822 3834 2567 4026 
Q 2313 4219 1838 4219 
Q 1578 4219 1281 4162 
Q 984 4106 628 3988 
L 628 4550 
Q 988 4650 1302 4700 
Q 1616 4750 1894 4750 
Q 2613 4750 3031 4423 
Q 3450 4097 3450 3541 
Q 3450 3153 3228 2886 
Q 3006 2619 2597 2516 
z
" transform="scale(0.015625)"/>
       </defs>
       <use xlink:href="#DejaVuSans-33"/>
       <use xlink:href="#DejaVuSans-30" x="63.623047"/>
      </g>
     </g>
    </g>
    <g id="xtick_5">
     <g id="line2d_5">
      <g>
       <use xlink:href="#m3caac94705" x="467.478133" y="512.64" style="stroke: #000000; stroke-width: 0.8"/>
      </g>
     </g>
     <g id="text_5">
      <!-- 40 -->
      <g transform="translate(456.661883 532.557344) scale(0.17 -0.17)">
       <defs>
        <path id="DejaVuSans-34" d="M 2419 4116 
L 825 1625 
L 2419 1625 
L 2419 4116 
z
M 2253 4666 
L 3047 4666 
L 3047 1625 
L 3713 1625 
L 3713 1100 
L 3047 1100 
L 3047 0 
L 2419 0 
L 2419 1100 
L 313 1100 
L 313 1709 
L 2253 4666 
z
" transform="scale(0.015625)"/>
       </defs>
       <use xlink:href="#DejaVuSans-34"/>
       <use xlink:href="#DejaVuSans-30" x="63.623047"/>
      </g>
     </g>
    </g>
    <g id="xtick_6">
     <g id="line2d_6">
      <g>
       <use xlink:href="#m3caac94705" x="549.738575" y="512.64" style="stroke: #000000; stroke-width: 0.8"/>
      </g>
     </g>
     <g id="text_6">
      <!-- 50 -->
      <g transform="translate(538.922325 532.557344) scale(0.17 -0.17)">
       <defs>
        <path id="DejaVuSans-35" d="M 691 4666 
L 3169 4666 
L 3169 4134 
L 1269 4134 
L 1269 2991 
Q 1406 3038 1543 3061 
Q 1681 3084 1819 3084 
Q 2600 3084 3056 2656 
Q 3513 2228 3513 1497 
Q 3513 744 3044 326 
Q 2575 -91 1722 -91 
Q 1428 -91 1123 -41 
Q 819 9 494 109 
L 494 744 
Q 775 591 1075 516 
Q 1375 441 1709 441 
Q 2250 441 2565 725 
Q 2881 1009 2881 1497 
Q 2881 1984 2565 2268 
Q 2250 2553 1709 2553 
Q 1456 2553 1204 2497 
Q 953 2441 691 2322 
L 691 4666 
z
" transform="scale(0.015625)"/>
       </defs>
       <use xlink:href="#DejaVuSans-35"/>
       <use xlink:href="#DejaVuSans-30" x="63.623047"/>
      </g>
     </g>
    </g>
    <g id="xtick_7">
     <g id="line2d_7">
      <g>
       <use xlink:href="#m3caac94705" x="631.999017" y="512.64" style="stroke: #000000; stroke-width: 0.8"/>
      </g>
     </g>
     <g id="text_7">
      <!-- 60 -->
      <g transform="translate(621.182767 532.557344) scale(0.17 -0.17)">
       <defs>
        <path id="DejaVuSans-36" d="M 2113 2584 
Q 1688 2584 1439 2293 
Q 1191 2003 1191 1497 
Q 1191 994 1439 701 
Q 1688 409 2113 409 
Q 2538 409 2786 701 
Q 3034 994 3034 1497 
Q 3034 2003 2786 2293 
Q 2538 2584 2113 2584 
z
M 3366 4563 
L 3366 3988 
Q 3128 4100 2886 4159 
Q 2644 4219 2406 4219 
Q 1781 4219 1451 3797 
Q 1122 3375 1075 2522 
Q 1259 2794 1537 2939 
Q 1816 3084 2150 3084 
Q 2853 3084 3261 2657 
Q 3669 2231 3669 1497 
Q 3669 778 3244 343 
Q 2819 -91 2113 -91 
Q 1303 -91 875 529 
Q 447 1150 447 2328 
Q 447 3434 972 4092 
Q 1497 4750 2381 4750 
Q 2619 4750 2861 4703 
Q 3103 4656 3366 4563 
z
" transform="scale(0.015625)"/>
       </defs>
       <use xlink:href="#DejaVuSans-36"/>
       <use xlink:href="#DejaVuSans-30" x="63.623047"/>
      </g>
     </g>
    </g>
    <g id="xtick_8">
     <g id="line2d_8">
      <g>
       <use xlink:href="#m3caac94705" x="714.259459" y="512.64" style="stroke: #000000; stroke-width: 0.8"/>
      </g>
     </g>
     <g id="text_8">
      <!-- 70 -->
      <g transform="translate(703.443209 532.557344) scale(0.17 -0.17)">
       <defs>
        <path id="DejaVuSans-37" d="M 525 4666 
L 3525 4666 
L 3525 4397 
L 1831 0 
L 1172 0 
L 2766 4134 
L 525 4134 
L 525 4666 
z
" transform="scale(0.015625)"/>
       </defs>
       <use xlink:href="#DejaVuSans-37"/>
       <use xlink:href="#DejaVuSans-30" x="63.623047"/>
      </g>
     </g>
    </g>
    <g id="text_9">
     <!-- Larval Development (%) -->
     <g transform="translate(339.424062 553.010156) scale(0.17 -0.17)">
      <defs>
       <path id="DejaVuSans-4c" d="M 628 4666 
L 1259 4666 
L 1259 531 
L 3531 531 
L 3531 0 
L 628 0 
L 628 4666 
z
" transform="scale(0.015625)"/>
       <path id="DejaVuSans-61" d="M 2194 1759 
Q 1497 1759 1228 1600 
Q 959 1441 959 1056 
Q 959 750 1161 570 
Q 1363 391 1709 391 
Q 2188 391 2477 730 
Q 2766 1069 2766 1631 
L 2766 1759 
L 2194 1759 
z
M 3341 1997 
L 3341 0 
L 2766 0 
L 2766 531 
Q 2569 213 2275 61 
Q 1981 -91 1556 -91 
Q 1019 -91 701 211 
Q 384 513 384 1019 
Q 384 1609 779 1909 
Q 1175 2209 1959 2209 
L 2766 2209 
L 2766 2266 
Q 2766 2663 2505 2880 
Q 2244 3097 1772 3097 
Q 1472 3097 1187 3025 
Q 903 2953 641 2809 
L 641 3341 
Q 956 3463 1253 3523 
Q 1550 3584 1831 3584 
Q 2591 3584 2966 3190 
Q 3341 2797 3341 1997 
z
" transform="scale(0.015625)"/>
       <path id="DejaVuSans-72" d="M 2631 2963 
Q 2534 3019 2420 3045 
Q 2306 3072 2169 3072 
Q 1681 3072 1420 2755 
Q 1159 2438 1159 1844 
L 1159 0 
L 581 0 
L 581 3500 
L 1159 3500 
L 1159 2956 
Q 1341 3275 1631 3429 
Q 1922 3584 2338 3584 
Q 2397 3584 2469 3576 
Q 2541 3569 2628 3553 
L 2631 2963 
z
" transform="scale(0.015625)"/>
       <path id="DejaVuSans-76" d="M 191 3500 
L 800 3500 
L 1894 563 
L 2988 3500 
L 3597 3500 
L 2284 0 
L 1503 0 
L 191 3500 
z
" transform="scale(0.015625)"/>
       <path id="DejaVuSans-6c" d="M 603 4863 
L 1178 4863 
L 1178 0 
L 603 0 
L 603 4863 
z
" transform="scale(0.015625)"/>
       <path id="DejaVuSans-20" transform="scale(0.015625)"/>
       <path id="DejaVuSans-44" d="M 1259 4147 
L 1259 519 
L 2022 519 
Q 2988 519 3436 956 
Q 3884 1394 3884 2338 
Q 3884 3275 3436 3711 
Q 2988 4147 2022 4147 
L 1259 4147 
z
M 628 4666 
L 1925 4666 
Q 3281 4666 3915 4102 
Q 4550 3538 4550 2338 
Q 4550 1131 3912 565 
Q 3275 0 1925 0 
L 628 0 
L 628 4666 
z
" transform="scale(0.015625)"/>
       <path id="DejaVuSans-65" d="M 3597 1894 
L 3597 1613 
L 953 1613 
Q 991 1019 1311 708 
Q 1631 397 2203 397 
Q 2534 397 2845 478 
Q 3156 559 3463 722 
L 3463 178 
Q 3153 47 2828 -22 
Q 2503 -91 2169 -91 
Q 1331 -91 842 396 
Q 353 884 353 1716 
Q 353 2575 817 3079 
Q 1281 3584 2069 3584 
Q 2775 3584 3186 3129 
Q 3597 2675 3597 1894 
z
M 3022 2063 
Q 3016 2534 2758 2815 
Q 2500 3097 2075 3097 
Q 1594 3097 1305 2825 
Q 1016 2553 972 2059 
L 3022 2063 
z
" transform="scale(0.015625)"/>
       <path id="DejaVuSans-6f" d="M 1959 3097 
Q 1497 3097 1228 2736 
Q 959 2375 959 1747 
Q 959 1119 1226 758 
Q 1494 397 1959 397 
Q 2419 397 2687 759 
Q 2956 1122 2956 1747 
Q 2956 2369 2687 2733 
Q 2419 3097 1959 3097 
z
M 1959 3584 
Q 2709 3584 3137 3096 
Q 3566 2609 3566 1747 
Q 3566 888 3137 398 
Q 2709 -91 1959 -91 
Q 1206 -91 779 398 
Q 353 888 353 1747 
Q 353 2609 779 3096 
Q 1206 3584 1959 3584 
z
" transform="scale(0.015625)"/>
       <path id="DejaVuSans-70" d="M 1159 525 
L 1159 -1331 
L 581 -1331 
L 581 3500 
L 1159 3500 
L 1159 2969 
Q 1341 3281 1617 3432 
Q 1894 3584 2278 3584 
Q 2916 3584 3314 3078 
Q 3713 2572 3713 1747 
Q 3713 922 3314 415 
Q 2916 -91 2278 -91 
Q 1894 -91 1617 61 
Q 1341 213 1159 525 
z
M 3116 1747 
Q 3116 2381 2855 2742 
Q 2594 3103 2138 3103 
Q 1681 3103 1420 2742 
Q 1159 2381 1159 1747 
Q 1159 1113 1420 752 
Q 1681 391 2138 391 
Q 2594 391 2855 752 
Q 3116 1113 3116 1747 
z
" transform="scale(0.015625)"/>
       <path id="DejaVuSans-6d" d="M 3328 2828 
Q 3544 3216 3844 3400 
Q 4144 3584 4550 3584 
Q 5097 3584 5394 3201 
Q 5691 2819 5691 2113 
L 5691 0 
L 5113 0 
L 5113 2094 
Q 5113 2597 4934 2840 
Q 4756 3084 4391 3084 
Q 3944 3084 3684 2787 
Q 3425 2491 3425 1978 
L 3425 0 
L 2847 0 
L 2847 2094 
Q 2847 2600 2669 2842 
Q 2491 3084 2119 3084 
Q 1678 3084 1418 2786 
Q 1159 2488 1159 1978 
L 1159 0 
L 581 0 
L 581 3500 
L 1159 3500 
L 1159 2956 
Q 1356 3278 1631 3431 
Q 1906 3584 2284 3584 
Q 2666 3584 2933 3390 
Q 3200 3197 3328 2828 
z
" transform="scale(0.015625)"/>
       <path id="DejaVuSans-6e" d="M 3513 2113 
L 3513 0 
L 2938 0 
L 2938 2094 
Q 2938 2591 2744 2837 
Q 2550 3084 2163 3084 
Q 1697 3084 1428 2787 
Q 1159 2491 1159 1978 
L 1159 0 
L 581 0 
L 581 3500 
L 1159 3500 
L 1159 2956 
Q 1366 3272 1645 3428 
Q 1925 3584 2291 3584 
Q 2894 3584 3203 3211 
Q 3513 2838 3513 2113 
z
" transform="scale(0.015625)"/>
       <path id="DejaVuSans-74" d="M 1172 4494 
L 1172 3500 
L 2356 3500 
L 2356 3053 
L 1172 3053 
L 1172 1153 
Q 1172 725 1289 603 
Q 1406 481 1766 481 
L 2356 481 
L 2356 0 
L 1766 0 
Q 1100 0 847 248 
Q 594 497 594 1153 
L 594 3053 
L 172 3053 
L 172 3500 
L 594 3500 
L 594 4494 
L 1172 4494 
z
" transform="scale(0.015625)"/>
       <path id="DejaVuSans-28" d="M 1984 4856 
Q 1566 4138 1362 3434 
Q 1159 2731 1159 2009 
Q 1159 1288 1364 580 
Q 1569 -128 1984 -844 
L 1484 -844 
Q 1016 -109 783 600 
Q 550 1309 550 2009 
Q 550 2706 781 3412 
Q 1013 4119 1484 4856 
L 1984 4856 
z
" transform="scale(0.015625)"/>
       <path id="DejaVuSans-25" d="M 4653 2053 
Q 4381 2053 4226 1822 
Q 4072 1591 4072 1178 
Q 4072 772 4226 539 
Q 4381 306 4653 306 
Q 4919 306 5073 539 
Q 5228 772 5228 1178 
Q 5228 1588 5073 1820 
Q 4919 2053 4653 2053 
z
M 4653 2450 
Q 5147 2450 5437 2106 
Q 5728 1763 5728 1178 
Q 5728 594 5436 251 
Q 5144 -91 4653 -91 
Q 4153 -91 3862 251 
Q 3572 594 3572 1178 
Q 3572 1766 3864 2108 
Q 4156 2450 4653 2450 
z
M 1428 4353 
Q 1159 4353 1004 4120 
Q 850 3888 850 3481 
Q 850 3069 1003 2837 
Q 1156 2606 1428 2606 
Q 1700 2606 1854 2837 
Q 2009 3069 2009 3481 
Q 2009 3884 1853 4118 
Q 1697 4353 1428 4353 
z
M 4250 4750 
L 4750 4750 
L 1831 -91 
L 1331 -91 
L 4250 4750 
z
M 1428 4750 
Q 1922 4750 2215 4408 
Q 2509 4066 2509 3481 
Q 2509 2891 2217 2550 
Q 1925 2209 1428 2209 
Q 931 2209 642 2551 
Q 353 2894 353 3481 
Q 353 4063 643 4406 
Q 934 4750 1428 4750 
z
" transform="scale(0.015625)"/>
       <path id="DejaVuSans-29" d="M 513 4856 
L 1013 4856 
Q 1481 4119 1714 3412 
Q 1947 2706 1947 2009 
Q 1947 1309 1714 600 
Q 1481 -109 1013 -844 
L 513 -844 
Q 928 -128 1133 580 
Q 1338 1288 1338 2009 
Q 1338 2731 1133 3434 
Q 928 4138 513 4856 
z
" transform="scale(0.015625)"/>
      </defs>
      <use xlink:href="#DejaVuSans-4c"/>
      <use xlink:href="#DejaVuSans-61" x="55.712891"/>
      <use xlink:href="#DejaVuSans-72" x="116.992188"/>
      <use xlink:href="#DejaVuSans-76" x="158.105469"/>
      <use xlink:href="#DejaVuSans-61" x="217.285156"/>
      <use xlink:href="#DejaVuSans-6c" x="278.564453"/>
      <use xlink:href="#DejaVuSans-20" x="306.347656"/>
      <use xlink:href="#DejaVuSans-44" x="338.134766"/>
      <use xlink:href="#DejaVuSans-65" x="415.136719"/>
      <use xlink:href="#DejaVuSans-76" x="476.660156"/>
      <use xlink:href="#DejaVuSans-65" x="535.839844"/>
      <use xlink:href="#DejaVuSans-6c" x="597.363281"/>
      <use xlink:href="#DejaVuSans-6f" x="625.146484"/>
      <use xlink:href="#DejaVuSans-70" x="686.328125"/>
      <use xlink:href="#DejaVuSans-6d" x="749.804688"/>
      <use xlink:href="#DejaVuSans-65" x="847.216797"/>
      <use xlink:href="#DejaVuSans-6e" x="908.740234"/>
      <use xlink:href="#DejaVuSans-74" x="972.119141"/>
      <use xlink:href="#DejaVuSans-20" x="1011.328125"/>
      <use xlink:href="#DejaVuSans-28" x="1043.115234"/>
      <use xlink:href="#DejaVuSans-25" x="1082.128906"/>
      <use xlink:href="#DejaVuSans-29" x="1177.148438"/>
     </g>
    </g>
   </g>
   <g id="matplotlib.axis_2">
    <g id="ytick_1">
     <g id="line2d_9">
      <defs>
       <path id="mb8f21d7919" d="M 0 0 
L -3.5 0 
" style="stroke: #000000; stroke-width: 0.8"/>
      </defs>
      <g>
       <use xlink:href="#mb8f21d7919" x="108" y="503.735452" style="stroke: #000000; stroke-width: 0.8"/>
      </g>
     </g>
     <g id="text_10">
      <!-- 0.6 -->
      <g transform="translate(73.964687 510.194124) scale(0.17 -0.17)">
       <defs>
        <path id="DejaVuSans-2e" d="M 684 794 
L 1344 794 
L 1344 0 
L 684 0 
L 684 794 
z
" transform="scale(0.015625)"/>
       </defs>
       <use xlink:href="#DejaVuSans-30"/>
       <use xlink:href="#DejaVuSans-2e" x="63.623047"/>
       <use xlink:href="#DejaVuSans-36" x="95.410156"/>
      </g>
     </g>
    </g>
    <g id="ytick_2">
     <g id="line2d_10">
      <g>
       <use xlink:href="#mb8f21d7919" x="108" y="426.85821" style="stroke: #000000; stroke-width: 0.8"/>
      </g>
     </g>
     <g id="text_11">
      <!-- 0.8 -->
      <g transform="translate(73.964687 433.316882) scale(0.17 -0.17)">
       <defs>
        <path id="DejaVuSans-38" d="M 2034 2216 
Q 1584 2216 1326 1975 
Q 1069 1734 1069 1313 
Q 1069 891 1326 650 
Q 1584 409 2034 409 
Q 2484 409 2743 651 
Q 3003 894 3003 1313 
Q 3003 1734 2745 1975 
Q 2488 2216 2034 2216 
z
M 1403 2484 
Q 997 2584 770 2862 
Q 544 3141 544 3541 
Q 544 4100 942 4425 
Q 1341 4750 2034 4750 
Q 2731 4750 3128 4425 
Q 3525 4100 3525 3541 
Q 3525 3141 3298 2862 
Q 3072 2584 2669 2484 
Q 3125 2378 3379 2068 
Q 3634 1759 3634 1313 
Q 3634 634 3220 271 
Q 2806 -91 2034 -91 
Q 1263 -91 848 271 
Q 434 634 434 1313 
Q 434 1759 690 2068 
Q 947 2378 1403 2484 
z
M 1172 3481 
Q 1172 3119 1398 2916 
Q 1625 2713 2034 2713 
Q 2441 2713 2670 2916 
Q 2900 3119 2900 3481 
Q 2900 3844 2670 4047 
Q 2441 4250 2034 4250 
Q 1625 4250 1398 4047 
Q 1172 3844 1172 3481 
z
" transform="scale(0.015625)"/>
       </defs>
       <use xlink:href="#DejaVuSans-30"/>
       <use xlink:href="#DejaVuSans-2e" x="63.623047"/>
       <use xlink:href="#DejaVuSans-38" x="95.410156"/>
      </g>
     </g>
    </g>
    <g id="ytick_3">
     <g id="line2d_11">
      <g>
       <use xlink:href="#mb8f21d7919" x="108" y="349.980967" style="stroke: #000000; stroke-width: 0.8"/>
      </g>
     </g>
     <g id="text_12">
      <!-- 1.0 -->
      <g transform="translate(73.964687 356.439639) scale(0.17 -0.17)">
       <use xlink:href="#DejaVuSans-31"/>
       <use xlink:href="#DejaVuSans-2e" x="63.623047"/>
       <use xlink:href="#DejaVuSans-30" x="95.410156"/>
      </g>
     </g>
    </g>
    <g id="ytick_4">
     <g id="line2d_12">
      <g>
       <use xlink:href="#mb8f21d7919" x="108" y="273.103725" style="stroke: #000000; stroke-width: 0.8"/>
      </g>
     </g>
     <g id="text_13">
      <!-- 1.2 -->
      <g transform="translate(73.964687 279.562396) scale(0.17 -0.17)">
       <use xlink:href="#DejaVuSans-31"/>
       <use xlink:href="#DejaVuSans-2e" x="63.623047"/>
       <use xlink:href="#DejaVuSans-32" x="95.410156"/>
      </g>
     </g>
    </g>
    <g id="ytick_5">
     <g id="line2d_13">
      <g>
       <use xlink:href="#mb8f21d7919" x="108" y="196.226482" style="stroke: #000000; stroke-width: 0.8"/>
      </g>
     </g>
     <g id="text_14">
      <!-- 1.4 -->
      <g transform="translate(73.964687 202.685154) scale(0.17 -0.17)">
       <use xlink:href="#DejaVuSans-31"/>
       <use xlink:href="#DejaVuSans-2e" x="63.623047"/>
       <use xlink:href="#DejaVuSans-34" x="95.410156"/>
      </g>
     </g>
    </g>
    <g id="ytick_6">
     <g id="line2d_14">
      <g>
       <use xlink:href="#mb8f21d7919" x="108" y="119.349239" style="stroke: #000000; stroke-width: 0.8"/>
      </g>
     </g>
     <g id="text_15">
      <!-- 1.6 -->
      <g transform="translate(73.964687 125.807911) scale(0.17 -0.17)">
       <use xlink:href="#DejaVuSans-31"/>
       <use xlink:href="#DejaVuSans-2e" x="63.623047"/>
       <use xlink:href="#DejaVuSans-36" x="95.410156"/>
      </g>
     </g>
    </g>
    <g id="text_16">
     <!-- Nuclear/Cytoplasmic ratio -->
     <g transform="translate(66.429219 400.965625) rotate(-90) scale(0.17 -0.17)">
      <defs>
       <path id="DejaVuSans-4e" d="M 628 4666 
L 1478 4666 
L 3547 763 
L 3547 4666 
L 4159 4666 
L 4159 0 
L 3309 0 
L 1241 3903 
L 1241 0 
L 628 0 
L 628 4666 
z
" transform="scale(0.015625)"/>
       <path id="DejaVuSans-75" d="M 544 1381 
L 544 3500 
L 1119 3500 
L 1119 1403 
Q 1119 906 1312 657 
Q 1506 409 1894 409 
Q 2359 409 2629 706 
Q 2900 1003 2900 1516 
L 2900 3500 
L 3475 3500 
L 3475 0 
L 2900 0 
L 2900 538 
Q 2691 219 2414 64 
Q 2138 -91 1772 -91 
Q 1169 -91 856 284 
Q 544 659 544 1381 
z
M 1991 3584 
L 1991 3584 
z
" transform="scale(0.015625)"/>
       <path id="DejaVuSans-63" d="M 3122 3366 
L 3122 2828 
Q 2878 2963 2633 3030 
Q 2388 3097 2138 3097 
Q 1578 3097 1268 2742 
Q 959 2388 959 1747 
Q 959 1106 1268 751 
Q 1578 397 2138 397 
Q 2388 397 2633 464 
Q 2878 531 3122 666 
L 3122 134 
Q 2881 22 2623 -34 
Q 2366 -91 2075 -91 
Q 1284 -91 818 406 
Q 353 903 353 1747 
Q 353 2603 823 3093 
Q 1294 3584 2113 3584 
Q 2378 3584 2631 3529 
Q 2884 3475 3122 3366 
z
" transform="scale(0.015625)"/>
       <path id="DejaVuSans-2f" d="M 1625 4666 
L 2156 4666 
L 531 -594 
L 0 -594 
L 1625 4666 
z
" transform="scale(0.015625)"/>
       <path id="DejaVuSans-43" d="M 4122 4306 
L 4122 3641 
Q 3803 3938 3442 4084 
Q 3081 4231 2675 4231 
Q 1875 4231 1450 3742 
Q 1025 3253 1025 2328 
Q 1025 1406 1450 917 
Q 1875 428 2675 428 
Q 3081 428 3442 575 
Q 3803 722 4122 1019 
L 4122 359 
Q 3791 134 3420 21 
Q 3050 -91 2638 -91 
Q 1578 -91 968 557 
Q 359 1206 359 2328 
Q 359 3453 968 4101 
Q 1578 4750 2638 4750 
Q 3056 4750 3426 4639 
Q 3797 4528 4122 4306 
z
" transform="scale(0.015625)"/>
       <path id="DejaVuSans-79" d="M 2059 -325 
Q 1816 -950 1584 -1140 
Q 1353 -1331 966 -1331 
L 506 -1331 
L 506 -850 
L 844 -850 
Q 1081 -850 1212 -737 
Q 1344 -625 1503 -206 
L 1606 56 
L 191 3500 
L 800 3500 
L 1894 763 
L 2988 3500 
L 3597 3500 
L 2059 -325 
z
" transform="scale(0.015625)"/>
       <path id="DejaVuSans-73" d="M 2834 3397 
L 2834 2853 
Q 2591 2978 2328 3040 
Q 2066 3103 1784 3103 
Q 1356 3103 1142 2972 
Q 928 2841 928 2578 
Q 928 2378 1081 2264 
Q 1234 2150 1697 2047 
L 1894 2003 
Q 2506 1872 2764 1633 
Q 3022 1394 3022 966 
Q 3022 478 2636 193 
Q 2250 -91 1575 -91 
Q 1294 -91 989 -36 
Q 684 19 347 128 
L 347 722 
Q 666 556 975 473 
Q 1284 391 1588 391 
Q 1994 391 2212 530 
Q 2431 669 2431 922 
Q 2431 1156 2273 1281 
Q 2116 1406 1581 1522 
L 1381 1569 
Q 847 1681 609 1914 
Q 372 2147 372 2553 
Q 372 3047 722 3315 
Q 1072 3584 1716 3584 
Q 2034 3584 2315 3537 
Q 2597 3491 2834 3397 
z
" transform="scale(0.015625)"/>
       <path id="DejaVuSans-69" d="M 603 3500 
L 1178 3500 
L 1178 0 
L 603 0 
L 603 3500 
z
M 603 4863 
L 1178 4863 
L 1178 4134 
L 603 4134 
L 603 4863 
z
" transform="scale(0.015625)"/>
      </defs>
      <use xlink:href="#DejaVuSans-4e"/>
      <use xlink:href="#DejaVuSans-75" x="74.804688"/>
      <use xlink:href="#DejaVuSans-63" x="138.183594"/>
      <use xlink:href="#DejaVuSans-6c" x="193.164062"/>
      <use xlink:href="#DejaVuSans-65" x="220.947266"/>
      <use xlink:href="#DejaVuSans-61" x="282.470703"/>
      <use xlink:href="#DejaVuSans-72" x="343.75"/>
      <use xlink:href="#DejaVuSans-2f" x="384.863281"/>
      <use xlink:href="#DejaVuSans-43" x="418.554688"/>
      <use xlink:href="#DejaVuSans-79" x="488.378906"/>
      <use xlink:href="#DejaVuSans-74" x="547.558594"/>
      <use xlink:href="#DejaVuSans-6f" x="586.767578"/>
      <use xlink:href="#DejaVuSans-70" x="647.949219"/>
      <use xlink:href="#DejaVuSans-6c" x="711.425781"/>
      <use xlink:href="#DejaVuSans-61" x="739.208984"/>
      <use xlink:href="#DejaVuSans-73" x="800.488281"/>
      <use xlink:href="#DejaVuSans-6d" x="852.587891"/>
      <use xlink:href="#DejaVuSans-69" x="950"/>
      <use xlink:href="#DejaVuSans-63" x="977.783203"/>
      <use xlink:href="#DejaVuSans-20" x="1032.763672"/>
      <use xlink:href="#DejaVuSans-72" x="1064.550781"/>
      <use xlink:href="#DejaVuSans-61" x="1105.664062"/>
      <use xlink:href="#DejaVuSans-74" x="1166.943359"/>
      <use xlink:href="#DejaVuSans-69" x="1206.152344"/>
      <use xlink:href="#DejaVuSans-6f" x="1233.935547"/>
     </g>
    </g>
   </g>
   <g id="line2d_15">
    <path d="M 138.436364 290.88 
L 146.662408 295.371723 
L 154.888452 299.863445 
L 163.114496 304.355168 
L 171.340541 308.84689 
L 179.566585 311.430731 
L 187.792629 310.400745 
L 196.018673 309.370758 
L 204.244717 304.811447 
L 212.470762 288.893753 
L 220.696806 291.411789 
L 228.92285 312.991876 
L 237.148894 317.692493 
L 245.374939 316.594725 
L 253.600983 308.170364 
L 261.827027 302.008125 
L 270.053071 298.621672 
L 278.279115 296.671576 
L 286.50516 296.848098 
L 294.731204 288.024346 
L 302.957248 293.478416 
L 311.183292 322.052677 
L 319.409337 351.232121 
L 327.635381 355.363372 
L 335.861425 336.839827 
L 344.087469 351.266605 
L 352.313514 336.933792 
L 360.539558 334.446085 
L 368.765602 337.510222 
L 376.991646 338.318451 
L 385.21769 334.63174 
L 393.443735 327.209832 
L 401.669779 317.720656 
L 409.895823 311.843356 
L 418.121867 318.564458 
L 426.347912 326.186847 
L 434.573956 323.910098 
L 442.8 320.073892 
L 451.026044 317.542488 
L 459.252088 315.410179 
L 467.478133 316.699507 
L 475.704177 319.264467 
L 483.930221 317.079606 
L 492.156265 310.554662 
L 500.38231 307.393655 
L 508.608354 321.673416 
L 516.834398 344.041387 
L 525.060442 362.990682 
L 533.286486 373.733508 
L 541.512531 372.184766 
L 549.738575 372.184766 
L 557.964619 362.682013 
L 566.190663 353.78505 
L 574.416708 352.079501 
L 582.642752 353.081756 
L 590.868796 355.665594 
L 599.09484 357.063326 
L 607.320885 352.754192 
L 615.546929 346.921414 
L 623.772973 338.686855 
L 631.999017 334.117851 
L 640.225061 334.339415 
L 648.451106 339.066891 
L 656.67715 342.223008 
L 664.903194 340.12117 
L 673.129238 334.766445 
L 681.355283 333.688306 
L 689.581327 339.074442 
L 697.807371 347.965719 
L 706.033415 355.810144 
L 714.259459 359.725371 
L 722.485504 362.984914 
L 730.711548 366.816567 
L 738.937592 371.999818 
L 747.163636 368.817341 
" clip-path="url(#p88494222b0)" style="fill: none; stroke: #1f77b4; stroke-width: 1.5; stroke-linecap: square"/>
   </g>
   <g id="line2d_16">
    <path d="M 138.436364 374.565382 
L 146.662408 368.150934 
L 154.888452 361.736486 
L 163.114496 355.322038 
L 171.340541 348.358865 
L 179.566585 338.229612 
L 187.792629 333.733364 
L 196.018673 318.651151 
L 204.244717 302.642402 
L 212.470762 298.178691 
L 220.696806 292.86946 
L 228.92285 294.384402 
L 237.148894 310.084673 
L 245.374939 311.176181 
L 253.600983 304.566382 
L 261.827027 312.048694 
L 270.053071 315.233221 
L 278.279115 320.069455 
L 286.50516 326.12552 
L 294.731204 319.092026 
L 302.957248 325.666797 
L 311.183292 352.78165 
L 319.409337 378.735176 
L 327.635381 383.033352 
L 335.861425 367.454715 
L 344.087469 364.664678 
L 352.313514 347.142472 
L 360.539558 338.719624 
L 368.765602 344.402135 
L 376.991646 348.053496 
L 385.21769 351.818352 
L 393.443735 355.151207 
L 401.669779 351.965624 
L 409.895823 352.371129 
L 418.121867 362.232753 
L 426.347912 367.681079 
L 434.573956 365.162465 
L 442.8 366.504982 
L 451.026044 371.943338 
L 459.252088 371.591639 
L 467.478133 358.909059 
L 475.704177 355.433067 
L 483.930221 358.969938 
L 492.156265 359.309544 
L 500.38231 361.44632 
L 508.608354 368.017571 
L 516.834398 376.337613 
L 525.060442 377.953648 
L 533.286486 386.247304 
L 541.512531 389.209872 
L 549.738575 389.209872 
L 557.964619 381.846605 
L 566.190663 368.137954 
L 574.416708 356.771361 
L 582.642752 351.317191 
L 590.868796 348.833413 
L 599.09484 347.184822 
L 607.320885 350.353702 
L 615.546929 354.734533 
L 623.772973 357.046998 
L 631.999017 355.032178 
L 640.225061 353.46192 
L 648.451106 353.705734 
L 656.67715 357.64843 
L 664.903194 364.090465 
L 673.129238 365.617997 
L 681.355283 363.562167 
L 689.581327 361.467481 
L 697.807371 368.021756 
L 706.033415 373.73893 
L 714.259459 374.102824 
L 722.485504 367.814779 
L 730.711548 360.563761 
L 738.937592 360.25408 
L 747.163636 365.00665 
" clip-path="url(#p88494222b0)" style="fill: none; stroke: #ff7f0e; stroke-width: 1.5; stroke-linecap: square"/>
   </g>
   <g id="patch_3">
    <path d="M 108 512.64 
L 108 69.12 
" style="fill: none; stroke: #000000; stroke-width: 0.8; stroke-linejoin: miter; stroke-linecap: square"/>
   </g>
   <g id="patch_4">
    <path d="M 777.6 512.64 
L 777.6 69.12 
" style="fill: none; stroke: #000000; stroke-width: 0.8; stroke-linejoin: miter; stroke-linecap: square"/>
   </g>
   <g id="patch_5">
    <path d="M 108 512.64 
L 777.6 512.64 
" style="fill: none; stroke: #000000; stroke-width: 0.8; stroke-linejoin: miter; stroke-linecap: square"/>
   </g>
   <g id="patch_6">
    <path d="M 108 69.12 
L 777.6 69.12 
" style="fill: none; stroke: #000000; stroke-width: 0.8; stroke-linejoin: miter; stroke-linecap: square"/>
   </g>
   <g id="legend_1">
    <g id="patch_7">
     <path d="M 655.566563 132.625625 
L 765.7 132.625625 
Q 769.1 132.625625 769.1 129.225625 
L 769.1 81.02 
Q 769.1 77.62 765.7 77.62 
L 655.566563 77.62 
Q 652.166563 77.62 652.166563 81.02 
L 652.166563 129.225625 
Q 652.166563 132.625625 655.566563 132.625625 
z
" style="fill: #ffffff; opacity: 0.8; stroke: #cccccc; stroke-linejoin: miter"/>
    </g>
    <g id="line2d_17">
     <path d="M 658.966563 91.387344 
L 675.966563 91.387344 
L 692.966563 91.387344 
" style="fill: none; stroke: #1f77b4; stroke-width: 1.5; stroke-linecap: square"/>
    </g>
    <g id="text_17">
     <!-- TIR -->
     <g transform="translate(706.566563 97.337344) scale(0.17 -0.17)">
      <defs>
       <path id="DejaVuSans-54" d="M -19 4666 
L 3928 4666 
L 3928 4134 
L 2272 4134 
L 2272 0 
L 1638 0 
L 1638 4134 
L -19 4134 
L -19 4666 
z
" transform="scale(0.015625)"/>
       <path id="DejaVuSans-49" d="M 628 4666 
L 1259 4666 
L 1259 0 
L 628 0 
L 628 4666 
z
" transform="scale(0.015625)"/>
       <path id="DejaVuSans-52" d="M 2841 2188 
Q 3044 2119 3236 1894 
Q 3428 1669 3622 1275 
L 4263 0 
L 3584 0 
L 2988 1197 
Q 2756 1666 2539 1819 
Q 2322 1972 1947 1972 
L 1259 1972 
L 1259 0 
L 628 0 
L 628 4666 
L 2053 4666 
Q 2853 4666 3247 4331 
Q 3641 3997 3641 3322 
Q 3641 2881 3436 2590 
Q 3231 2300 2841 2188 
z
M 1259 4147 
L 1259 2491 
L 2053 2491 
Q 2509 2491 2742 2702 
Q 2975 2913 2975 3322 
Q 2975 3731 2742 3939 
Q 2509 4147 2053 4147 
L 1259 4147 
z
" transform="scale(0.015625)"/>
      </defs>
      <use xlink:href="#DejaVuSans-54"/>
      <use xlink:href="#DejaVuSans-49" x="61.083984"/>
      <use xlink:href="#DejaVuSans-52" x="90.576172"/>
     </g>
    </g>
    <g id="line2d_18">
     <path d="M 658.966563 116.340156 
L 675.966563 116.340156 
L 692.966563 116.340156 
" style="fill: none; stroke: #ff7f0e; stroke-width: 1.5; stroke-linecap: square"/>
    </g>
    <g id="text_18">
     <!-- No TIR -->
     <g transform="translate(706.566563 122.290156) scale(0.17 -0.17)">
      <use xlink:href="#DejaVuSans-4e"/>
      <use xlink:href="#DejaVuSans-6f" x="74.804688"/>
      <use xlink:href="#DejaVuSans-20" x="135.986328"/>
      <use xlink:href="#DejaVuSans-54" x="167.773438"/>
      <use xlink:href="#DejaVuSans-49" x="228.857422"/>
      <use xlink:href="#DejaVuSans-52" x="258.349609"/>
     </g>
    </g>
   </g>
  </g>
 </g>
 <defs>
  <clipPath id="p88494222b0">
   <rect x="108" y="69.12" width="669.6" height="443.52"/>
  </clipPath>
 </defs>
</svg>
